<svg xmlns="http://www.w3.org/2000/svg" xmlns:xlink="http://www.w3.org/1999/xlink" width="312.043" height="709.741" viewBox="0 0 312.043 709.741">
  <defs>
    <filter id="Контур_512" x="0" y="0" width="312.043" height="709.741" filterUnits="userSpaceOnUse">
      <feOffset dy="3" input="SourceAlpha"/>
      <feGaussianBlur stdDeviation="15.5" result="blur"/>
      <feFlood flood-color="#3498db"/>
      <feComposite operator="in" in2="blur"/>
      <feComposite in="SourceGraphic"/>
    </filter>
  </defs>
  <g transform="matrix(1, 0, 0, 1, 0, 0)" filter="url(#Контур_512)">
    <path id="Контур_512-2" data-name="Контур 512" d="M2226.353,727.6c-1.693-1.828-3.154-3.752-2.73-6.472q1.015-3.286,2.029-6.571.739-1.944,1.478-3.889c1.29-3.477,3.582-6.307,5.9-9.123.814-.846,1.577-1.75,2.455-2.524,1.248-1.1,1.006-2.095-.257-2.781-2.2-1.2-1.775-2.837-1.023-4.614l1.913-2.459,9.244-7.316a23.3,23.3,0,0,1,2.221-1.291c2.21-.991,2.352-2.107.731-3.968a69.581,69.581,0,0,0-5.883-6.468c-3.519-3.148-3.283-4.3.66-6.7,1.023-.622,3.032-.436,2.722-2.553q-.951-4.285-1.9-8.57l-1.937-9.791a47.723,47.723,0,0,0-1.894-9.187q-1.656-10.15-3.311-20.3c.213-2.48-.583-4.837-.886-7.255l-1.646-13.092a36.416,36.416,0,0,0-.706-9.14c-.017-3.289.15-6.591-.662-9.827q-.028-.665-.056-1.33a.766.766,0,0,0-.01-.612q0-1.006-.005-2.012a.659.659,0,0,0-.032-.6,12.913,12.913,0,0,0-.531-5.28c-.054-3.307.185-6.628-.464-9.907-.533-3.228.124-6.565-.891-9.749a53.921,53.921,0,0,0-.7-9.8,26.247,26.247,0,0,0-.653-7.244.933.933,0,0,0-.015-.605c.045-.72.467-1.532-.489-2.009a251.583,251.583,0,0,0-2.061-26.182l-.079-1.337c.357-4.726-.892-8.566-5.293-11.172-2.681-1.588-4.851-4.033-7.521-5.645-6.087-3.674-10.563-8.293-10.833-15.867a43.473,43.473,0,0,1-1.212-8.58l0-9.8q0-3.946-.008-7.891a.77.77,0,0,0-.011-.614l-.04-1.355q-.584-4.906-1.169-9.814c.186-3.327-.608-6.568-.877-9.854-.613-3.249.193-6.861-1.53-9.751a29.8,29.8,0,0,1-3.692-9.832c-.719-1.915-.083-4.077-1.084-5.939l-.107-1.934-.038-1.351-.1-10.427a60.283,60.283,0,0,0-.357-9.889q-.081-4.894-.163-9.788.03-3.937.058-7.874l.012-.661.054-.63q.965-5.255,1.929-10.51a3.748,3.748,0,0,0,.494-2.649.759.759,0,0,0,.016-.582,25.857,25.857,0,0,0,.069-6.6q-.036-4.9-.071-9.791a15.459,15.459,0,0,0-.542-5.92q-.03-.97-.061-1.939-.016-.679-.033-1.358c-.08-1.81.648-3.868-.7-5.34a52.91,52.91,0,0,0-8.474-8.033c-4.3-2.988-4.343-2.928-1.529-7.03a.544.544,0,0,0,.247-.414l2.12-2.714-.021.045a26.6,26.6,0,0,0,4.97-7.226,30.656,30.656,0,0,0,4.626-9.265q.725-1.951,1.452-3.9a10.233,10.233,0,0,0,1.5-5.8c2.5-2.891,3.249-6.665,5.009-9.928l.76-1.282.4-.622.267-.133,0-.3,1.448-2.141-.083.064,3.96-4.561,6.03-5.238c6.369-4.142,13.31-7.344,19.463-11.841a10.592,10.592,0,0,0,3.909-2.725,31.945,31.945,0,0,0,6.467-4.694,32.681,32.681,0,0,0,6.1-4.566c1.1-.759,2.38-1.279,3.168-2.439,6.591-1.725,6.591-1.725,6.4-8.007.19-4.163,1.539-8.308.19-12.494a39.706,39.706,0,0,0-3.369-8.476,29.622,29.622,0,0,1-1.266-4.677c-.277-2.554-1.7-3.259-3.963-3.026-.768-.219-.576-.936-.758-1.459.126-3.3-.27-6.666,1.26-9.785,1.565-3.179,2.323-6.423.786-9.85a52.109,52.109,0,0,0,.573-9.811l.107-1.21.473-.723v-1.389a22.991,22.991,0,0,1,2.146-5.823c2.23-3.052,5.339-5.19,8.045-7.747l3.786-2.75-.039.038c.643-.19,1.3-.359,1.574-1.084l-.08.077c4.217-2.464,8.867-2.476,13.534-2.4,2.885.816,6.031.614,8.708,2.239a5.454,5.454,0,0,0,2.413,1.871A57.278,57.278,0,0,0,2304,129l2.77,3.552c.68,2.853,4.24,3.729,4.646,6.77q.195,5.9.388,11.8c.118,3.135-2.4,5.949-1.122,9.225-.537,1.984,1.78,2.185,2.26,3.645.767,2.337-.381,4.547-.059,6.811a17.582,17.582,0,0,1-4.374,9.633,22.1,22.1,0,0,0-1.856,9.983,1.276,1.276,0,0,0,.083,1.427,11.63,11.63,0,0,0,.014,4.635,8.388,8.388,0,0,0,.116,3.806,3.012,3.012,0,0,0,.948,3.192c2.1,1.932,4.354,3.478,7.322,3.622,3,.631,5.1,3.1,8.027,3.873l2.737.5,6.59,2.526,24.217,14.431.693.551a.641.641,0,0,0,.58.235l-.058-.058a35.117,35.117,0,0,0,6.648,4.52,26.118,26.118,0,0,0,4.376,5.313c.131.4.237.821.8.779l-.084.075c.767,2.015,1.892,3.7,4.048,4.458,5.537,3.634,8.823,8.951,11.191,14.956l2.8,9.782a52.772,52.772,0,0,0,2.961,10.678,13.726,13.726,0,0,0,2.657,6.466c.553,2.455,2.47,3.989,4.066,5.661,1.508,1.579,1.124,2.419-.472,3.481-1.316.877-2.912,1.45-3.74,2.96-2.472,1.924-2.678,4.6-2.24,7.353a40.817,40.817,0,0,0,4.5,13.189c1.606,2.873,1.052,6.21,1.981,9.228q.538,4.928,1.078,9.856c.041,1.162-.41,2.206.091,3.524a8.085,8.085,0,0,1,.167,5.623q-.127,5.251-.253,10.5c-.736,3.219-.535,6.492-.579,9.751-.818,3.251-.5,6.573-.631,9.867q-.581,4.92-1.164,9.839-.974,7.5-1.95,15.008-.1.648-.2,1.3c-.328,2.71-.707,5.416-.973,8.133-.815,8.293-3.358,16.594.034,24.883q1.186,4.812,2.374,9.625a11.686,11.686,0,0,1-1.573,10.565,2.534,2.534,0,0,0-1.143,1.839,44.926,44.926,0,0,0-3.993,7.211,38,38,0,0,0-4.489,8.156c-.452.229-.962.4-1.027,1.021-3.528,1.369-6.433,3.734-9.455,5.911l-6.736,4.308.023.044-1.294.849a2.151,2.151,0,0,0-1.682.989c-1.749,1.07-3.435,2.268-5.263,3.179-2.63,1.311-3.315,3.095-1.86,5.665l2.144,9.269q1.176,5.847,2.353,11.694a38.573,38.573,0,0,0,1.192,7.9,34.143,34.143,0,0,0,.632,7.872q.023.653.045,1.305c-.559,7.087-.252,14.222-1.266,21.29-.165,1.147-.6,2.569.511,3.643q.094,2.61.187,5.219.3,13.08.6,26.161.009,1.328.017,2.657a48.618,48.618,0,0,1-.64,7.1c-1.861,7.912.158,15.436,1.931,23.007q-.075,1.288-.149,2.577c-.991.77-.442,1.729-.321,2.635q-.062,2.325-.124,4.65c-1.329,3.187-.415,6.516-.621,9.774q-.116.973-.232,1.947c-1.417,1.4.208,3.167-.569,4.643-.4.039-.651.195-.484.656-.821.964-.468,2.188-.723,3.278-2.259,3.1.041,3.357,2.281,3.651,1.958,1.528.423,3.7,1.013,5.482-.465,2.826.5,5.785-.789,8.536l-.854,1.668c-2.059,1.89-1.883,3.32.87,4.218,6.712,3.222,10.3,8.948,12.611,15.7a54.12,54.12,0,0,0,2.344,9.231c.036,3.414,1.393,6.533,2.186,9.777-1.357,2.84-3.131,5.481-4.081,8.517a12.823,12.823,0,0,1-3.887,4.628,23.825,23.825,0,0,1-9.215,2.114l-11.147-.9-8.365-2.75c.169-1.2-.637-1.935-1.3-2.741a52.955,52.955,0,0,0-5.318-8.858,14.28,14.28,0,0,1-1.546-5.24c-.394-4.8-1.381-9.325-5.9-12.291-1.485-.976-2.387-2.8-3.681-4.115-1.324-1.344-1.8-2.646-.5-4.254,2.08-2.569,1.314-4.437-1.469-5.781-2.275-2.485-5.44-4.2-6.635-7.622-1.576-6.775-4.12-13.25-6.135-19.89l-1.723-7.626a.836.836,0,0,0-.045-.624q-.009-.676-.019-1.352l-.606-9.8q.278-4.6.555-9.208c-.081-3.5,1.043-6.918.7-10.435l.021-1.35a.707.707,0,0,0,.016-.616q.02-1.978.04-3.954v-1.3a4.25,4.25,0,0,0,.081-2.605,36.884,36.884,0,0,0-.07-9.846l-.084-3.3a.807.807,0,0,0,0-.6q-.018-2.645-.036-5.291c0-3.5.314-7.008-.377-10.482.557-1.546.084-3.047-.2-4.557q-.028-1.622-.056-3.243-.013-1.013-.027-2.026l-.628-10.438a34.38,34.38,0,0,0-.587-9.2c.764-7.413-2.81-13.8-4.843-20.557a41.925,41.925,0,0,0-3.458-8.949c-1.11-3.437-2.715-6.737-2.882-10.434a17.893,17.893,0,0,0-.621-6.579.8.8,0,0,0-.028-.622l-.037-1.352q-.632-7.7-1.265-15.406c-.5,8.279-2.267,16.406-2.115,24.669q-.437,4.9-.872,9.8a49.442,49.442,0,0,0-.771,10.413q-.023.679-.046,1.357a.845.845,0,0,0-.021.615q-.089.961-.178,1.921l-.169.673a12.914,12.914,0,0,0-.358,4.63c-.92,3.26-.532,6.661-1.079,9.96-.1,2.173-.811,4.31-.391,6.514a81.865,81.865,0,0,0,.135,13.011,16.592,16.592,0,0,0,.067,5.229.9.9,0,0,0,.013.642l.013,3.965q.023,4.895.045,9.788.04,4.944.078,9.888l.441,15.7a2.49,2.49,0,0,0,.018,1.953l.094,11.775a48.744,48.744,0,0,0,.227,9.889c.548,3.24.006,6.589.98,9.787a15.14,15.14,0,0,0,.417,5.293l.25,1.91.089,1.984c.039,5.467.6,10.825,2.851,15.914.59,1.334,1.492,2.727.824,4.351-.692.48-.644,1.227-.7,1.937-.768,2.211-2.6,3.419-4.474,4.466-1.456.81-2.061,1.794-1.584,3.4q-.581,4.88-1.164,9.76c-.111,2.042-1.679,3.036-3.016,4.2a51.6,51.6,0,0,1-8.559,5.064l-1.281.779c-2.093.024-3.292.758-3.352,3.169a50.964,50.964,0,0,1-.993,6.613,55.588,55.588,0,0,1-2.012,9.9l-3.463,4.38-8.588,4.592a1.348,1.348,0,0,0-1.275.676c-3.21.974-6.389,2.082-9.791,2.2l-7.874-.22-8.416-2.935Zm.479-323.53q.056-2.641.111-5.282c.158-1.064.77-2.333.4-3.158-1.846-4.08-2.418-8.557-4.142-12.9-.847,2.745-.483,5.4-1,7.92-.518,2.5.142,4.987-.248,7.459q-.182,4.24-.363,8.479c-.707,3.491-.378,7.021-.4,10.537l-.034,2.01q.023,1.6.045,3.208c.265,3.193.338,6.476,4.248,8.479-.312-4.369-.348-8.445.811-12.4.019-3.923,1.978-7.744.615-11.739q.015-.675.03-1.351Q2226.861,404.7,2226.831,404.065Zm132.521,15.055c-.541,6.631-.731,13.292-1.762,19.935,1.993-4.447,5.528-8.1,6.171-13.124a6.069,6.069,0,0,0,.757-4.225c.878-10.019,2.013-20.021,1.964-30.1l-.032-3.964c.886-7.826-2.6-14.6-5.2-21.582l-3.325-10.563-.406.11v11.775l1.226,9.778q.519,4.962,1.037,9.922a61.794,61.794,0,0,0-.279,9.714q-.033,4.943-.067,9.884-.03,4.9-.058,9.791Z" transform="translate(-2134.65 -73.84)" fill="none" stroke="#fff" stroke-width="2"/>
  </g>
</svg>
