<svg xmlns="http://www.w3.org/2000/svg" width="48.313" height="30.196" viewBox="0 0 48.313 30.196">
  <g id="Сгруппировать_276" data-name="Сгруппировать 276" transform="translate(0 30.196) rotate(-90)">
    <g id="commerce" transform="translate(30.196 0) rotate(90)" opacity="0.69">
      <g id="Сгруппировать_275" data-name="Сгруппировать 275">
        <path id="Контур_201" data-name="Контур 201" d="M47.132,10.912l1.181-.2V0H35.1V5.143H32.272V0H0V10.714l1.181.2a4.246,4.246,0,0,1,0,8.372L0,19.482V30.2H32.272V25.053H35.1V30.2H48.313V19.482l-1.181-.2a4.246,4.246,0,0,1,0-8.372ZM35.1,22.222H32.272V16.56H35.1Zm0-8.587H32.272V7.974H35.1Z" fill="#fff"/>
      </g>
    </g>
    <path id="Icon_map-gas-station" data-name="Icon map-gas-station" d="M16.661,3.123c.212-.212.511-.443.816-.721l.282-.236L16.991,1.3l-.251.235a5.33,5.33,0,0,0-2.012,2.742,12.406,12.406,0,0,0-.29,3.515,7.954,7.954,0,0,0,.4,2.776l.122.314a9.059,9.059,0,0,1,.781,3.483c0,1.836-.744,2.767-2.21,2.767-1.334,0-2.054-.891-2.138-2.65a11.24,11.24,0,0,1,.411-2.759,22.777,22.777,0,0,0,.493-2.69,2.857,2.857,0,0,0-.427-2.228,2.54,2.54,0,0,0-2-.623H9.664V.827A.8.8,0,0,0,8.866,0H.887A.873.873,0,0,0,0,.827V17.782H9.664V7.345h.212a1.818,1.818,0,0,1,1.135.24c.09.1.227.426.136,1.3a22.019,22.019,0,0,1-.473,2.565,12.016,12.016,0,0,0-.436,3.082c.114,2.389,1.316,3.761,3.3,3.761,2.109,0,3.369-1.468,3.369-3.93a10.227,10.227,0,0,0-.863-3.915l-.117-.3a6.333,6.333,0,0,1-.317-2.177c.372-.009.823-.017,1.026-.017.463,0,.7-.272.8-.743A10.822,10.822,0,0,0,17.4,5.931V5.757C17.4,4.031,17.131,3.537,16.661,3.123ZM8.5,6.571H1.16V1.546H8.5Zm7.731-.639c0,.337.089.66.078.865-.231,0-.5.01-.768.016a9.391,9.391,0,0,1,.283-2.236,2.927,2.927,0,0,1,.114-.526c.206.2.292.5.292,1.707v.174Z" transform="translate(24.166 10.918) rotate(90)" fill="#494949" opacity="0.55"/>
  </g>
</svg>
