<svg xmlns="http://www.w3.org/2000/svg" width="36.269" height="36.269" viewBox="0 0 36.269 36.269">
  <path id="Icon_ionic-md-exit" data-name="Icon ionic-md-exit" d="M18.806,29.889l2.821,2.821L31.7,22.635,21.627,12.56l-2.821,2.821,5.239,5.239H4.5v4.03H23.944ZM36.739,4.5H8.53A4.042,4.042,0,0,0,4.5,8.53v8.06H8.53V8.53h28.21V36.74H8.53V28.68H4.5v8.06a4.042,4.042,0,0,0,4.03,4.03h28.21a4.042,4.042,0,0,0,4.03-4.03V8.53A4.042,4.042,0,0,0,36.739,4.5Z" transform="translate(-4.5 -4.5)" fill="rgba(246,45,47,0.51)" opacity="0.69"/>
</svg>
