<svg xmlns="http://www.w3.org/2000/svg" xmlns:xlink="http://www.w3.org/1999/xlink" width="440.292" height="453.623" viewBox="0 0 440.292 453.623">
  <defs>
    <linearGradient id="linear-gradient" x1="0.5" x2="0.5" y2="1" gradientUnits="objectBoundingBox">
      <stop offset="0" stop-color="#63b6ff"/>
      <stop offset="1"/>
    </linearGradient>
  </defs>
  <g id="Icon_map-gas-station" data-name="Icon map-gas-station" transform="translate(-1.44 -1.44)" fill="url(#linear-gradient)">
    <path d="M 336.9639587402344 454.0632629394531 C 324.9572448730469 454.0632629394531 313.9627685546875 451.9894409179688 304.285888671875 447.8994445800781 C 294.7344665527344 443.8624877929688 286.4054260253906 437.8356628417969 279.5301818847656 429.9864501953125 C 272.6410522460938 422.1213684082031 267.172119140625 412.3830261230469 263.2752380371094 401.0418395996094 C 259.3230590820313 389.539794921875 256.9667053222656 376.32568359375 256.2716674804688 361.7665710449219 C 255.996826171875 356.1920776367188 256.1079406738281 350.3609619140625 256.6112976074219 343.9384460449219 C 257.0625915527344 338.1803894042969 257.8226623535156 332.0592041015625 258.9348754882813 325.2251586914063 C 261.0208435058594 312.407958984375 264.0951232910156 298.7918395996094 267.0682373046875 285.6239624023438 C 271.4801330566406 266.1806030273438 276.48095703125 244.141845703125 278.8081970214844 221.9107360839844 C 279.8085327148438 212.2429656982422 279.8012390136719 204.2829742431641 278.7865295410156 198.2506103515625 C 277.8631286621094 192.7609100341797 276.3137817382813 190.0894927978516 275.1766662597656 188.8151397705078 C 273.1135864257813 186.5138549804688 269.1514282226563 184.8220825195313 263.3986511230469 183.7852020263672 C 258.7756652832031 182.951904296875 253.0172424316406 182.5294342041016 246.2832946777344 182.5294342041016 L 241.0314788818359 182.5294342041016 L 240.0314788818359 182.5294342041016 L 240.0314788818359 183.5294342041016 L 240.0314788818359 441.2882690429688 L 2.440007448196411 441.2882690429688 L 2.440007448196411 21.9394416809082 C 2.440007448196411 19.30008888244629 3.023595571517944 16.73455810546875 4.174595832824707 14.31414699554443 C 5.272889614105225 12.00461769104004 6.838595390319824 9.920029640197754 8.828184127807617 8.11832332611084 C 12.81318378448486 4.509676456451416 18.13694763183594 2.440029144287109 23.43447875976563 2.440029144287109 L 221.2507781982422 2.440029144287109 C 226.4666595458984 2.440029144287109 231.2447662353516 4.438440799713135 234.7048950195313 8.067205429077148 C 238.1397705078125 11.66944122314453 240.0314788818359 16.59602928161621 240.0314788818359 21.9394416809082 L 240.0314788818359 154.7785034179688 L 240.0314788818359 155.7785034179688 L 241.0314788818359 155.7785034179688 L 246.2737121582031 155.7785034179688 C 254.7898864746094 155.7785034179688 263.8594665527344 156.0660858154297 272.4847717285156 158.1523895263672 C 282.0487670898438 160.4657287597656 289.4228210449219 164.6336822509766 295.0282897949219 170.8943786621094 C 297.4189453125 173.5650939941406 299.4523620605469 176.734375 301.0719604492188 180.3140869140625 C 302.6947631835938 183.9009704589844 303.9513549804688 188.0082702636719 304.806884765625 192.5219116210938 C 305.6625366210938 197.0360260009766 306.1423034667969 202.0903167724609 306.2329406738281 207.5443267822266 C 306.3233642578125 212.9835510253906 306.0293579101563 218.9819641113281 305.359130859375 225.3728485107422 C 304.2658996582031 235.8292694091797 302.5615844726563 246.9634399414063 300.1488342285156 259.4119262695313 C 297.968017578125 270.6637878417969 295.4081115722656 281.9668579101563 293.1495971679688 291.9393920898438 L 293.0615234375 292.328857421875 C 287.371826171875 317.4871520996094 281.9976501464844 341.2502746582031 282.9482421875 360.6173706054688 C 283.9980773925781 382.5385437011719 289.0806579589844 399.2910766601563 298.0547790527344 410.4086303710938 C 307.0881958007813 421.599609375 320.1791381835938 427.2739562988281 336.9638366699219 427.2739562988281 C 355.3778991699219 427.2739562988281 369.4468383789063 421.349609375 378.7799987792969 409.6654357910156 C 388.05859375 398.0496215820313 392.7632446289063 380.5572204589844 392.7632446289063 357.6741333007813 C 392.7632446289063 319.8681030273438 381.0866394042969 290.4881591796875 373.3600769042969 271.0468444824219 L 373.3248901367188 270.9583740234375 L 370.300048828125 263.176025390625 C 362.3343505859375 242.2047882080078 361.248779296875 223.3055114746094 360.4084167480469 194.6746826171875 C 359.6056518554688 166.8845062255859 359.9157104492188 137.1279754638672 367.5546569824219 107.8216781616211 C 371.166015625 93.98926544189453 376.6518249511719 82.95914459228516 385.3418884277344 72.05755615234375 C 393.5547180175781 61.75473403930664 403.9638977050781 52.29702758789063 417.1423645019531 40.32308959960938 L 417.147705078125 40.31826400756836 L 417.1529541015625 40.31332397460938 L 422.6246337890625 35.19575500488281 L 440.3001708984375 55.03287887573242 L 434.1036682128906 60.2264404296875 L 434.0874633789063 60.23997116088867 L 434.0719604492188 60.25420379638672 C 430.8070678710938 63.23355865478516 427.6078186035156 65.96079254150391 424.5139465332031 68.5982666015625 C 420.5556640625 71.97255706787109 416.81689453125 75.15979766845703 413.8077697753906 78.16885375976563 L 413.0547180175781 78.92191314697266 L 413.8536682128906 79.62614440917969 C 417.0590515136719 82.45161437988281 419.4718322753906 85.09914398193359 421.44677734375 87.95790863037109 C 423.7654113769531 91.314208984375 425.5900573730469 95.13108825683594 427.0248413085938 99.62673187255859 C 430.2196044921875 109.6365585327148 431.7096557617188 123.7934417724609 431.7142333984375 144.17919921875 L 431.7142333984375 148.4724426269531 C 431.7142333984375 155.671142578125 432.1568298339844 161.5149688720703 432.5124206542969 166.2104949951172 C 432.96630859375 172.2030334472656 433.294189453125 176.5326690673828 432.521728515625 180.1889190673828 C 431.2738342285156 186.1030883789063 429.2442932128906 190.3804931640625 426.3171691894531 193.2658538818359 C 423.218017578125 196.32080078125 419.1129455566406 197.8058013916016 413.7674255371094 197.8058013916016 C 407.8450622558594 197.8058013916016 393.9977722167969 198.1076202392578 388.3191223144531 198.2373199462891 L 387.3098754882813 198.2603759765625 L 387.3424682617188 199.2693786621094 C 388.1575317382813 224.5060272216797 389.4949035644531 238.3348541259766 395.2654113769531 253.5664978027344 L 395.2677001953125 253.5725555419922 L 395.2700805664063 253.5785522460938 L 398.1643676757813 260.9292602539063 C 406.1395263671875 280.986328125 419.4855346679688 314.5505676269531 419.4855346679688 357.6166076660156 C 419.4855346679688 372.5985107421875 417.58447265625 386.2861022949219 413.8351135253906 398.29931640625 C 410.149169921875 410.1093139648438 404.6792297363281 420.2979125976563 397.5773010253906 428.5820922851563 C 390.4884643554688 436.8508605957031 381.777587890625 443.21630859375 371.6865234375 447.5016784667969 C 361.433837890625 451.8556213378906 349.75146484375 454.0632629394531 336.9639587402344 454.0632629394531 Z M 396.4121398925781 100.2036209106445 L 395.8097839355469 101.4382019042969 C 394.582763671875 103.9529113769531 394.2421264648438 106.5114440917969 393.8814086914063 109.2201461791992 C 393.6478881835938 110.9743270874023 393.4063720703125 112.7881469726563 392.9053039550781 114.672737121582 C 388.4910583496094 131.6042022705078 386.11669921875 150.3345031738281 385.8470153808594 170.3480224609375 L 385.8330078125 171.3849182128906 L 386.8697204589844 171.3612670898438 L 387.9510803222656 171.3365020751953 C 394.3922424316406 171.189208984375 400.4761962890625 171.0500335693359 405.8951110839844 170.9684448242188 L 406.8277282714844 170.9543762207031 L 406.8786010742188 170.0230865478516 C 407.0169372558594 167.4887390136719 406.5811157226563 164.3860321044922 406.0764770507813 160.7933807373047 C 405.5502319335938 157.0469055175781 404.9537658691406 152.8005523681641 404.9537658691406 148.5107879638672 L 404.9537048339844 144.1981506347656 C 404.9537048339844 129.2372131347656 404.421875 119.7486724853516 403.2293090820313 113.4323806762695 C 402.1365356445313 107.6448516845703 400.4482421875 104.0882034301758 397.4019470214844 101.1562652587891 L 396.4121398925781 100.2036209106445 Z M 29.19100761413574 38.77461624145508 L 29.19100761413574 39.77461624145508 L 29.19100761413574 164.3621520996094 L 29.19100761413574 165.3621520996094 L 30.19100761413574 165.3621520996094 L 212.2805328369141 165.3621520996094 L 213.2805328369141 165.3621520996094 L 213.2805328369141 164.3621520996094 L 213.2805328369141 39.77461624145508 L 213.2805328369141 38.77461624145508 L 212.2805328369141 38.77461624145508 L 30.19100761413574 38.77461624145508 L 29.19100761413574 38.77461624145508 Z" stroke="none"/>
    <path d="M 23.43447875976563 3.439971923828125 C 18.3819580078125 3.439971923828125 13.30282592773438 5.415313720703125 9.499420166015625 8.85955810546875 C 5.591949462890625 12.39797973632813 3.44000244140625 17.043212890625 3.44000244140625 21.939453125 L 3.44000244140625 440.2882080078125 L 239.0314788818359 440.2882080078125 L 239.0314788818359 183.5295104980469 L 239.0314788818359 181.5295104980469 L 241.0314788818359 181.5295104980469 L 246.2832946777344 181.5295104980469 C 262.0128173828125 181.5295104980469 271.9839477539063 183.7555541992188 275.9228515625 188.1493225097656 C 277.1475830078125 189.5219116210938 278.8096923828125 192.3598022460938 279.7726440429688 198.0847473144531 C 280.8023071289063 204.2058563232422 280.8125 212.2563171386719 279.802734375 222.0148468017578 C 277.4692993164063 244.3054351806641 272.46142578125 266.3748474121094 268.0435791015625 285.8442077636719 C 265.0737915039063 298.9977416992188 262.0028686523438 312.5990295410156 259.9218139648438 325.3858032226563 C 258.8141174316406 332.1922607421875 258.0573120117188 338.2864379882813 257.6082458496094 344.0165405273438 C 257.1082458496094 350.3962707519531 256.9977111816406 356.1856689453125 257.2704772949219 361.7188415527344 C 257.9610595703125 376.1834411621094 260.2995300292969 389.3042602539063 264.2210083007813 400.716796875 C 268.0755004882813 411.9345703125 273.4793090820313 421.5606079101563 280.2824096679688 429.3274536132813 C 287.0572509765625 437.0620727539063 295.2641906738281 443.0006713867188 304.6751708984375 446.9783325195313 C 314.2282409667969 451.0159606933594 325.0917053222656 453.0632019042969 336.9639587402344 453.0632019042969 C 349.6164245605469 453.0632019042969 361.1672973632813 450.88232421875 371.295654296875 446.5811462402344 C 381.2435302734375 442.3566284179688 389.8305358886719 436.0819091796875 396.8180541992188 427.93115234375 C 403.8311157226563 419.7507934570313 409.2352905273438 409.6809692382813 412.8805236816406 398.0013732910156 C 416.5997009277344 386.084716796875 418.4855346679688 372.497314453125 418.4855346679688 357.6166076660156 C 418.4855346679688 314.7420654296875 405.183837890625 281.2892456054688 397.2363586425781 261.3019104003906 L 397.2351379394531 261.2987976074219 L 397.23388671875 261.2956237792969 L 394.339599609375 253.9449157714844 L 394.3348388671875 253.9329071044922 L 394.3302307128906 253.9207916259766 C 388.5092468261719 238.5559692382813 387.1617126464844 224.6533813476563 386.3429565429688 199.3016662597656 L 386.2777709960938 197.2837219238281 L 388.2962341308594 197.2376098632813 C 393.9798889160156 197.1077880859375 407.839599609375 196.8057861328125 413.7673645019531 196.8057861328125 C 418.8370666503906 196.8057861328125 422.7124633789063 195.4149169921875 425.6151733398438 192.5536804199219 C 428.3980712890625 189.8104858398438 430.3371887207031 185.698486328125 431.5433044433594 179.9822082519531 C 432.2862548828125 176.4657897949219 431.9628295898438 172.1958618164063 431.5152893066406 166.2860412597656 C 431.1584167480469 161.5736694335938 430.7142333984375 155.708984375 430.7142333984375 148.4724426269531 L 430.7142333984375 144.179443359375 C 430.7096557617188 123.8997802734375 429.2345886230469 109.8394470214844 426.0721740722656 99.9307861328125 C 424.6678466796875 95.53054809570313 422.8857116699219 91.80014038085938 420.6240234375 88.52627563476563 C 418.696533203125 85.73626708984375 416.3350524902344 83.14651489257813 413.1922912597656 80.37625122070313 L 411.594482421875 78.96780395507813 L 413.1006469726563 77.461669921875 C 416.1377258300781 74.42462158203125 419.8909912109375 71.22509765625 423.8645935058594 67.83767700195313 C 426.9523620605469 65.2054443359375 430.1452331542969 62.48361206054688 433.3978881835938 59.51544189453125 L 433.4290161132813 59.48703002929688 L 433.4613037109375 59.4599609375 L 438.8678283691406 54.9285888671875 L 422.5595092773438 36.62591552734375 L 417.8360595703125 41.04360961914063 L 417.8254699707031 41.05343627929688 L 417.8148193359375 41.06314086914063 C 404.6695251464844 53.00689697265625 394.2865905761719 62.4407958984375 386.1238403320313 72.68084716796875 C 377.5250549316406 83.46786499023438 372.0965270996094 94.3836669921875 368.5223083496094 108.0738525390625 C 360.9150695800781 137.2587280273438 360.6073608398438 166.9297790527344 361.407958984375 194.6453247070313 C 362.2453002929688 223.1714630126953 363.3248596191406 241.9962768554688 371.2348022460938 262.8207092285156 L 374.2550964355469 270.5914306640625 L 374.2894897460938 270.6778564453125 C 382.044189453125 290.1899719238281 393.76318359375 319.6768493652344 393.76318359375 357.6741333007813 C 393.76318359375 380.7897338867188 388.9850158691406 398.4920959472656 379.5613098144531 410.28955078125 C 370.0289306640625 422.22314453125 355.6970825195313 428.2739562988281 336.9638366699219 428.2739562988281 C 319.8619995117188 428.2739562988281 306.5093078613281 422.4744873046875 297.276611328125 411.0366821289063 C 288.1664123535156 399.7506103515625 283.0095825195313 382.8027954101563 281.949462890625 360.6664428710938 C 280.9921264648438 341.162841796875 286.3809509277344 317.3350830078125 292.0861206054688 292.1082763671875 L 292.17431640625 291.718505859375 C 296.9621276855469 270.5777893066406 301.9129638671875 248.7173767089844 304.3645324707031 225.2685546875 C 305.0305786132813 218.9176788330078 305.32275390625 212.9599761962891 305.2330627441406 207.5609741210938 C 305.1433715820313 202.1636810302734 304.66943359375 197.16650390625 303.8244018554688 192.7081604003906 C 302.9835815429688 188.2723083496094 301.7510070800781 184.2410888671875 300.160888671875 180.726318359375 C 298.5833740234375 177.2396240234375 296.6058349609375 174.1560974121094 294.2832641601563 171.5614318847656 C 288.8174743652344 165.4567260742188 281.6101684570313 161.3884887695313 272.2496337890625 159.1243286132813 C 263.7262573242188 157.0626831054688 254.7279510498047 156.7785034179688 246.2737121582031 156.7785034179688 L 241.0314788818359 156.7785034179688 L 239.0314788818359 156.7785034179688 L 239.0314788818359 154.7785034179688 L 239.0314788818359 21.939453125 C 239.0314788818359 16.85415649414063 237.2379455566406 12.172607421875 233.9811859130859 8.75726318359375 C 232.3838348388672 7.08203125 230.4985961914063 5.77227783203125 228.3778381347656 4.8643798828125 C 226.1701202392578 3.919219970703125 223.7722473144531 3.439971923828125 221.2507781982422 3.439971923828125 L 23.43447875976563 3.439971923828125 M 214.2805328369141 166.3622131347656 L 212.2805328369141 166.3622131347656 L 30.19094848632813 166.3622131347656 L 28.19094848632813 166.3622131347656 L 28.19094848632813 164.3622131347656 L 28.19094848632813 39.77462768554688 L 28.19094848632813 37.77462768554688 L 30.19094848632813 37.77462768554688 L 212.2805328369141 37.77462768554688 L 214.2805328369141 37.77462768554688 L 214.2805328369141 39.77462768554688 L 214.2805328369141 164.3622131347656 L 214.2805328369141 166.3622131347656 M 384.8191223144531 172.4083862304688 L 384.8470764160156 170.3345642089844 C 385.1178894042969 150.2405090332031 387.5031127929688 131.4298400878906 391.9364318847656 114.4251403808594 L 391.9375915527344 114.4204406738281 L 391.9388427734375 114.4158020019531 C 392.4234619140625 112.5929565429688 392.6607055664063 110.8113098144531 392.89013671875 109.0883178710938 C 393.2454833984375 106.419677734375 393.6129455566406 103.6602172851563 394.9110107421875 100.9996643066406 L 396.1158447265625 98.5303955078125 L 398.0954284667969 100.4356689453125 C 401.3049926757813 103.52490234375 403.0770568847656 107.2365112304688 404.2118835449219 113.2467956542969 C 405.4165344238281 119.6267395019531 405.9537048339844 129.1724548339844 405.9537048339844 144.1980895996094 L 405.9537048339844 148.5108032226563 C 405.9537048339844 152.7306213378906 406.5450134277344 156.9401550292969 407.0667114257813 160.6540832519531 C 407.5786437988281 164.2985534667969 408.0207824707031 167.4460144042969 407.8770141601563 170.0776062011719 L 407.7752990722656 171.9402770996094 L 405.9101257324219 171.9683227539063 C 400.494873046875 172.0498657226563 394.4125366210938 172.18896484375 387.9730224609375 172.3362731933594 L 386.8926086425781 172.3609619140625 L 384.8191223144531 172.4083862304688 M 23.43447875976563 1.439971923828125 L 221.2507781982422 1.439971923828125 C 232.6841278076172 1.439971923828125 241.0314788818359 10.43902587890625 241.0314788818359 21.939453125 L 241.0314788818359 154.7785034179688 L 246.2737121582031 154.7785034179688 C 263.5051879882813 154.7785034179688 283.0654296875 156.0339660644531 295.7733154296875 170.2273864746094 C 305.6731872558594 181.2869262695313 309.0562438964844 199.7067260742188 306.3536376953125 225.4771423339844 C 303.9098510742188 248.8516693115234 298.9454956054688 270.8749694824219 294.1248779296875 292.1602783203125 C 288.422607421875 317.3748474121094 282.9982299804688 341.2381591796875 283.9470825195313 360.5683898925781 C 286.0363159179688 404.1932067871094 303.8810729980469 426.2739562988281 336.9638366699219 426.2739562988281 C 373.3242492675781 426.2739562988281 391.76318359375 403.1869201660156 391.76318359375 357.6741333007813 C 391.76318359375 320.000732421875 380.0998840332031 290.7130737304688 372.3946533203125 271.3253784179688 L 369.3662414550781 263.5338745117188 C 361.3351440429688 242.3923187255859 360.252197265625 223.435791015625 359.4088134765625 194.7040405273438 C 358.603759765625 166.8347473144531 358.9104614257813 137.0199584960938 366.5869445800781 107.5693969726563 C 374.3209533691406 77.94631958007813 390.1531982421875 63.494140625 416.4698791503906 39.58291625976563 L 422.689697265625 33.76568603515625 L 441.7324829101563 55.13720703125 L 434.7460021972656 60.9927978515625 C 427.1844787597656 67.89309692382813 419.7763061523438 73.614501953125 414.5148315429688 78.87591552734375 C 426.1589965820313 89.1400146484375 432.70458984375 101.3688049316406 432.7142333984375 144.1789855957031 L 432.7142333984375 148.4724426269531 C 432.7142333984375 164.6687927246094 434.9376525878906 173.5912170410156 433.5001220703125 180.3956298828125 C 431.037109375 192.0685119628906 425.2581787109375 198.8057861328125 413.7673645019531 198.8057861328125 C 408.7455444335938 198.8057861328125 397.5710144042969 199.0262756347656 388.3418884277344 199.2370910644531 C 389.1373596191406 223.8670806884766 390.4311828613281 237.9837951660156 396.2005310058594 253.2122039794922 L 399.0948181152344 260.5629272460938 C 407.1163635253906 280.7365112304688 420.4855346679688 314.4039306640625 420.4855346679688 357.6166076660156 C 420.4855346679688 418.66455078125 389.261962890625 455.0632019042969 336.9639587402344 455.0632019042969 C 287.8955993652344 455.0632019042969 258.1000061035156 421.0316772460938 255.2727661132813 361.814208984375 C 254.1227111816406 338.4876098632813 259.9496459960938 312.6117553710938 266.0927124023438 285.4037475585938 C 270.7312622070313 264.9617919921875 275.542236328125 243.5039672851563 277.8135986328125 221.8066101074219 C 280.0657348632813 200.0420837402344 276.6539306640625 191.9726867675781 274.4305419921875 189.4809265136719 C 270.2808227539063 184.8519592285156 258.0712280273438 183.5295104980469 246.2832946777344 183.5295104980469 L 241.0314788818359 183.5295104980469 L 241.0314788818359 442.2882080078125 L 1.44000244140625 442.2882080078125 L 1.44000244140625 21.939453125 C 1.44000244140625 10.43902587890625 12.02035522460938 1.439971923828125 23.43447875976563 1.439971923828125 Z M 212.2805328369141 164.3622131347656 L 212.2805328369141 39.77462768554688 L 30.19094848632813 39.77462768554688 L 30.19094848632813 164.3622131347656 L 212.2805328369141 164.3622131347656 Z M 386.8468933105469 170.3615112304688 C 393.555419921875 170.2081909179688 400.1490173339844 170.0548400878906 405.8800048828125 169.9685668945313 C 406.157958984375 164.8796691894531 403.9537048339844 156.8773193359375 403.9537048339844 148.5108032226563 L 403.9537048339844 144.1980895996094 C 403.9537048339844 114.1629638671875 401.8165893554688 106.7931518554688 396.7084655761719 101.8766784667969 C 394.7725830078125 105.8443908691406 395.1558837890625 110.0994873046875 393.8717041015625 114.9296875 C 389.1469421386719 133.0523681640625 387.0960693359375 151.8746643066406 386.8468933105469 170.3615112304688 Z" stroke="none" fill="#63b6ff"/>
  </g>
</svg>
