<svg xmlns="http://www.w3.org/2000/svg" width="32.32" height="33.298" viewBox="0 0 32.32 33.298">
  <path id="Icon_map-gas-station" data-name="Icon map-gas-station" d="M31.762,7.124c.386-.386.93-.806,1.485-1.313l.513-.43-1.4-1.569-.457.427C29.974,6,28.811,7.056,28.244,9.23a22.578,22.578,0,0,0-.527,6.4,14.475,14.475,0,0,0,.731,5.052l.222.572a16.485,16.485,0,0,1,1.422,6.338c0,3.341-1.354,5.036-4.023,5.036-2.428,0-3.738-1.621-3.892-4.823a20.455,20.455,0,0,1,.747-5.022,41.452,41.452,0,0,0,.9-4.895c.2-1.892-.05-3.244-.777-4.056A4.622,4.622,0,0,0,19.412,12.7h-.385V2.945a1.448,1.448,0,0,0-1.452-1.5H3.055a1.589,1.589,0,0,0-1.615,1.5V33.8H19.027V14.806h.386a3.308,3.308,0,0,1,2.066.437c.163.183.414.775.248,2.373a40.073,40.073,0,0,1-.86,4.668,21.869,21.869,0,0,0-.794,5.609c.208,4.347,2.395,6.845,6,6.845,3.839,0,6.131-2.672,6.131-7.153a18.613,18.613,0,0,0-1.57-7.124l-.212-.54a11.525,11.525,0,0,1-.577-3.962c.677-.015,1.5-.032,1.866-.032.843,0,1.268-.495,1.448-1.351a19.694,19.694,0,0,0-.058-2.343v-.315C33.1,8.775,32.617,7.878,31.762,7.124ZM16.917,13.4H3.55V4.254H16.917Zm14.07-1.164c0,.614.162,1.2.141,1.575-.421.006-.9.018-1.4.029a17.091,17.091,0,0,1,.516-4.069,5.327,5.327,0,0,1,.208-.958c.375.361.532.9.532,3.107v.317Z" transform="translate(-1.44 -1.44)" fill="#fff" opacity="0.69"/>
</svg>
