<svg xmlns="http://www.w3.org/2000/svg" width="28.791" height="11.048" viewBox="0 0 28.791 11.048">
  <path id="Контур_516" data-name="Контур 516" d="M286.592,148.071h-.847a3.823,3.823,0,0,0-.839-1.291,3.573,3.573,0,0,0-1.787-.974,18.058,18.058,0,0,0-3.012-.162H267.156a19.228,19.228,0,0,0-3.253.159,3.574,3.574,0,0,0-1.787.975,3.829,3.829,0,0,0-.839,1.29h-.848a.815.815,0,0,0,0,1.629h.507c-.005.1-.008.212-.009.323a5.293,5.293,0,0,0,4.554,5.619,6.179,6.179,0,0,0,4.741-1.479,7.445,7.445,0,0,0,2.317-4.461h1.942a7.452,7.452,0,0,0,2.318,4.461,6.176,6.176,0,0,0,4.74,1.481,5.291,5.291,0,0,0,4.553-5.619c0-.111,0-.218-.008-.323h.507a.814.814,0,0,0,0-1.629Zm-12.282,0h-1.6c0-.1.007-.19.009-.29a1.927,1.927,0,0,0-.059-.507h1.7a1.885,1.885,0,0,0-.058.507C274.3,147.879,274.307,147.976,274.31,148.071Z" transform="translate(-259.114 -145.132)" fill="none" stroke="#fff" stroke-width="1" opacity="0.5"/>
</svg>
