<svg xmlns="http://www.w3.org/2000/svg" width="24.059" height="24.813" viewBox="0 0 24.059 24.813">
  <g id="Сгруппировать_767" data-name="Сгруппировать 767" transform="translate(0)">
    <path id="Контур_484" data-name="Контур 484" d="M211.191,225.621a2.073,2.073,0,0,0-2.931-2.931l-1.494,1.495v-9.37a1.654,1.654,0,0,0-1.778-1.648,1.58,1.58,0,0,0-.708.233v-.19a1.658,1.658,0,1,0-3.316,0v.181a1.63,1.63,0,0,0-.824-.23,1.658,1.658,0,0,0-1.658,1.654v3.042l-1.667-4.575a1.639,1.639,0,0,0-1.558-1.077,1.636,1.636,0,0,0-.653.143,1.547,1.547,0,0,0-.57.451l-.063-.166a1.66,1.66,0,0,0-.332-.547,1.636,1.636,0,0,0-1.136-.53,1.619,1.619,0,0,0-.632.1,1.638,1.638,0,0,0-1.077,1.467,1.619,1.619,0,0,0,.1.632l.059.158a1.619,1.619,0,0,0-.839.069,1.64,1.64,0,0,0-.981,2.1l.5,1.356a1.622,1.622,0,0,0-.95.113,1.682,1.682,0,0,0-.846,2.116l2.713,7.454a6.961,6.961,0,0,0,.985,1.815l2.43,3.216a.822.822,0,0,0-.356.992l.973,2.676a.818.818,0,0,0,.167.277.807.807,0,0,0,.26.192.829.829,0,0,0,.314.077.806.806,0,0,0,.319-.05l1.249-.455a.822.822,0,0,0,.764.507h8.7a1.239,1.239,0,0,0,1.24-1.24v-2.079a1.236,1.236,0,0,0-.848-1.167v-1.933Zm-9.4-12.41a.831.831,0,1,1,1.662,0v5.83a2.031,2.031,0,0,0-1.662.07v-5.9Zm-2.485,1.6a.829.829,0,0,1,1.415-.584.816.816,0,0,1,.242.584v5.049a1.812,1.812,0,0,0-.126.207l-.869,1.886-.666-1.829Zm-10.7,4.57a.864.864,0,0,1,.407-1.082.8.8,0,0,1,.323-.071.818.818,0,0,1,.324.064.812.812,0,0,1,.448.469l1.54,4.22a.417.417,0,0,0,.079.127l.03.028a.41.41,0,0,0,.086.064.339.339,0,0,0,.039.018.379.379,0,0,0,.11.028c.011,0,.021,0,.032.005h.013a.413.413,0,0,0,.338-.176.425.425,0,0,0,.072-.184.417.417,0,0,0-.022-.2l-1.537-4.218-.979-2.683a.812.812,0,0,1,1.1-1,.806.806,0,0,1,.422.446l2.1,5.751a.4.4,0,0,0,.078.127c.01.011.021.02.031.03a.443.443,0,0,0,.083.061l.042.021a.449.449,0,0,0,.1.026c.014,0,.026.005.039.005h.011a.4.4,0,0,0,.142-.025.417.417,0,0,0,.138-.084.4.4,0,0,0,.095-.13.386.386,0,0,0,.039-.156.432.432,0,0,0-.024-.16l-2.636-7.241a.814.814,0,0,1,.485-1.04.8.8,0,0,1,.313-.048.785.785,0,0,1,.308.076.82.82,0,0,1,.42.457l2.635,7.244a.413.413,0,0,0,.7.137.416.416,0,0,0,.106-.257.428.428,0,0,0-.025-.163l-.455-1.247-1.615-4.443a.863.863,0,0,1,.406-1.082.815.815,0,0,1,.921.181.816.816,0,0,1,.175.281l3.156,8.674a.82.82,0,0,0,.736.54.8.8,0,0,0,.781-.476l.878-1.884a1.221,1.221,0,1,1,2.214,1.029l-2.677,5.744a.417.417,0,0,0-.012.048.448.448,0,0,0-.026.108.426.426,0,0,0,.025.162l.648,1.781-4.208,1.53c-.05-.142-.1-.284-.152-.426-.7-2.011-1.5-4.288-4.042-4.947a4.908,4.908,0,0,0-2.535.027Zm3.584,9.052a6.141,6.141,0,0,1-.869-1.6l-.211-.578a4.063,4.063,0,0,1,2.043-.009c2.116.549,2.774,2.429,3.469,4.42.052.147.1.29.156.437l-2.013.733Zm3.164,7.1-.973-2.677.367-.134,7.678-2.793a.4.4,0,0,1,.141-.025.416.416,0,0,1,.39.272l.689,1.9a.413.413,0,0,1,.025.16.422.422,0,0,1-.039.156.4.4,0,0,1-.1.13.416.416,0,0,1-.138.084Zm11.411-2.489v2.076a.413.413,0,0,1-.413.413H197.77l3.423-1.245h3.922v.413a.413.413,0,0,0,.823,0v-.412a.83.83,0,0,0-.83-.824H203.46l.219-.079a1.229,1.229,0,0,0,.737-.752h1.934a.426.426,0,0,1,.158.03.434.434,0,0,1,.135.089.4.4,0,0,1,.09.133.393.393,0,0,1,.033.158Zm-.722-3.571a.44.44,0,0,0-.123.29V231.8h-1.494a.025.025,0,0,0,0-.012l-.691-1.9a1.24,1.24,0,0,0-1.165-.81l-.617-1.7,2.605-5.588a2.016,2.016,0,0,0-.273-2.15v-4.762a.877.877,0,0,1,.766-.892.807.807,0,0,1,.334.044.824.824,0,0,1,.484.449.817.817,0,0,1,.069.33v9.369a.823.823,0,0,0,1.413.585l1.494-1.493a1.246,1.246,0,0,1,1.765,1.757Z" transform="translate(-187.72 -211.552)" fill="#fff"/>
    <path id="Контур_485" data-name="Контур 485" d="M202.61,231.6a.823.823,0,0,0-1.053-.491l-.737.268-.019.007-5,1.82a.414.414,0,0,0-.138.083.419.419,0,0,0-.1.13.415.415,0,0,0,.2.55.4.4,0,0,0,.157.038.41.41,0,0,0,.159-.024l5.022-1.832a.357.357,0,0,0,.035-.012l.693-.254.14.383a.419.419,0,0,0,.081.144.443.443,0,0,0,.131.1.426.426,0,0,0,.16.041.431.431,0,0,0,.163-.025.416.416,0,0,0,.236-.22.41.41,0,0,0,.036-.161.406.406,0,0,0-.03-.162Z" transform="translate(-187.72 -211.552)" fill="#fff"/>
  </g>
</svg>
