<svg xmlns="http://www.w3.org/2000/svg" width="23.837" height="20.492" viewBox="0 0 23.837 20.492">
  <g id="Сгруппировать_570" data-name="Сгруппировать 570" transform="translate(0.5 0.502)" opacity="0.5">
    <path id="Контур_482" data-name="Контур 482" d="M136.071,225.316a.379.379,0,0,0,.38-.38v-2.618c0-4.373-7.246-8.865-7.246-8.865l-4.918.063s-6.951,4.47-6.951,8.8v2.618a.379.379,0,0,0,.38.38Z" transform="translate(-115.475 -213.453)" fill="none" stroke="#fff" stroke-miterlimit="10" stroke-width="1" opacity="0.5"/>
    <path id="Контур_483" data-name="Контур 483" d="M137.771,226.831H116.014a.76.76,0,0,0-.539.725v4.626a.761.761,0,0,0,.761.761h21.316a.761.761,0,0,0,.76-.761v-4.626a.76.76,0,0,0-.541-.725Z" transform="translate(-115.475 -213.453)" fill="none" stroke="#fff" stroke-miterlimit="10" stroke-width="1" opacity="0.5"/>
  </g>
</svg>
