<svg xmlns="http://www.w3.org/2000/svg" xmlns:xlink="http://www.w3.org/1999/xlink" width="29.151" height="22.205" viewBox="0 0 29.151 22.205">
  <defs>
    <clipPath id="clip-path">
      <rect id="Прямоугольник_703" data-name="Прямоугольник 703" width="29.151" height="22.205" fill="#fff"/>
    </clipPath>
  </defs>
  <g id="Сгруппировать_569" data-name="Сгруппировать 569" clip-path="url(#clip-path)">
    <path id="Контур_512" data-name="Контур 512" d="M69.213,226.861a3.923,3.923,0,0,0-3.7-3.85c-6.717-.46-11.676-4.3-11.676-10.606a.854.854,0,0,0-.854-.853H42.624a.854.854,0,0,0-.851.854c0,8.436-1.711,8.4-1.711,15.373V232.9a.856.856,0,0,0,.854.855H51.164a.856.856,0,0,0,.854-.855v-.742a4.353,4.353,0,0,1,1.917,1.2,1,1,0,0,0,.761.395c.141,0,3.569-.009,13.736-.857a.857.857,0,0,0,.781-.854Zm-1.711,0v.19a101.025,101.025,0,0,1-17.222.492c.018-.2.027-.41.027-.616a6.827,6.827,0,0,0-7.532-6.8,29.805,29.805,0,0,0,.527-3.453h9.61q.174.458.38.9l-2.139,1.283a.854.854,0,0,0,.878,1.465l2.107-1.263q.253.375.532.728l-1.782,1.67a.854.854,0,0,0,1.168,1.247l1.774-1.664c.226.209.461.41.7.6l-1.4,1.994a.854.854,0,0,0,1.394.983l1.441-2.036q.409.229.837.436l-1.034,2.3a.854.854,0,1,0,1.558.7l1.051-2.338a18.583,18.583,0,0,0,5.021,1.04,2.21,2.21,0,0,1,2.1,2.146ZM41.773,227a24.378,24.378,0,0,1,.6-5.081,5.122,5.122,0,0,1,6.192,5.543c-3.1-.155-5.591-.356-6.79-.461Zm10.389-13.736a12.1,12.1,0,0,0,.245,1.711H43.42c.025-.527.043-1.094.051-1.711Zm-1,17.078a.855.855,0,0,0-.327.065.846.846,0,0,0-.277.186.854.854,0,0,0-.25.605v.855H48.6V231.2a.856.856,0,1,0-1.711,0v.855H45.177V231.2a.856.856,0,1,0-1.711,0v.855H41.773v-3.338c7.446.645,18.315,1.107,25.729.06v2.487c-.586.048-1.123.091-1.711.137v-.2a.855.855,0,1,0-1.711,0v.336c-.469.034-.858.063-1.711.122V231.2a.856.856,0,1,0-1.711,0v.571c-.484.031-1.107.069-1.711.1V231.2a.856.856,0,1,0-1.711,0v.766c-.671.033-1.57.07-2.226.083a5.576,5.576,0,0,0-3.866-1.7Z" transform="translate(-40.062 -211.552)" fill="#fff" opacity="0.5"/>
  </g>
</svg>
