<svg xmlns="http://www.w3.org/2000/svg" width="23.247" height="21.998" viewBox="0 0 23.247 21.998">
  <g id="Сгруппировать_768" data-name="Сгруппировать 768" transform="translate(-87.323 -875.461)">
    <path id="Контур_505" data-name="Контур 505" d="M54.174,144.461a.341.341,0,0,0-.341.341v.322a.344.344,0,0,0,.026.131.349.349,0,0,0,.074.111.367.367,0,0,0,.111.074.341.341,0,0,0,.261,0,.368.368,0,0,0,.111-.074.351.351,0,0,0,.074-.111.346.346,0,0,0,.026-.131V144.8a.342.342,0,0,0-.342-.34Z" transform="translate(45.916 731)" fill="rgba(255,255,255,0.5)"/>
    <g id="Сгруппировать_767" data-name="Сгруппировать 767">
      <path id="Контур_504" data-name="Контур 504" d="M64.256,156.4a.841.841,0,0,0,.3-.857l-1.729-7.148a.341.341,0,0,0-.664.161l1.729,7.147a.159.159,0,0,1-.015.117.161.161,0,0,1-.092.074l-2.207.671a.157.157,0,0,1-.193-.1l-2.236-5.957v-9.642a3.69,3.69,0,0,1,1.711,2.306l.98,4.052a.341.341,0,0,0,.154.211.331.331,0,0,0,.125.046.35.35,0,0,0,.133,0,.357.357,0,0,0,.121-.056.342.342,0,0,0,.131-.356l-.979-4.051a4.374,4.374,0,0,0-2.589-3.011l-2.287-.908-.265-.688a1.578,1.578,0,0,0-1.461-1H50.984a1.578,1.578,0,0,0-1.461,1l-.265.688L46.969,140a4.375,4.375,0,0,0-2.587,3.012l-2.115,8.746a.341.341,0,0,0,.664.16l2.115-8.746a3.691,3.691,0,0,1,1.711-2.306v2.146a.341.341,0,0,0,.682,0v-2.465l2-.793,3.169,3.169v14.191h-4.8a.371.371,0,0,1-.371-.371V144.38a.344.344,0,0,0-.026-.131.343.343,0,0,0-.185-.184.341.341,0,0,0-.261,0,.343.343,0,0,0-.185.184.346.346,0,0,0-.026.131v6.127l-2.236,5.957a.158.158,0,0,1-.193.1l-2.207-.672a.158.158,0,0,1-.107-.19l.594-2.456a.341.341,0,0,0-.131-.356.357.357,0,0,0-.121-.056.342.342,0,0,0-.412.252l-.594,2.459a.841.841,0,0,0,.3.857l-.234.855a.8.8,0,0,0,.548.978l1.242.355a.8.8,0,0,0,.976-.513l.278-.828a.843.843,0,0,0,.7-.54l1.6-4.256v4.3a1.054,1.054,0,0,0,.855,1.036v.824a.8.8,0,0,0,.8.8h9.081a.8.8,0,0,0,.8-.8v-.824a1.055,1.055,0,0,0,.855-1.034v-4.3l1.6,4.256a.842.842,0,0,0,.7.54l.278.827a.8.8,0,0,0,.976.514l1.242-.355a.8.8,0,0,0,.55-.979ZM43.393,157.93l-1.241-.355a.115.115,0,0,1-.069-.054.118.118,0,0,1-.011-.088l.214-.78,1.5.456-.253.747a.114.114,0,0,1-.139.074Zm12.2-19.532a.866.866,0,0,1,.153.254l.239.62-2.609,2.609a5.044,5.044,0,0,1,1.394-2.662Zm-.671-.311h.016l-.647.648a5.7,5.7,0,0,0-1.243,1.858c-.034.082-.066.163-.1.246q-.045-.125-.1-.246a5.707,5.707,0,0,0-1.242-1.859l-.648-.646h3.953Zm-4.761.566a.884.884,0,0,1,.153-.254l.819.82a5.051,5.051,0,0,1,1.394,2.662l-2.608-2.608ZM48.3,158.606V157.8h4.309v.922h-4.2a.115.115,0,0,1-.112-.116Zm9.2.115h-4.2V157.8h4.314v.806a.116.116,0,0,1-.115.116Zm.971-1.975a.37.37,0,0,1-.371.371h-4.8V142.929l3.169-3.168,2,.792v16.194Zm5.289.828-1.242.355a.116.116,0,0,1-.086-.009.112.112,0,0,1-.056-.065l-.253-.747,1.5-.457.214.781a.115.115,0,0,1-.01.088.113.113,0,0,1-.069.055Z" transform="translate(45.994 738.055)" fill="rgba(255,255,255,0.5)"/>
      <path id="Контур_506" data-name="Контур 506" d="M54.174,147.777a.341.341,0,0,0-.341.341v.322a.341.341,0,0,0,.682,0v-.322a.344.344,0,0,0-.026-.131.335.335,0,0,0-.185-.184.344.344,0,0,0-.131-.026Z" transform="translate(45.916 731)" fill="rgba(255,255,255,0.5)"/>
      <path id="Контур_507" data-name="Контур 507" d="M54.174,151.092a.341.341,0,0,0-.341.341v.322a.341.341,0,0,0,.682,0v-.322a.344.344,0,0,0-.026-.131.335.335,0,0,0-.185-.184.326.326,0,0,0-.131-.026Z" transform="translate(45.916 731)" fill="rgba(255,255,255,0.5)"/>
      <path id="Контур_508" data-name="Контур 508" d="M54.174,154.407a.341.341,0,0,0-.341.341v.322a.343.343,0,0,0,.1.241.333.333,0,0,0,.111.074.341.341,0,0,0,.261,0,.334.334,0,0,0,.111-.074.342.342,0,0,0,.1-.241v-.322a.34.34,0,0,0-.026-.131.335.335,0,0,0-.185-.184.326.326,0,0,0-.131-.026Z" transform="translate(45.916 731)" fill="rgba(255,255,255,0.5)"/>
      <path id="Контур_509" data-name="Контур 509" d="M48.255,154.964a.344.344,0,0,0,.227-.086,5.263,5.263,0,0,0,1.465-3.125.341.341,0,1,0-.676-.09,5.13,5.13,0,0,1-.709,2.024,3.446,3.446,0,0,1-.533.681.342.342,0,0,0-.09.375.337.337,0,0,0,.124.159A.341.341,0,0,0,48.255,154.964Z" transform="translate(45.916 731)" fill="rgba(255,255,255,0.5)"/>
      <path id="Контур_510" data-name="Контур 510" d="M56.25,151.371a.34.34,0,0,0-.293.38,5.26,5.26,0,0,0,1.465,3.124.339.339,0,0,0,.47-.036.338.338,0,0,0,.087-.238.343.343,0,0,0-.1-.233,3.445,3.445,0,0,1-.534-.681,5.128,5.128,0,0,1-.709-2.024.34.34,0,0,0-.383-.292Z" transform="translate(45.916 731)" fill="rgba(255,255,255,0.5)"/>
    </g>
  </g>
</svg>
