<svg xmlns="http://www.w3.org/2000/svg" width="28.583" height="23.194" viewBox="0 0 28.583 23.194">
  <path id="Контур_511" data-name="Контур 511" d="M139.5,141.563l-8.388-4.157a7.212,7.212,0,0,1-10.038,0l-8.387,4.157a.7.7,0,0,0-.312.927l2.466,4.932a.7.7,0,0,0,.927.31l2.438-1.193a.7.7,0,0,1,.339-.069.687.687,0,0,1,.652.689v10.927a1.376,1.376,0,0,0,.851,1.273,1.367,1.367,0,0,0,.528.105H131.6a1.379,1.379,0,0,0,1.378-1.378v-10.93a.685.685,0,0,1,.324-.585.691.691,0,0,1,.667-.036l2.439,1.194a.692.692,0,0,0,.528.039.681.681,0,0,0,.235-.135.7.7,0,0,0,.165-.214l2.471-4.929a.693.693,0,0,0,.073-.259.714.714,0,0,0-.033-.268.7.7,0,0,0-.133-.234.683.683,0,0,0-.213-.165Z" transform="translate(-111.803 -136.77)" fill="none" stroke="#fff" stroke-width="1" opacity="0.5"/>
</svg>
