<svg xmlns="http://www.w3.org/2000/svg" width="14.814" height="24.314" viewBox="0 0 14.814 24.314">
  <g id="Сгруппировать_572" data-name="Сгруппировать 572" transform="translate(0.756 0.75)" opacity="0.5">
    <path id="Контур_486" data-name="Контур 486" d="M353.684,147.484a6.654,6.654,0,1,1-1.949-4.7,6.659,6.659,0,0,1,1.949,4.7Z" transform="translate(-340.375 -136.394)" fill="none" stroke="#fff" stroke-linecap="round" stroke-linejoin="round" stroke-width="1.5"/>
    <path id="Контур_487" data-name="Контур 487" d="M347.03,144.632v2.852l1.426,1.425" transform="translate(-340.375 -136.394)" fill="none" stroke="#fff" stroke-linecap="round" stroke-linejoin="round" stroke-width="1.5"/>
    <path id="Контур_488" data-name="Контур 488" d="M342.919,142.253l.319-3.972a2.194,2.194,0,0,1,.584-1.344,1.7,1.7,0,0,1,1.227-.543h3.958a1.694,1.694,0,0,1,1.232.54,2.19,2.19,0,0,1,.588,1.347l.322,3.972m-.022,11.1-.318,3.971a2.2,2.2,0,0,1-.588,1.348,1.7,1.7,0,0,1-1.232.54h-3.94a1.7,1.7,0,0,1-1.233-.54,2.194,2.194,0,0,1-.587-1.348l-.319-3.971Z" transform="translate(-340.375 -136.394)" fill="none" stroke="#fff" stroke-linecap="round" stroke-linejoin="round" stroke-width="1.5"/>
  </g>
</svg>
