<svg xmlns="http://www.w3.org/2000/svg" width="32.513" height="42.275" viewBox="0 0 32.513 42.275">
  <g id="Сгруппировать_571" data-name="Сгруппировать 571" transform="translate(-1657.976 -636.459)" opacity="0.5">
    <path id="Контур_540" data-name="Контур 540" d="M1702.818,655.219h-5.376c-2.182,0-3.121.94-3.115,3.126,0,.866.015,1.731.029,2.6a2.484,2.484,0,0,0,2.629,2.627c1.735.009,3.469,0,5.2,0,.185,0,.371.018.591.029v1.424h-.688c-1.692,0-3.385-.007-5.077,0a2.483,2.483,0,0,0-2.658,2.659q-.014,1.523,0,3.046a2.473,2.473,0,0,0,2.62,2.631c1.692.012,3.385,0,5.077,0h.755c0,.819.024,1.574-.009,2.326a.839.839,0,0,1-.795.78c-2.8.519-5.589,1.2-8.415,1.508a45.155,45.155,0,0,1-16.906-1.457c-.905-.248-1.014-.386-1.016-1.318,0-.587,0-1.174,0-1.84h.743c1.713,0,3.427.009,5.141,0a2.455,2.455,0,0,0,2.569-2.55q.027-1.618,0-3.237a2.455,2.455,0,0,0-2.572-2.548c-1.713-.016-3.427-.006-5.141-.006h-.708v-1.455h2.74c1.079,0,2.158.014,3.237-.007a2.35,2.35,0,0,0,2.39-2.109,23.237,23.237,0,0,0,.044-3.8,2.45,2.45,0,0,0-2.751-2.439c-1.877-.005-3.754,0-5.646,0a3.915,3.915,0,0,1,2.281-3.993,2.524,2.524,0,0,0,1.522-2.163c.355-3.62.737-7.237,1.1-10.857.108-1.079.265-1.243,1.326-1.246.825,0,1.65-.005,2.475,0s1.107.266,1.109,1.1c.006,2.454,0,4.908,0,7.362,0,.187.016.374.026.607h7.374c.009-.2.028-.424.028-.646q0-3.586,0-7.171c0-1.037.22-1.252,1.276-1.255.846,0,1.693-.008,2.539,0,.739.01.992.23,1.068.967.357,3.471.743,6.94,1.033,10.417a3.305,3.305,0,0,0,1.922,3.066A3.81,3.81,0,0,1,1702.818,655.219Z" transform="translate(-15.01)" fill="none" stroke="#fff" stroke-width="1"/>
    <path id="Контур_541" data-name="Контур 541" d="M1840.355,876.018c-1.162,0-2.324.006-3.486,0-.753-.005-1.022-.277-1.029-1.042q-.014-1.489,0-2.979c.008-.745.288-1.025,1.05-1.028q3.454-.013,6.909,0c.751,0,1.017.289,1.023,1.051q.011,1.489,0,2.979c-.007.751-.277,1.015-1.045,1.019C1842.637,876.024,1841.5,876.019,1840.355,876.018Z" transform="translate(-154.843 -204.298)" fill="none" stroke="#fff" stroke-width="1"/>
    <path id="Контур_542" data-name="Контур 542" d="M1662.964,876.009c-1.162,0-2.324.008-3.486,0-.684-.007-.965-.284-.972-.961q-.017-1.553,0-3.106c.007-.678.285-.976.963-.98q3.518-.019,7.036,0c.68,0,.971.3.98.971q.023,1.553,0,3.106c-.01.683-.295.964-.972.971C1665.33,876.018,1664.147,876.009,1662.964,876.009Z" transform="translate(-0.019 -204.288)" fill="none" stroke="#fff" stroke-width="1"/>
    <path id="Контур_543" data-name="Контур 543" d="M1840.3,798.887c-1.141,0-2.282.005-3.423,0-.752,0-1.031-.28-1.04-1.033q-.015-1.49,0-2.98c.007-.716.21-.978.918-.989q3.606-.057,7.214-.042a.818.818,0,0,1,.851.907c.012,1.077.016,2.154,0,3.23-.011.622-.317.9-.966.906C1842.666,798.895,1841.482,798.888,1840.3,798.887Z" transform="translate(-154.839 -136.966)" fill="none" stroke="#fff" stroke-width="1"/>
    <path id="Контур_544" data-name="Контур 544" d="M1662.931,798.79c-1.142,0-2.284.006-3.426,0-.724-.005-1.01-.279-1.018-.984q-.018-1.552,0-3.1c.007-.65.264-.933.922-.942.907-.013,1.814.051,2.721.046,1.267-.007,2.534-.043,3.8-.073,1.1-.026,1.7.133,1.522,1.5a20.2,20.2,0,0,0,.016,2.53c0,.752-.288,1.023-1.045,1.027C1665.257,798.794,1664.094,798.79,1662.931,798.79Z" transform="translate(0 -136.869)" fill="none" stroke="#fff" stroke-width="1"/>
  </g>
</svg>
