<svg xmlns="http://www.w3.org/2000/svg" width="40.706" height="43.905" viewBox="0 0 40.706 43.905">
  <g id="school-bag" transform="translate(-4.55 -2.5)" opacity="0.5">
    <path id="Контур_573" data-name="Контур 573" d="M40.545,49.205H14.578a2.9,2.9,0,0,1-2.9-2.9V25.894a15.883,15.883,0,0,1,31.765,0V46.308A2.9,2.9,0,0,1,40.545,49.205ZM27.561,11.266A14.644,14.644,0,0,0,12.933,25.894V46.308a1.645,1.645,0,0,0,1.645,1.643H40.545a1.645,1.645,0,0,0,1.643-1.643V25.894A14.644,14.644,0,0,0,27.561,11.266Z" transform="translate(-2.658 -2.8)" fill="#fff"/>
    <path id="Контур_574" data-name="Контур 574" d="M40.685,30.193H20.677a.627.627,0,0,1-.627-.627v-1.1a10.631,10.631,0,1,1,21.263,0v1.1A.627.627,0,0,1,40.685,30.193ZM21.3,28.938H40.058v-.474a9.377,9.377,0,1,0-18.754,0Z" transform="translate(-5.778 -5.715)" fill="#fff"/>
    <path id="Контур_575" data-name="Контур 575" d="M40.012,58.457H20.694a1.525,1.525,0,0,1-1.524-1.524V46.177a1.526,1.526,0,0,1,1.524-1.524H40.012a1.526,1.526,0,0,1,1.524,1.524V56.933a1.525,1.525,0,0,1-1.524,1.524ZM20.694,45.907a.27.27,0,0,0-.27.27V56.933a.27.27,0,0,0,.27.27H40.012a.27.27,0,0,0,.27-.27V46.177a.27.27,0,0,0-.27-.27Z" transform="translate(-5.45 -15.714)" fill="#fff"/>
    <path id="Контур_576" data-name="Контур 576" d="M40.91,53.122H19.793a.627.627,0,1,1,0-1.254H40.91a.627.627,0,1,1,0,1.254Z" transform="translate(-5.448 -18.403)" fill="#fff"/>
    <path id="Контур_577" data-name="Контур 577" d="M64.823,58.457H60.947a.627.627,0,0,1-.627-.627V50.193a.627.627,0,0,1,.627-.627h3.236a1.217,1.217,0,0,1,1.216,1.1l.641,6.447a1.222,1.222,0,0,1-1.217,1.344ZM61.574,57.2h3.249l-.672-6.411-2.575.023Z" transform="translate(-20.79 -17.545)" fill="#fff"/>
    <path id="Контур_578" data-name="Контур 578" d="M65.056,55.911H60.949a.627.627,0,0,1,0-1.254h4.107a.627.627,0,1,1,0,1.254Z" transform="translate(-20.791 -19.443)" fill="#fff"/>
    <path id="Контур_579" data-name="Контур 579" d="M9.648,58.457H5.773a1.222,1.222,0,0,1-1.217-1.344l.64-6.447a1.217,1.217,0,0,1,1.216-1.1H9.648a.627.627,0,0,1,.627.627V57.83A.627.627,0,0,1,9.648,58.457ZM6.413,50.82,5.8,57.239l3.216-.03V50.82Z" transform="translate(0 -17.545)" fill="#fff"/>
    <path id="Контур_580" data-name="Контур 580" d="M9.864,55.911H5.757a.627.627,0,0,1,0-1.254H9.864a.627.627,0,0,1,0,1.254Z" transform="translate(-0.216 -19.443)" fill="#fff"/>
    <path id="Контур_581" data-name="Контур 581" d="M38.854,9.492a.627.627,0,0,1-.627-.627V4.346a.592.592,0,0,0-.591-.591H29.083a.592.592,0,0,0-.591.591V8.865a.627.627,0,0,1-1.254,0V4.346A1.848,1.848,0,0,1,29.083,2.5h8.552a1.848,1.848,0,0,1,1.846,1.846V8.865A.627.627,0,0,1,38.854,9.492Z" transform="translate(-8.457)" fill="#fff"/>
  </g>
</svg>
