<svg xmlns="http://www.w3.org/2000/svg" width="44.855" height="16.836" viewBox="0 0 44.855 16.836">
  <g id="sun-glasses" transform="translate(0.5 -163.06)" opacity="0.5">
    <g id="Сгруппировать_579" data-name="Сгруппировать 579" transform="translate(0 163.561)">
      <path id="Контур_572" data-name="Контур 572" d="M42.57,167.391H41.233a6.026,6.026,0,0,0-1.324-2.036,5.631,5.631,0,0,0-2.82-1.538,28.481,28.481,0,0,0-4.752-.255H32.32l-20.414,0H11.9a30.358,30.358,0,0,0-5.132.251,5.631,5.631,0,0,0-2.82,1.538,6.026,6.026,0,0,0-1.324,2.036H1.285a1.285,1.285,0,1,0,0,2.57h.8q-.012.248-.013.51c0,5.542,3.725,8.48,7.185,8.866A9.745,9.745,0,0,0,16.738,177a11.754,11.754,0,0,0,3.657-7.04H23.46A11.755,11.755,0,0,0,27.117,177a9.745,9.745,0,0,0,7.479,2.336c3.461-.385,7.185-3.324,7.185-8.866q0-.262-.013-.51h.8a1.285,1.285,0,0,0,0-2.57Zm-19.38,0H20.665c.006-.151.011-.3.014-.457a3.021,3.021,0,0,0-.093-.8h2.683a3.018,3.018,0,0,0-.093.8C23.179,167.089,23.184,167.241,23.19,167.391Z" transform="translate(0 -163.561)" fill="none" stroke="#fff" stroke-width="1"/>
    </g>
  </g>
</svg>
