<svg xmlns="http://www.w3.org/2000/svg" width="37.971" height="39.148" viewBox="0 0 37.971 39.148">
  <g id="gloves" transform="translate(-8.701)" opacity="0.5">
    <g id="Сгруппировать_578" data-name="Сгруппировать 578" transform="translate(8.701)">
      <g id="Сгруппировать_577" data-name="Сгруппировать 577" transform="translate(0)">
        <path id="Контур_563" data-name="Контур 563" d="M45.74,22.2a3.271,3.271,0,0,0-4.626-4.625l-2.357,2.359V5.148a2.61,2.61,0,0,0-2.806-2.6,2.472,2.472,0,0,0-1.117.367v-.3a2.616,2.616,0,0,0-5.233,0V2.9a2.585,2.585,0,0,0-1.3-.362,2.616,2.616,0,0,0-2.616,2.61v4.8L23.054,2.729a2.588,2.588,0,0,0-3.488-1.474,2.447,2.447,0,0,0-.9.711l-.1-.261a2.585,2.585,0,1,0-4.86,1.766l.093.249a2.552,2.552,0,0,0-1.323.108,2.588,2.588,0,0,0-1.548,3.315l.783,2.139a2.569,2.569,0,0,0-1.5.178A2.653,2.653,0,0,0,8.877,12.8l4.28,11.761a10.963,10.963,0,0,0,1.555,2.864L18.546,32.5a1.3,1.3,0,0,0-.562,1.566l1.536,4.222a1.3,1.3,0,0,0,1.673.783l1.971-.718a1.3,1.3,0,0,0,1.205.8H38.1a1.957,1.957,0,0,0,1.957-1.957V33.916a1.947,1.947,0,0,0-1.338-1.842v-3.05ZM30.908,2.616a1.311,1.311,0,1,1,2.623,0v9.2a3.2,3.2,0,0,0-2.623.111V2.616ZM26.986,5.148a1.308,1.308,0,0,1,2.233-.922,1.294,1.294,0,0,1,.383.922v7.967a3.022,3.022,0,0,0-.2.326l-1.37,2.977-1.051-2.887ZM10.1,12.359a1.363,1.363,0,0,1,.641-1.708,1.284,1.284,0,0,1,1.728.729L14.9,18.04a.657.657,0,0,0,.124.2.616.616,0,0,0,.048.045.647.647,0,0,0,.136.1.653.653,0,0,0,.061.029.61.61,0,0,0,.174.044c.017,0,.033.007.05.008h.02a.653.653,0,0,0,.613-.876L13.7,10.934,12.156,6.7a1.281,1.281,0,0,1,2.407-.876L17.869,14.9a.642.642,0,0,0,.123.2c.016.018.033.031.05.048a.656.656,0,0,0,.131.095.552.552,0,0,0,.065.033.634.634,0,0,0,.162.041c.021,0,.04.008.061.009h.018a.633.633,0,0,0,.223-.04.652.652,0,0,0,.391-.836L14.934,3.024A1.282,1.282,0,0,1,15.7,1.383a1.265,1.265,0,0,1,.979.044,1.289,1.289,0,0,1,.663.721L21.5,13.579a.652.652,0,0,0,1.265-.19.64.64,0,0,0-.039-.256l-.718-1.968L19.46,4.154A1.362,1.362,0,0,1,20.1,2.446a1.284,1.284,0,0,1,1.73.73L26.81,16.862a1.292,1.292,0,0,0,1.161.852,1.265,1.265,0,0,0,1.232-.75l1.387-2.974a1.926,1.926,0,0,1,3.493,1.625l-4.225,9.063a.523.523,0,0,0-.018.076.633.633,0,0,0-.041.17.653.653,0,0,0,.039.256l1.023,2.811-6.64,2.414c-.08-.224-.161-.448-.24-.673-1.109-3.172-2.364-6.766-6.378-7.806a7.751,7.751,0,0,0-4,.043Zm5.654,14.284a9.667,9.667,0,0,1-1.37-2.523l-.333-.913a6.424,6.424,0,0,1,3.224-.013c3.339.866,4.376,3.833,5.474,6.974.081.232.164.457.245.69l-3.176,1.156Zm4.993,11.2-1.535-4.224.579-.211L31.907,29a.645.645,0,0,1,.223-.039.652.652,0,0,1,.614.429l1.088,3a.652.652,0,0,1-.391.836Zm18.007-3.927v3.275a.652.652,0,0,1-.652.652H24.562l5.4-1.964h6.189v.652a.652.652,0,0,0,1.3,0V35.88a1.31,1.31,0,0,0-1.311-1.3h-2.6l.345-.125a1.943,1.943,0,0,0,1.164-1.186H38.1A.652.652,0,0,1,38.757,33.916ZM37.615,28.28v0a.66.66,0,0,0-.148.23.644.644,0,0,0-.046.229v3.215H35.063a.027.027,0,0,0,0-.018l-1.091-3a1.957,1.957,0,0,0-1.838-1.278l-.974-2.675,4.111-8.818a3.18,3.18,0,0,0-.431-3.393V5.259A1.385,1.385,0,0,1,36.049,3.85a1.305,1.305,0,0,1,1.4,1.3V19.933a1.3,1.3,0,0,0,2.23.924L42.036,18.5a1.966,1.966,0,0,1,2.785,2.773Z" transform="translate(-8.701)" fill="#fff"/>
        <path id="Контур_564" data-name="Контур 564" d="M180.934,403.321a1.3,1.3,0,0,0-1.662-.775l-1.163.423-.031.012-7.887,2.871a.652.652,0,1,0,.446,1.226l7.925-2.89a.551.551,0,0,0,.055-.02l1.093-.4.221.605a.653.653,0,1,0,1.226-.448Z" transform="translate(-157.435 -371.695)" fill="#fff"/>
      </g>
    </g>
  </g>
</svg>
