<svg xmlns="http://www.w3.org/2000/svg" width="37.032" height="31.751" viewBox="0 0 37.032 31.751">
  <g id="hat" transform="translate(0.5 -5.812)" opacity="0.5">
    <path id="Контур_123" data-name="Контур 123" d="M75.753,25.032a.6.6,0,0,0,.6-.6V20.3c0-6.9-11.434-13.988-11.434-13.988l-7.761.1S46.19,13.465,46.19,20.3v4.132a.6.6,0,0,0,.6.6Z" transform="translate(-43.254 0.001)" fill="none" stroke="#fff" stroke-miterlimit="10" stroke-width="1"/>
    <path id="Контур_124" data-name="Контур 124" d="M42.083,367H7.751a1.2,1.2,0,0,0-.85,1.145v7.3a1.2,1.2,0,0,0,1.2,1.2H41.737a1.2,1.2,0,0,0,1.2-1.2v-7.3A1.2,1.2,0,0,0,42.083,367Z" transform="translate(-6.901 -339.578)" fill="none" stroke="#fff" stroke-miterlimit="10" stroke-width="1"/>
  </g>
</svg>
