<svg xmlns="http://www.w3.org/2000/svg" width="34.409" height="39.48" viewBox="0 0 34.409 39.48">
  <g id="ring" transform="translate(-33.233 0.5)" opacity="0.5">
    <path id="Контур_582" data-name="Контур 582" d="M63.407,81.709a16.789,16.789,0,0,0-8.322-5.521L54,79.983a12.761,12.761,0,1,1-7.126,0L45.79,76.188A16.713,16.713,0,0,0,33.733,92.237,16.7,16.7,0,1,0,63.407,81.709Z" transform="translate(0 -70.462)" fill="none" stroke="#fff" stroke-miterlimit="10" stroke-width="1"/>
    <path id="Контур_583" data-name="Контур 583" d="M206.316.715l2.391,8.37a12.809,12.809,0,0,1,2.685,0l2.391-8.37a10.108,10.108,0,0,0-7.468,0Z" transform="translate(-159.612)" fill="none" stroke="#fff" stroke-miterlimit="10" stroke-width="1"/>
  </g>
</svg>
