<svg xmlns="http://www.w3.org/2000/svg" width="46" height="35.039" viewBox="0 0 46 35.039">
  <g id="boots" transform="translate(0 -61)" opacity="0.5">
    <path id="Контур_513" data-name="Контур 513" d="M46,85.157a6.189,6.189,0,0,0-5.834-6.074c-10.6-.727-18.424-6.78-18.424-16.736A1.348,1.348,0,0,0,20.395,61H4.043A1.348,1.348,0,0,0,2.7,62.348C2.7,75.659,0,75.608,0,86.606v8.086a1.348,1.348,0,0,0,1.348,1.348H17.52a1.348,1.348,0,0,0,1.348-1.348V93.521a6.863,6.863,0,0,1,3.025,1.9,1.59,1.59,0,0,0,1.2.623c.222,0,5.631-.015,21.675-1.352A1.353,1.353,0,0,0,46,93.344Zm-2.7,0v.3c-8.085,1.187-18.675,1.127-27.176.776q.043-.483.043-.971A10.772,10.772,0,0,0,4.281,74.535a47.028,47.028,0,0,0,.831-5.449H20.277q.274.721.6,1.414l-3.376,2.024a1.348,1.348,0,0,0,1.386,2.312l3.325-1.993q.4.592.84,1.149l-2.812,2.635a1.348,1.348,0,0,0,1.843,1.967l2.8-2.625c.357.33.727.647,1.112.946l-2.215,3.147a1.348,1.348,0,0,0,2.2,1.551L28.253,78.4q.646.362,1.321.689l-1.631,3.631a1.348,1.348,0,1,0,2.459,1.1l1.658-3.69a29.278,29.278,0,0,0,7.923,1.641A3.487,3.487,0,0,1,43.3,85.157Zm-40.6.219a38.477,38.477,0,0,1,.952-8.018,8.088,8.088,0,0,1,9.816,7.9,8.194,8.194,0,0,1-.045.847C8.529,85.859,4.6,85.542,2.708,85.377ZM19.094,63.7a19.056,19.056,0,0,0,.386,2.7H5.3c.04-.832.068-1.726.081-2.7ZM17.52,90.649A1.348,1.348,0,0,0,16.172,92v1.348h-2.7V92a1.348,1.348,0,0,0-2.7,0v1.348h-2.7V92a1.348,1.348,0,0,0-2.7,0v1.348H2.7V88.082C14.449,89.1,31.6,89.828,43.3,88.176V92.1c-.925.076-1.772.144-2.7.216V92a1.348,1.348,0,0,0-2.7,0v.529c-.74.054-1.353.1-2.7.194V92a1.348,1.348,0,0,0-2.7,0v.9c-.763.049-1.747.11-2.7.164V92a1.348,1.348,0,0,0-2.7,0v1.209c-1.059.051-2.477.109-3.513.13a8.8,8.8,0,0,0-6.1-2.687Z" fill="#fff"/>
  </g>
</svg>
