<svg xmlns="http://www.w3.org/2000/svg" width="36.683" height="34.714" viewBox="0 0 36.683 34.714">
  <g id="varsity-jacket" transform="translate(0 -13.746)" opacity="0.5">
    <path id="Контур_565" data-name="Контур 565" d="M36.178,43.716a1.327,1.327,0,0,0,.468-1.352L33.918,31.085a.538.538,0,1,0-1.047.253L35.6,42.617a.249.249,0,0,1-.169.3l-3.482,1.06a.249.249,0,0,1-.305-.151l-3.528-9.4V19.212a5.819,5.819,0,0,1,2.7,3.639l1.547,6.394a.538.538,0,0,0,1.047-.253L31.866,22.6a6.9,6.9,0,0,0-4.085-4.751l-3.609-1.433-.418-1.086a2.488,2.488,0,0,0-2.306-1.583H15.236a2.488,2.488,0,0,0-2.306,1.583l-.418,1.085L8.9,17.847A6.9,6.9,0,0,0,4.818,22.6L1.481,36.4a.538.538,0,1,0,1.047.253l3.337-13.8a5.82,5.82,0,0,1,2.7-3.639V22.6a.538.538,0,1,0,1.077,0V18.71L12.8,17.459l5,5V44.852H10.23a.585.585,0,0,1-.585-.585V24.752a.538.538,0,1,0-1.077,0V34.42l-3.528,9.4a.249.249,0,0,1-.305.151l-3.482-1.06a.249.249,0,0,1-.169-.3l.937-3.875a.538.538,0,0,0-1.047-.253L.037,42.364a1.327,1.327,0,0,0,.468,1.352l-.37,1.349A1.263,1.263,0,0,0,1,46.609l1.959.56a1.259,1.259,0,0,0,1.54-.81l.438-1.306A1.328,1.328,0,0,0,6.049,44.2l2.52-6.716v6.782A1.664,1.664,0,0,0,9.918,45.9v1.3a1.261,1.261,0,0,0,1.259,1.259H25.506A1.261,1.261,0,0,0,26.765,47.2V45.9a1.664,1.664,0,0,0,1.349-1.632V37.486l2.52,6.716a1.328,1.328,0,0,0,1.109.852l.438,1.306a1.259,1.259,0,0,0,1.54.81l1.959-.56a1.264,1.264,0,0,0,.868-1.544ZM3.258,46.134,1.3,45.574a.183.183,0,0,1-.126-.224l.338-1.232,2.365.72-.4,1.179A.182.182,0,0,1,3.258,46.134ZM22.507,15.313a1.377,1.377,0,0,1,.242.4l.377.979-4.116,4.116a7.963,7.963,0,0,1,2.2-4.2Zm-1.059-.491h.026l-1.021,1.022a9.006,9.006,0,0,0-1.961,2.933q-.08.192-.15.387-.071-.195-.15-.388a9.007,9.007,0,0,0-1.96-2.933L15.21,14.824h6.238Zm-7.513.893a1.378,1.378,0,0,1,.242-.4l1.293,1.294a7.963,7.963,0,0,1,2.2,4.2l-4.116-4.116ZM11,47.2V45.929H17.8v1.454H11.177A.183.183,0,0,1,11,47.2Zm14.511.182H18.88V45.929h6.808V47.2A.183.183,0,0,1,25.506,47.383Zm1.532-3.116a.585.585,0,0,1-.585.585H18.88V22.463l5-5,3.154,1.251V44.267Zm8.346,1.306-1.959.56a.182.182,0,0,1-.223-.117l-.4-1.179,2.365-.72.338,1.232A.183.183,0,0,1,35.385,45.574Z" transform="translate(0)" fill="#fff"/>
    <path id="Контур_566" data-name="Контур 566" d="M275.9,169.164a.538.538,0,0,0-.538.538v.508a.538.538,0,1,0,1.077,0V169.7A.538.538,0,0,0,275.9,169.164Z" transform="translate(-255.631 -144.283)" fill="#fff"/>
    <path id="Контур_567" data-name="Контур 567" d="M275.9,242.174a.538.538,0,0,0-.538.538v.508a.538.538,0,0,0,1.077,0v-.508A.538.538,0,0,0,275.9,242.174Z" transform="translate(-255.631 -212.062)" fill="#fff"/>
    <path id="Контур_568" data-name="Контур 568" d="M275.9,315.184a.538.538,0,0,0-.538.538v.508a.538.538,0,1,0,1.077,0v-.508A.538.538,0,0,0,275.9,315.184Z" transform="translate(-255.631 -279.841)" fill="#fff"/>
    <path id="Контур_569" data-name="Контур 569" d="M275.9,388.193a.538.538,0,0,0-.538.538v.508a.538.538,0,1,0,1.077,0v-.508A.538.538,0,0,0,275.9,388.193Z" transform="translate(-255.631 -347.619)" fill="#fff"/>
    <path id="Контур_570" data-name="Контур 570" d="M145.577,326.922a.536.536,0,0,0,.358-.136,8.3,8.3,0,0,0,2.311-4.93.538.538,0,1,0-1.067-.142,8.094,8.094,0,0,1-1.119,3.194,5.458,5.458,0,0,1-.841,1.074A.54.54,0,0,0,145.577,326.922Z" transform="translate(-134.647 -285.469)" fill="#fff"/>
    <path id="Контур_571" data-name="Контур 571" d="M322.6,321.251a.538.538,0,0,0-.463.6,8.3,8.3,0,0,0,2.311,4.93.538.538,0,0,0,.718-.8,5.448,5.448,0,0,1-.842-1.075,8.094,8.094,0,0,1-1.119-3.194A.538.538,0,0,0,322.6,321.251Z" transform="translate(-299.055 -285.468)" fill="#fff"/>
  </g>
</svg>
