<svg xmlns="http://www.w3.org/2000/svg" width="44.587" height="35.943" viewBox="0 0 44.587 35.943">
  <path id="Icon_awesome-tshirt" data-name="Icon awesome-tshirt" d="M42.911,6.56,29.675,0c-1.366,1.89-4.392,3.209-7.92,3.209S15.2,1.89,13.835,0L.6,6.56A1.1,1.1,0,0,0,.109,8.022L4,15.806a1.1,1.1,0,0,0,1.462.489l3.848-1.883a1.086,1.086,0,0,1,1.564.979V32.632a2.173,2.173,0,0,0,2.175,2.175h17.4a2.173,2.173,0,0,0,2.175-2.175V15.385a1.088,1.088,0,0,1,1.564-.979l3.848,1.883A1.084,1.084,0,0,0,39.5,15.8l3.9-7.777a1.085,1.085,0,0,0-.483-1.462Z" transform="translate(0.571 0.636)" fill="none" stroke="#fff" stroke-width="1" opacity="0.5"/>
</svg>
