<svg xmlns="http://www.w3.org/2000/svg" width="23" height="35" viewBox="0 0 23 35">
  <g id="Icon_feather-watch" data-name="Icon feather-watch" transform="translate(-6.5 -0.5)" opacity="0.5">
    <path id="Контур_514" data-name="Контур 514" d="M28.5,18A10.5,10.5,0,1,1,18,7.5,10.5,10.5,0,0,1,28.5,18Z" fill="none" stroke="#fff" stroke-linecap="round" stroke-linejoin="round" stroke-width="2"/>
    <path id="Контур_515" data-name="Контур 515" d="M18,13.5V18l2.25,2.25" fill="none" stroke="#fff" stroke-linecap="round" stroke-linejoin="round" stroke-width="2"/>
    <path id="Контур_516" data-name="Контур 516" d="M24.765,26.025,24.24,31.77a3,3,0,0,1-3,2.73H14.745a3,3,0,0,1-3-2.73l-.525-5.745m.015-16.05L11.76,4.23A3,3,0,0,1,14.745,1.5H21.27a3,3,0,0,1,3,2.73L24.8,9.975" fill="none" stroke="#fff" stroke-linecap="round" stroke-linejoin="round" stroke-width="2"/>
  </g>
</svg>
