<svg xmlns="http://www.w3.org/2000/svg" width="20.657" height="41.315" viewBox="0 0 20.657 41.315">
  <g id="trousers" transform="translate(-120)">
    <path id="Контур_585" data-name="Контур 585" d="M308.131,44.131V40H304A4.131,4.131,0,0,0,308.131,44.131Z" transform="translate(-168.163 -36.557)" fill="#78b9eb"/>
    <path id="Контур_586" data-name="Контур 586" d="M143.149,40h-2.754v4.131a1.377,1.377,0,0,1-1.377,1.377H137.64V40h-5.509A4.131,4.131,0,0,1,128,44.131V77.183h7.574l2.066-26.854,2.066,26.854h7.574V44.131A4.131,4.131,0,0,1,143.149,40Z" transform="translate(-7.311 -36.557)" fill="#5aaae7"/>
    <path id="Контур_587" data-name="Контур 587" d="M132.131,40H128v4.131A4.131,4.131,0,0,0,132.131,40Z" transform="translate(-7.311 -36.557)" fill="#78b9eb"/>
    <g id="Сгруппировать_580" data-name="Сгруппировать 580" transform="translate(120.689 0.689)">
      <path id="Контур_588" data-name="Контур 588" d="M137.64,10.754V8H128v2.754h9.64Z" transform="translate(-128 -8)" fill="#5aaae7"/>
      <path id="Контур_589" data-name="Контур 589" d="M274.754,10.754h4.131V8H272v2.754Z" transform="translate(-259.606 -8)" fill="#5aaae7"/>
    </g>
    <g id="Сгруппировать_581" data-name="Сгруппировать 581" transform="translate(130.329 0.689)">
      <path id="Контур_590" data-name="Контур 590" d="M241.377,45.509a1.377,1.377,0,0,0,1.377-1.377V40H240v5.509Z" transform="translate(-240 -37.246)" fill="#78b9eb"/>
      <path id="Контур_591" data-name="Контур 591" d="M240,8h2.754v2.754H240Z" transform="translate(-240 -8)" fill="#78b9eb"/>
    </g>
    <path id="Контур_592" data-name="Контур 592" d="M139.969,0h-19.28A.689.689,0,0,0,120,.689V40.626a.689.689,0,0,0,.689.689h7.574a.689.689,0,0,0,.689-.636l1.377-17.93,1.377,17.93a.689.689,0,0,0,.689.636h7.574a.689.689,0,0,0,.689-.689V.689A.689.689,0,0,0,139.969,0Zm-.689,2.754h-5.509V1.377h5.509Zm0,1.377V6.817a3.454,3.454,0,0,1-2.685-2.685Zm-6.886-2.754V2.754h-1.377V1.377Zm-1.377,2.754h1.377V7.574a.689.689,0,0,1-.689.689h-.689Zm-9.64-2.754h8.263V2.754h-8.263Zm2.685,2.754a3.454,3.454,0,0,1-2.685,2.685V4.131Zm8.969,35.806-2.015-26.219a.689.689,0,0,0-1.373,0l-2.019,26.219h-6.248V8.208a4.82,4.82,0,0,0,4.076-4.076h4.187v4.82a.689.689,0,0,0,.689.689h1.377a2.066,2.066,0,0,0,2.066-2.066V4.131H135.2a4.82,4.82,0,0,0,4.076,4.076v31.73Z" fill="#3e3d42"/>
  </g>
</svg>
