<svg id="Capa_1" enable-background="new 0 0 512 512" height="512" viewBox="0 0 512 512" width="512" xmlns="http://www.w3.org/2000/svg"><g><g><g><path d="m206.314 213.408h66.542v27.942h-66.542z" fill="#cbe5e7" transform="matrix(.707 -.707 .707 .707 -90.608 236.01)"/><path d="m240.38 199.297h26.631v27.942h-26.631z" fill="#a9d3d8" transform="matrix(.707 -.707 .707 .707 -76.498 241.855)"/></g><path d="m228.372 258.349-38.21 38.21-16.805-16.805c-2.602-2.602-2.602-6.822 0-9.424l28.785-28.785c2.602-2.602 6.822-2.602 9.424 0z" fill="#3f5959"/><path d="m211.573 241.545 16.802 16.802-13.904 13.904-16.802-16.802c-2.605-2.605-6.827-2.605-9.431 0l13.904-13.904c2.604-2.605 6.826-2.605 9.431 0z" fill="#384848"/><path d="m463.252 23.469-193.897 193.897-16.805-16.805c-2.602-2.602-2.602-6.822 0-9.424l189.185-189.185c2.602-2.602 6.822-2.602 9.424 0l12.093 12.093c2.603 2.602 2.603 6.822 0 9.424z" fill="#3f5959"/><path d="m451.16 1.958 12.093 12.093c2.598 2.598 2.605 6.812 0 9.417l-18.268 18.268c2.605-2.605 2.605-6.826.007-9.424l-12.093-12.093c-2.605-2.605-6.827-2.605-9.431 0l18.268-18.268c2.605-2.605 6.819-2.598 9.424.007z" fill="#384848"/></g><g><g><path d="m302.338 184.382-9.612 9.612c-1.185-.34-2.308-.989-3.255-1.927l-18.924-18.924 10.93-10.93 18.924 18.925c.937.936 1.586 2.059 1.937 3.244z" fill="#cbe5e7"/></g><g><path d="m252.377 323.357c-7.221 0-14.061-2.484-19.146-7.568-1.649-1.65-3.063-3.522-4.201-5.567-.102-.183-.374-.672-1.233-.792-1.096-.153-2.355.362-3.371 1.379-3.017 3.017-7.909 3.016-10.927-.001-3.017-3.017-3.017-7.909.001-10.927 4.424-4.423 10.562-6.572 16.432-5.756 5.389.751 9.981 3.877 12.599 8.577.443.796.99 1.521 1.627 2.158 5.314 5.315 16.038 3.568 23.419-3.814 7.793-7.793 7.881-19.351 2.753-24.48-4.723-4.721-8.046-4.846-13.71-3.343-4.127 1.098-8.356-1.358-9.452-5.483-1.096-4.124 1.359-8.355 5.483-9.451 7.818-2.078 18.134-3.12 28.606 7.35 11.811 11.812 10.55 33.03-2.753 46.334-7.514 7.514-17.117 11.383-26.127 11.384z" fill="#3f5959"/></g><g><path d="m257.89 298.254c-1.586 0-3.186-.487-4.563-1.497l-15.256-11.187c-3.441-2.523-4.185-7.358-1.662-10.8 2.523-3.441 7.36-4.185 10.8-1.661l15.256 11.187c3.441 2.523 4.185 7.358 1.662 10.8-1.513 2.063-3.859 3.158-6.237 3.158z" fill="#384848"/></g><g><path d="m192.114 388.741c1.254-2.483 4.257-3.374 6.76-2.163 5.724 2.771 12.812 1.781 17.562-2.969l14.29-14.29c4.672-4.672 5.862-11.815 2.887-17.714-1.962-3.891-23.145-26.326-4.691-47.37 45.949-52.397 106.701-121.66 126.96-144.756 4.406-5.023 6.533-11.643 5.88-18.292l-.683-6.956c-.581-5.92-7.785-8.499-11.991-4.293l-156.065 156.067c-10.346 10.346-20.547 28.642-21.329 53.437-.099 3.146-2.948 5.482-6.047 4.929l-10.612-1.891c-4.534-.808-9.176.651-12.433 3.908l-92.842 92.841c-4.211 4.211-3.893 11.129.685 14.936l66.725 55.494c5.001 4.159 12.572 2.588 15.504-3.219z" fill="#c86f5c"/></g><g><path d="m361.077 134.231.687 6.955c.651 6.648-1.474 13.267-5.882 18.29-3.628 4.143-8.573 9.775-14.483 16.53 1.932-4.408 2.748-9.259 2.326-14.147l-.787-9.159c-.515-6.054-7.871-8.744-12.172-4.444l18.319-18.319c4.207-4.207 11.412-1.624 11.992 4.294z" fill="#ba5d4f"/></g><path d="m223.687 312.279c-8.143 18.404 8.215 35.922 9.925 39.321 2.977 5.911 1.789 13.052-2.884 17.725l-13.603 13.603c.365-2.927-.115-5.968-1.51-8.723-1.961-3.893-23.149-26.326-4.694-47.371 4.144-4.73 8.409-9.596 12.766-14.555z" fill="#ba5d4f"/><g><path d="m126.96 452.84c-1.511 0-3.037-.443-4.375-1.364-3.515-2.421-4.401-7.231-1.981-10.745l35.661-51.779c2.421-3.514 7.231-4.399 10.745-1.981 3.515 2.421 4.401 7.231 1.981 10.745l-35.661 51.779c-1.498 2.176-3.913 3.345-6.37 3.345z" fill="#ba5d4f"/></g><g><g><path d="m83.853 461.734c-1.767 0-3.543-.603-4.995-1.835-3.254-2.762-3.652-7.638-.891-10.89l30.722-36.2c2.762-3.253 7.637-3.652 10.89-.892 3.254 2.762 3.652 7.638.891 10.89l-30.722 36.2c-1.529 1.801-3.705 2.727-5.895 2.727z" fill="#ba5d4f"/></g><g><path d="m128.907 406.948c-1.767 0-3.543-.603-4.995-1.836-3.254-2.761-3.652-7.637-.891-10.89l7.455-8.784c2.761-3.251 7.638-3.652 10.89-.89 3.254 2.761 3.652 7.637.891 10.89l-7.455 8.784c-1.528 1.799-3.704 2.726-5.895 2.726z" fill="#a34f41"/></g></g><g><path d="m102.764 462.023-37.899-37.899-15.105 15.105c-4.211 4.211-3.893 11.129.685 14.936l66.725 55.494c5.001 4.159 12.572 2.588 15.504-3.219l8.892-17.607-16.314-16.314c-3.015-3.015-6.996-4.873-11.243-5.248-4.249-.375-8.23-2.232-11.245-5.248z" fill="#3f5959"/></g></g><g><path d="m199.175 386.709c-.103-.041-.196-.082-.299-.134-2.503-1.205-5.511-.319-6.758 2.163l-4.286 8.478-11.641-11.641c-3.018-3.018-3.018-7.912 0-10.93 3.018-3.008 7.912-3.008 10.92 0z" fill="#ba5d4f"/></g></g></svg>