<svg id="education" xmlns="http://www.w3.org/2000/svg" width="57.667" height="46.178" viewBox="0 0 57.667 46.178">
  <path id="Контур_274" data-name="Контур 274" d="M57.667,94.868v-.022a2.485,2.485,0,0,0-.828-1.828l-5.69-5.08A1.69,1.69,0,1,0,48.9,90.458l3.047,2.72H22.912a11.54,11.54,0,1,0,0,3.379H51.945L48.9,99.277a1.689,1.689,0,1,0,2.25,2.52l5.69-5.08a2.485,2.485,0,0,0,.828-1.828v-.022h0Zm-46.149,8.161a8.161,8.161,0,1,1,7.963-9.85H14.058a1.689,1.689,0,0,0,0,3.379h5.423a8.158,8.158,0,0,1-7.963,6.471Zm0,0" transform="translate(0 -73.943)" fill="#fff"/>
  <path id="Контур_275" data-name="Контур 275" d="M300.938,51.682a1.689,1.689,0,0,0,1.689,1.689h18.379a1.689,1.689,0,1,0,0-3.379H302.627A1.689,1.689,0,0,0,300.938,51.682Zm0,0" transform="translate(-267.043 -44.362)" fill="#fff"/>
  <path id="Контур_276" data-name="Контур 276" d="M194.052,3.379H208.3A1.689,1.689,0,1,0,208.3,0h-14.25a1.689,1.689,0,0,0,0,3.379Zm0,0" transform="translate(-170.697)" fill="#fff"/>
  <path id="Контур_277" data-name="Контур 277" d="M370.291,3.379h2.635a1.689,1.689,0,1,0,0-3.379h-2.635a1.689,1.689,0,1,0,0,3.379Zm0,0" transform="translate(-327.086)" fill="#fff"/>
  <path id="Контур_278" data-name="Контур 278" d="M201.005,78.984a1.689,1.689,0,1,0,0,3.379h2.635a1.689,1.689,0,0,0,0-3.379Zm0,0" transform="translate(-176.867 -70.088)" fill="#fff"/>
  <path id="Контур_279" data-name="Контур 279" d="M223.676,232.34a1.689,1.689,0,0,0,0-3.379h-2.635a1.689,1.689,0,0,0,0,3.379Zm0,0" transform="translate(-194.646 -203.173)" fill="#fff"/>
  <path id="Контур_280" data-name="Контур 280" d="M99.927,351H81.584a1.689,1.689,0,1,0,0,3.379H99.927a1.689,1.689,0,1,0,0-3.379Zm0,0" transform="translate(-70.896 -311.47)" fill="#fff"/>
  <path id="Контур_281" data-name="Контур 281" d="M241.074,301.012H226.825a1.689,1.689,0,1,0,0,3.379h14.249a1.689,1.689,0,1,0,0-3.379Zm0,0" transform="translate(-199.779 -267.109)" fill="#fff"/>
  <path id="Контур_282" data-name="Контур 282" d="M156.34,304.391a1.689,1.689,0,1,0,0-3.379h-2.635a1.689,1.689,0,0,0,0,3.379Zm0,0" transform="translate(-134.894 -267.109)" fill="#fff"/>
  <path id="Контур_283" data-name="Контур 283" d="M325.625,380H322.99a1.689,1.689,0,0,0,0,3.379h2.635a1.689,1.689,0,0,0,0-3.379Zm0,0" transform="translate(-285.113 -337.201)" fill="#fff"/>
</svg>
