<svg id="transport" xmlns="http://www.w3.org/2000/svg" width="39.469" height="46.781" viewBox="0 0 39.469 46.781">
  <path id="Контур_284" data-name="Контур 284" d="M16.009,107.335c-.7-.388-1.361-.755-1.933-1.137-1.508-1-2.313-2.058-2.105-2.748.219-.724,1.5-1.529,2.985-1.529h2.9a1.973,1.973,0,0,0,1.973-1.973V96H11.936v2.556a6.176,6.176,0,0,0-3.742,3.749c-.444,1.465-.553,4.344,3.693,7.175.706.471,1.469.894,2.206,1.3,1.349.749,3.2,1.775,3.307,2.571.031.224-.011,1.1-1.868,2.955l2.792,2.792c2.282-2.283,3.259-4.341,2.985-6.293C20.924,110.064,18.313,108.614,16.009,107.335Z" transform="translate(-7.986 -72.321)" fill="#fff"/>
  <path id="Контур_285" data-name="Контур 285" d="M66.915,1.495A1.973,1.973,0,0,0,65,0H45.268a1.973,1.973,0,0,0-1.914,1.495l-1.6,6.4H68.515Z" transform="translate(-33.425)" fill="#fff"/>
  <path id="Контур_286" data-name="Контур 286" d="M118.717,98.214c-2.406.574-4.759,2.146-5.455,4.446-.427,1.409-.548,4.169,3.432,6.821.706.471,1.469.894,2.206,1.3,1.349.749,3.2,1.775,3.307,2.571.031.224-.011,1.1-1.868,2.955l2.792,2.791c2.282-2.283,3.259-4.341,2.985-6.293-.385-2.744-3-4.193-5.3-5.473-.7-.388-1.361-.755-1.933-1.137-1.338-.892-2.028-1.787-1.844-2.393.258-.853,1.944-1.884,3.651-1.884h3.947a1.973,1.973,0,0,0,1.973-1.973V96h-7.893Z" transform="translate(-87.141 -72.321)" fill="#fff"/>
  <path id="Контур_287" data-name="Контур 287" d="M58.941,42.551,56.39,40H27.95a2.069,2.069,0,0,0,.014.247L24.879,42.3A1.973,1.973,0,0,0,24,43.947V51.84H59.519V43.947a1.973,1.973,0,0,0-.578-1.4ZM29.92,47.893a1.973,1.973,0,1,1,1.973-1.973A1.973,1.973,0,0,1,29.92,47.893Zm17.76,0H35.84V43.947h11.84Zm5.92,0a1.973,1.973,0,1,1,1.973-1.973A1.973,1.973,0,0,1,53.6,47.893Z" transform="translate(-20.05 -30.134)" fill="#fff"/>
</svg>
