<svg xmlns="http://www.w3.org/2000/svg" width="45.62" height="45.603" viewBox="0 0 45.62 45.603">
  <g id="Сгруппировать_563" data-name="Сгруппировать 563" transform="translate(0.501 0.5)">
    <path id="Контур_288" data-name="Контур 288" d="M3534.846-1901.72a22.283,22.283,0,0,1,22.276,21.557,22.337,22.337,0,0,1-21.524,23.032,22.364,22.364,0,0,1-23.079-21.794A22.312,22.312,0,0,1,3534.846-1901.72Zm12.76,22.281a12.742,12.742,0,0,0-12.673-12.747,12.654,12.654,0,0,0-12.864,12.844,12.689,12.689,0,0,0,12.675,12.681A12.812,12.812,0,0,0,3547.606-1879.439Zm-21.071-11.014.445-.3a3.872,3.872,0,0,0-.413-.439.824.824,0,0,0-.341-.091c-2.387-.479-4.773-.96-7.162-1.428-.312-.061-.78-.271-.884.177-.115.5.413.49.739.558,1.6.334,3.2.65,4.806.97C3524.626-1890.826,3525.527-1890.651,3526.535-1890.453Zm19.351,2.933c.082.093.186.308.31.32s.3-.154.4-.281a.926.926,0,0,0,.109-.388q.737-3.677,1.471-7.354a1.2,1.2,0,0,0,.048-.5.564.564,0,0,0-.293-.349c-.079-.029-.266.113-.341.222a1.183,1.183,0,0,0-.131.435q-.606,3-1.206,6C3546.135-1888.815,3546.021-1888.213,3545.886-1887.52Zm-16.587,28.125c-.053-.324-.082-.544-.124-.76-.467-2.352-.93-4.7-1.412-7.054-.062-.3-.03-.831-.489-.75-.494.087-.287.575-.224.9.46,2.388.936,4.773,1.409,7.159a1.528,1.528,0,0,0,.153.534.6.6,0,0,0,.409.284C3529.134-1859.085,3529.234-1859.314,3529.3-1859.394Zm-14.54-25.481c.168-.023.219-.027.269-.037q3.876-.766,7.752-1.535a.58.58,0,0,0,.284-.1c.1-.1.23-.247.215-.354a.437.437,0,0,0-.312-.258,1.738,1.738,0,0,0-.6.038q-3.651.722-7.3,1.457a.709.709,0,0,0-.336.1c-.121.115-.279.286-.266.419S3514.691-1884.932,3514.759-1884.876Zm31.929,13.277c.274-.05.441-.078.608-.111,2.387-.471,4.775-.939,7.16-1.419.312-.063.809-.041.731-.514-.083-.5-.552-.275-.85-.218-2.422.468-4.841.956-7.26,1.44a1.084,1.084,0,0,0-.437.121c-.128.1-.279.284-.265.415S3546.608-1871.666,3546.688-1871.6Zm-4.2-19.783c-.035-.222-.049-.341-.073-.457q-.724-3.677-1.456-7.354c-.06-.3-.079-.762-.513-.672s-.26.524-.2.824c.281,1.486.575,2.97.869,4.455.209,1.051.411,2.1.655,3.145.037.157.283.264.432.395Zm-21.132,28.163.3.382a2.194,2.194,0,0,0,.419-.356,1.136,1.136,0,0,0,.121-.438q.734-3.675,1.464-7.351a.816.816,0,0,0,.036-.4.615.615,0,0,0-.3-.351c-.079-.03-.266.114-.341.223a1.21,1.21,0,0,0-.127.435q-.391,1.9-.776,3.8C3521.895-1865.96,3521.637-1864.643,3521.355-1863.218Zm.224-13.281a1.56,1.56,0,0,0-.548-.144c-.121.019-.24.181-.323.3-1.469,2.187-2.939,4.374-4.384,6.577-.1.157-.01.441-.009.667.2-.085.473-.114.574-.262,1.485-2.176,2.948-4.368,4.411-6.559A5.439,5.439,0,0,0,3521.579-1876.5Zm21.4,8.138-.411.308c.135.146.261.3.41.434.056.05.161.046.244.062q3.708.743,7.418,1.48c.3.059.734.231.815-.218s-.388-.444-.686-.5c-1.819-.374-3.641-.733-5.462-1.1Zm-21.439-13.3-.151-.19c-.052-.081-.107-.231-.158-.229a1.141,1.141,0,0,0-.566.105q-3.3,2.176-6.586,4.384c-.221.148-.515.356-.27.641.089.1.485.057.665-.05.629-.372,1.223-.8,1.832-1.207q2.273-1.514,4.547-3.025C3521.078-1881.379,3521.311-1881.516,3521.54-1881.66Zm27.123,4.934a3.9,3.9,0,0,0,.438-.227q3.193-2.121,6.38-4.25c.071-.047.17-.087.2-.155a5.938,5.938,0,0,0,.187-.568,3.971,3.971,0,0,0-.561-.022c-.092.008-.178.095-.262.151q-3.17,2.111-6.335,4.226a1.331,1.331,0,0,0-.375.338C3548.172-1876.99,3548.316-1876.734,3548.663-1876.726Zm-11.323-16.614a5.681,5.681,0,0,0-.291-.543q-2.049-3.086-4.109-6.166a1.17,1.17,0,0,0-.286-.354.512.512,0,0,0-.405-.061c-.08.032-.146.235-.125.344a1.455,1.455,0,0,0,.226.506q2.091,3.151,4.194,6.294a1.285,1.285,0,0,0,.3.344C3537.078-1892.807,3537.322-1892.947,3537.34-1893.34Zm16.13,3.918c.009-.337-.25-.488-.5-.327a1.338,1.338,0,0,0-.338.374c-.538.788-1.068,1.58-1.6,2.372-.91,1.358-1.831,2.708-2.713,4.084-.112.173-.015.479-.015.724.2-.11.481-.168.6-.338,1.473-2.17,2.923-4.354,4.376-6.538A3.434,3.434,0,0,0,3553.47-1889.423Zm-21.094,23.3c-.123.249-.257.4-.247.531a1.154,1.154,0,0,0,.226.5q2.1,3.166,4.213,6.323a1.015,1.015,0,0,0,.293.345.5.5,0,0,0,.409.015.387.387,0,0,0,.115-.345,1.669,1.669,0,0,0-.255-.493c-.468-.709-.945-1.412-1.416-2.119-.924-1.386-1.842-2.775-2.772-4.156A5.654,5.654,0,0,0,3532.375-1866.124Zm12.833,4.925a2.8,2.8,0,0,0-.394-.386q-1.449-1-2.915-1.977c-1.2-.8-2.4-1.615-3.621-2.389-.159-.1-.448,0-.676.015a6.155,6.155,0,0,0,.29.572c.049.079.162.118.247.175q2.481,1.664,4.96,3.328c.495.332.982.675,1.491.984C3544.919-1860.677,3545.2-1860.793,3545.209-1861.2Zm-20.5-36.835c-.106.061-.257.1-.288.177a.42.42,0,0,0,.036.365,3.2,3.2,0,0,0,.585.487q3.053,2.046,6.112,4.082c.085.057.174.148.262.148a2.79,2.79,0,0,0,.5-.08,2.409,2.409,0,0,0-.1-.454c-.036-.083-.145-.141-.229-.2q-3.2-2.144-6.406-4.283A4.908,4.908,0,0,0,3524.706-1898.033Z" transform="translate(-3512.513 1901.721)" fill="#fff" stroke="rgba(0,0,0,0)" stroke-width="1"/>
    <path id="Контур_289" data-name="Контур 289" d="M3625.274-1800.8a11.99,11.99,0,0,1,12.021,11.667,12.142,12.142,0,0,1-11.885,12.307,12.148,12.148,0,0,1-12.122-11.709A11.986,11.986,0,0,1,3625.274-1800.8Zm-.006,18.614a6.675,6.675,0,0,0,6.67-6.66,6.68,6.68,0,0,0-6.646-6.634,6.691,6.691,0,0,0-6.648,6.636A6.689,6.689,0,0,0,3625.268-1782.183Zm-7.46-1.548v.011c.1,0,.2,0,.306,0,.341-.014.684-.058.7-.5s-.317-.575-.681-.6c-.7-.053-1.392-.093-2.089-.113-.343-.01-.686.09-.7.5-.018.436.321.566.688.593C3616.619-1783.791,3617.213-1783.765,3617.808-1783.731Zm15.369-3.448a5.408,5.408,0,0,0,.207.6c.317.64.616,1.292.992,1.9a.813.813,0,0,0,.679.232c.12-.016.325-.42.268-.551-.361-.823-.766-1.63-1.2-2.415a.648.648,0,0,0-.569-.157C3633.4-1787.539,3633.292-1787.31,3633.177-1787.179Zm.593-5.744c.3,0,.455,0,.608,0,.319-.011.645-.045.688-.449.045-.428-.266-.565-.61-.6-.727-.07-1.456-.125-2.185-.158-.351-.016-.671.118-.686.524s.314.532.656.565C3632.8-1792.987,3633.359-1792.954,3633.77-1792.923ZM3621.8-1778.5c.1.125.21.381.341.392a.849.849,0,0,0,.661-.2c.471-.621.89-1.283,1.307-1.943a.517.517,0,0,0-.149-.8.524.524,0,0,0-.747.221c-.425.614-.834,1.24-1.24,1.867A2.6,2.6,0,0,0,3621.8-1778.5Zm12.6-4.641c-.467-.868-.9-1.709-1.381-2.524a.548.548,0,0,0-.534-.07c-.153.125-.322.442-.261.581.351.809.75,1.6,1.179,2.371a.621.621,0,0,0,.563.176C3634.118-1782.65,3634.214-1782.9,3634.393-1783.137Zm-17.1-7.644c-.49-.888-.943-1.739-1.439-2.564a.549.549,0,0,0-.53-.038.735.735,0,0,0-.2.614,25.735,25.735,0,0,0,1.144,2.331.629.629,0,0,0,.569.167C3617-1790.318,3617.109-1790.56,3617.3-1790.781Zm1.031-1.809c-.482-.883-.93-1.735-1.422-2.559a.548.548,0,0,0-.532-.042c-.142.111-.288.418-.23.552.357.822.754,1.628,1.187,2.413.065.119.4.168.579.12C3618.058-1792.147,3618.154-1792.377,3618.327-1792.59Zm15.292.3c-.668-.026-1,.153-.994.522.006.342.384.559,1,.588.577.027,1.154.076,1.731.095.354.011.727-.028.737-.5.008-.439-.327-.566-.689-.6C3634.809-1792.233,3634.214-1792.257,3633.62-1792.292Zm-9.178-7.072c-.1-.113-.2-.353-.347-.378a.75.75,0,0,0-.621.167,24.284,24.284,0,0,0-1.4,2.115.634.634,0,0,0,.131.592c.207.075.6.065.7-.072.515-.669.962-1.391,1.428-2.1A1.6,1.6,0,0,0,3624.441-1799.364Zm3.552-.439c-.067.041-.238.087-.314.2-.492.709-.983,1.421-1.421,2.163a.622.622,0,0,0,.161.59.648.648,0,0,0,.625-.029,26.276,26.276,0,0,0,1.516-2.277C3628.736-1799.457,3628.418-1799.821,3627.994-1799.8Zm5.368,18.51c-.471-.88-.912-1.735-1.4-2.565-.053-.09-.422-.109-.537-.021-.144.109-.3.418-.239.547.365.82.772,1.624,1.208,2.409a.583.583,0,0,0,.532.126C3633.081-1780.847,3633.177-1781.07,3633.362-1781.293Zm-16.792-4.245,0-.02c.153,0,.306,0,.459,0,.332-.01.7-.019.732-.453.031-.418-.3-.543-.642-.576-.726-.073-1.454-.132-2.183-.169a.534.534,0,0,0-.637.514c-.017.381.258.533.594.566C3615.452-1785.622,3616.011-1785.583,3616.57-1785.538Zm9.943-13.81c-.091-.11-.193-.355-.334-.38a.736.736,0,0,0-.612.172,22.317,22.317,0,0,0-1.372,2.071c-.088.152.01.6.121.639a.776.776,0,0,0,.707-.112c.5-.656.94-1.364,1.4-2.057A1.5,1.5,0,0,0,3626.513-1799.348Zm-.179,18.683c-.1-.124-.216-.378-.346-.387a.853.853,0,0,0-.656.214c-.468.623-.881,1.288-1.3,1.945a.506.506,0,0,0,.11.764.505.505,0,0,0,.753-.17c.439-.624.856-1.265,1.272-1.9A2.486,2.486,0,0,0,3626.334-1780.665Zm-8.974-2.434c-.053,0-.174-.006-.292,0-.339.021-.69.083-.7.5-.01.388.323.492.639.524.709.073,1.42.137,2.132.175.337.018.68-.063.693-.5.011-.4-.266-.567-.627-.594C3618.613-1783.031,3618.018-1783.06,3617.361-1783.1Zm8.635,4.624c.1.114.2.356.341.377a.759.759,0,0,0,.62-.176,19.91,19.91,0,0,0,1.338-2.036.711.711,0,0,0-.143-.685.7.7,0,0,0-.681.12c-.486.628-.9,1.308-1.339,1.975A2.042,2.042,0,0,0,3626-1778.475Zm6.7-16.256,0-.032c.22.018.44.045.66.053.337.012.635-.088.675-.466s-.227-.56-.565-.585c-.761-.056-1.524-.092-2.287-.115-.3-.009-.614.068-.618.451s.277.517.611.552C3631.677-1794.821,3632.185-1794.779,3632.692-1794.732Zm-13.338.34c-.469-.887-.893-1.73-1.37-2.542a.6.6,0,0,0-.58-.056.7.7,0,0,0-.189.6,6.762,6.762,0,0,0,.48,1.063,8.945,8.945,0,0,0,.591,1.179.733.733,0,0,0,.6.229C3619.04-1793.938,3619.163-1794.186,3619.354-1794.391Z" transform="translate(-3602.98 1811.121)" fill="#fff" stroke="rgba(0,0,0,0)" stroke-width="1"/>
    <path id="Контур_290" data-name="Контур 290" d="M3672.755-1735.7a6.009,6.009,0,0,1,6-5.979,6.019,6.019,0,0,1,5.849,5.872,6,6,0,0,1-5.949,5.978A6.017,6.017,0,0,1,3672.755-1735.7Zm8.689-.039a2.8,2.8,0,0,0-2.747-2.83,2.882,2.882,0,0,0-2.833,2.791,2.8,2.8,0,0,0,2.8,2.789A2.673,2.673,0,0,0,3681.445-1735.741Z" transform="translate(-3656.37 1758.046)" fill="#fff" stroke="rgba(0,0,0,0)" stroke-width="1"/>
  </g>
</svg>
