<svg id="time-and-date" xmlns="http://www.w3.org/2000/svg" width="60.351" height="46.095" viewBox="0 0 60.351 46.095">
  <path id="Контур_268" data-name="Контур 268" d="M104.184,0A29.92,29.92,0,0,0,85.9,7.572l7.55,7.549a15.913,15.913,0,0,1,10.732.04Zm0,0" transform="translate(-75.776)" fill="#fff"/>
  <path id="Контур_269" data-name="Контур 269" d="M274.327,20.021l14.282-13.03A29.906,29.906,0,0,0,271,0V16.979a16.041,16.041,0,0,1,3.328,3.042Zm0,0" transform="translate(-239.055 0)" fill="#fff"/>
  <path id="Контур_270" data-name="Контур 270" d="M0,105.507v1.768H7.072v-1.768A15.913,15.913,0,0,1,14.329,92.16l-6.7-6.7A29.954,29.954,0,0,0,0,105.507Zm0,0" transform="translate(0 -75.384)" fill="#fff"/>
  <path id="Контур_271" data-name="Контур 271" d="M432.453,201.046h9.376v-1.768a30.374,30.374,0,0,0-.941-7.52Zm0,0" transform="translate(-381.478 -169.155)" fill="#fff"/>
  <path id="Контур_272" data-name="Контур 272" d="M203.093,271.059a7.072,7.072,0,1,0,5,2.072A7.027,7.027,0,0,0,203.093,271.059Zm0,0" transform="translate(-172.917 -239.108)" fill="#fff"/>
  <path id="Контур_273" data-name="Контур 273" d="M286.752,74.555,265.18,94.236a10.6,10.6,0,0,1,9.463,9.453l19.631-21.615v-7.52Zm0,0" transform="translate(-233.922 -65.767)" fill="#fff"/>
</svg>
