<svg xmlns="http://www.w3.org/2000/svg" width="46.67" height="35.002" viewBox="0 0 46.67 35.002">
  <path id="Контур_212" data-name="Контур 212" d="M46.384,67.05l-2.759-2.764a.971.971,0,0,0-1.375,0l-5.856,5.862a1.313,1.313,0,0,1-1.72,0,7.074,7.074,0,0,0-5-2.015h0a7.084,7.084,0,0,0-4.805,1.861l-.848-.848a.972.972,0,0,0-1.375,0l-.877.876a3.98,3.98,0,0,0-5.268.214L4.291,82.446a3.887,3.887,0,0,0-.213,5.269l-.877.877a.972.972,0,0,0,0,1.375l.845.845L.285,94.578a.971.971,0,0,0,0,1.374l2.759,2.764a.971.971,0,0,0,1.375,0l3.764-3.769.852.852a.972.972,0,0,0,1.375,0l.877-.876a3.985,3.985,0,0,0,5.268-.214L28.766,82.5a3.887,3.887,0,0,0,.213-5.269l.877-.877a.972.972,0,0,0,0-1.375l-.829-.829a1.25,1.25,0,0,1,1.511.134,7.2,7.2,0,0,0,9.991,0l5.856-5.862A.971.971,0,0,0,46.384,67.05ZM19.949,75.04l-6.126,6.125a.972.972,0,0,1-1.375-1.375l6.126-6.125a.972.972,0,0,1,1.375,1.375Z" transform="translate(0 -64)" fill="#fff"/>
</svg>
