<svg xmlns="http://www.w3.org/2000/svg" width="41.622" height="27.748" viewBox="0 0 41.622 27.748">
  <path id="Контур_228" data-name="Контур 228" d="M40.755,85.333H39.021a.866.866,0,0,0-.822.593,15.181,15.181,0,0,1-5.956,7.8,11.95,11.95,0,0,1-6.655,2.015H12.909a6.937,6.937,0,1,0,0,6.937h2.749A7.8,7.8,0,1,0,31.2,104.07a11.969,11.969,0,0,1,1.043.622,15.181,15.181,0,0,1,5.956,7.8.866.866,0,0,0,.822.593h1.734a.867.867,0,0,0,.867-.867V86.2A.867.867,0,0,0,40.755,85.333ZM4.336,95.739a.867.867,0,1,1,.867-.867A.867.867,0,0,1,4.336,95.739Zm19.511,9.539a1.3,1.3,0,0,1-.027-2.6l.437.061a1.3,1.3,0,0,1-.41,2.535Z" transform="translate(0 -85.333)" fill="#fff"/>
</svg>
