<svg xmlns="http://www.w3.org/2000/svg" width="44.299" height="36.339" viewBox="0 0 44.299 36.339">
  <g id="Сгруппировать_769" data-name="Сгруппировать 769" transform="translate(0)">
    <path id="Контур_219" data-name="Контур 219" d="M142.683,259.791a3.876,3.876,0,0,1-1.215-.705l-2.32,1.339a6.463,6.463,0,0,0,3.535,2.069Zm0,0" transform="translate(-127.109 -236.669)" fill="#fff"/>
    <path id="Контур_220" data-name="Контур 220" d="M241.843,203.469a6.411,6.411,0,0,0-.36-2.039l-2.307,1.332a3.544,3.544,0,0,1,0,1.415l2.307,1.332A6.411,6.411,0,0,0,241.843,203.469Zm0,0" transform="translate(-218.482 -184.002)" fill="#fff"/>
    <path id="Контур_221" data-name="Контур 221" d="M213.535,153.589A6.464,6.464,0,0,0,210,151.52v2.7a3.875,3.875,0,0,1,1.215.705Zm0,0" transform="translate(-191.831 -138.41)" fill="#fff"/>
    <path id="Контур_222" data-name="Контур 222" d="M142.683,151.52a6.463,6.463,0,0,0-3.535,2.069l2.32,1.339a3.874,3.874,0,0,1,1.215-.705Zm0,0" transform="translate(-127.109 -138.41)" fill="#fff"/>
    <path id="Контур_223" data-name="Контур 223" d="M211.215,259.086a3.879,3.879,0,0,1-1.215.705v2.7a6.463,6.463,0,0,0,3.535-2.069Zm0,0" transform="translate(-191.83 -236.669)" fill="#fff"/>
    <path id="Контур_224" data-name="Контур 224" d="M120.36,201.43a5.957,5.957,0,0,0,0,4.079l2.307-1.332a3.544,3.544,0,0,1,0-1.415Zm0,0" transform="translate(-109.617 -184.002)" fill="#fff"/>
    <path id="Контур_225" data-name="Контур 225" d="M181.3,212.6a1.3,1.3,0,1,0-1.3-1.3A1.3,1.3,0,0,0,181.3,212.6Zm0,0" transform="translate(-164.426 -191.83)" fill="#fff"/>
    <g id="Сгруппировать_768" data-name="Сгруппировать 768">
      <path id="Контур_226" data-name="Контур 226" d="M454.6,0A2.6,2.6,0,0,0,452,2.6V18.17a2.6,2.6,0,1,0,5.191,0V2.6A2.6,2.6,0,0,0,454.6,0Zm0,0" transform="translate(-412.892)" fill="#fff"/>
      <path id="Контур_227" data-name="Контур 227" d="M16.872,63.744A16.894,16.894,0,0,0,33.694,48.17H29.855a7.942,7.942,0,0,1-3.923-1.058,9.074,9.074,0,1,1-9.06-9.325,9.193,9.193,0,0,1,7.867,4.544c0,.007,0,.014.007.021l0,0a5.97,5.97,0,0,0,5.106,3.224h6.657V30H16.872a16.872,16.872,0,1,0,0,33.743Zm15.574-29.85a1.3,1.3,0,1,1-1.3,1.3A1.3,1.3,0,0,1,32.446,33.894Zm0,5.191a1.3,1.3,0,1,1-1.3,1.3A1.3,1.3,0,0,1,32.446,39.085Zm0,0" transform="translate(0 -27.405)" fill="#fff"/>
    </g>
  </g>
</svg>
