<?xml version="1.0" encoding="iso-8859-1"?>
<!-- Generator: Adobe Illustrator 19.0.0, SVG Export Plug-In . SVG Version: 6.00 Build 0)  -->
<svg version="1.1" id="Capa_1" xmlns="http://www.w3.org/2000/svg" xmlns:xlink="http://www.w3.org/1999/xlink" x="0px" y="0px"
	 viewBox="0 0 410 410" style="enable-background:new 0 0 410 410;" xml:space="preserve">
<path style="fill:#FDF1E1;" d="M35.2,346.3c-15.8,0-28.8-12.8-28.8-28.8V92.7c0-15.8,12.8-28.8,28.8-28.8h339.6
	c15.8,0,28.8,12.8,28.8,28.8v224.8c0,15.8-12.8,28.8-28.8,28.8H35.2z"/>
<g>
	<path style="fill:#E8A54D;" d="M110.4,199.1c-8.6,0-16.8-3.4-22.8-9.4c-12.6-12.6-12.4-33.2,0.2-45.6c6-6,14.2-9.4,22.6-9.4
		c8.6,0,16.8,3.4,22.8,9.4c12.6,12.6,12.4,33.2-0.2,45.6C127,195.7,119,199.1,110.4,199.1z"/>
	<path style="fill:#E8A54D;" d="M53.2,272.5v-14.2c0-23,18.8-41.8,41.8-41.8h31c11,0,21.8,4.4,29.6,12.2
		c12.4,12.4,12.4,24.2,12.2,37.8v5.8L53.2,272.5z"/>
</g>
<path style="fill:#2B1E0C;" d="M374.8,67.9H35.2c-13.6,0-24.6,11-24.8,24.8v224.8c0,13.6,11,24.6,24.8,24.8h339.6
	c13.6,0,24.6-11,24.8-24.8V92.7C399.4,79.1,388.4,68.1,374.8,67.9z M128.2,149.1c-9.8-9.6-25.4-9.8-35.2-0.2l-0.2,0.2
	c-9.8,9.8-9.8,25.8,0,35.6l0,0c9.8,9.6,25.4,9.8,35.2,0.2l0.2-0.2C138,174.9,138,158.9,128.2,149.1L128.2,149.1L128.2,149.1z
	 M110.4,131.1c9.4,0,18.6,3.8,25.2,10.4l0,0c14,14,14,36.6,0,50.4l0,0l-0.4,0.4c-14,13.6-36.4,13.6-50.2-0.4l0,0
	c-14-14-14-36.6,0-50.4l0,0l0.4-0.4C92.2,134.7,101.2,131.1,110.4,131.1z M169,279.1H52c-3,0-5.2-2.4-5.4-5.2v-15.6
	c0-26.8,21.6-48.4,48.4-48.4h31c26.8,0,48.4,21.6,48.4,48.4v15.4C174.4,276.7,172,279.1,169,279.1L169,279.1z M57.2,268.5h106.6
	v-10.2c-0.2-20.8-17-37.6-37.8-37.8H95c-20.8,0.2-37.6,17-37.8,37.8V268.5z M216.2,152.9c-3-0.2-5.2-2.6-5-5.6c0.2-2.6,2.2-4.8,5-5
	h142c3,0.2,5.2,2.6,5,5.6c-0.2,2.6-2.2,4.8-5,5H216.2z M216.2,181.7c-3-0.2-5.2-2.6-5-5.6c0.2-2.6,2.2-4.8,5-5h142
	c3,0.2,5.2,2.6,5,5.6c-0.2,2.6-2.2,4.8-5,5H216.2z M216.2,210.3c-3-0.2-5.2-2.6-5-5.6c0.2-2.6,2.2-4.8,5-5h142c3,0.2,5.2,2.6,5,5.6
	c-0.2,2.6-2.2,4.8-5,5H216.2z M216.2,239.1c-3-0.2-5.2-2.6-5-5.6c0.2-2.6,2.2-4.8,5-5h142c3,0.2,5.2,2.6,5,5.6c-0.2,2.6-2.2,4.8-5,5
	H216.2z M216.2,267.9c-3-0.2-5.2-2.6-5-5.6c0.2-2.6,2.2-4.8,5-5h142c3,0.2,5.2,2.6,5,5.6c-0.2,2.6-2.2,4.8-5,5H216.2z M35.2,57.3
	h339.6c19.4,0,35.2,15.8,35.2,35.4v224.8c0,19.4-15.8,35.2-35.2,35.2H35.2C15.8,352.7,0,336.9,0,317.5V92.7
	C0,73.3,15.8,57.5,35.2,57.3z"/>
<g>
</g>
<g>
</g>
<g>
</g>
<g>
</g>
<g>
</g>
<g>
</g>
<g>
</g>
<g>
</g>
<g>
</g>
<g>
</g>
<g>
</g>
<g>
</g>
<g>
</g>
<g>
</g>
<g>
</g>
</svg>
