<?xml version="1.0"?>
<svg xmlns="http://www.w3.org/2000/svg" xmlns:xlink="http://www.w3.org/1999/xlink" xmlns:svgjs="http://svgjs.com/svgjs" version="1.1" width="512" height="512" x="0" y="0" viewBox="0 0 512 512" style="enable-background:new 0 0 512 512" xml:space="preserve" class=""><g>
<path xmlns="http://www.w3.org/2000/svg" style="" d="M298.134,54.23h-85.007c-2.763,0-5.004-2.241-5.004-5.004v-24.04c0-9.764,7.916-17.68,17.68-17.68  h59.654c9.764,0,17.68,7.916,17.68,17.68v24.04C303.138,51.99,300.897,54.23,298.134,54.23z" fill="#707487" data-original="#707487" class=""/>
<path xmlns="http://www.w3.org/2000/svg" style="" d="M351.974,211.653l-32.231-27.247c-11.894-10.055-18.755-24.839-18.755-40.413V92.465  c0-9.443-2.994-18.642-8.551-26.277L283.73,54.23h-27.345h-0.769h-27.344l-8.706,11.958c-5.558,7.634-8.551,16.834-8.551,26.276  v51.529c0,15.575-6.861,30.358-18.755,40.413l-32.231,27.247c-11.894,10.055-18.755,24.839-18.755,40.413v233.383  c0,10.518,8.526,19.044,19.044,19.044h95.299h0.769h95.299c10.518,0,19.044-8.526,19.044-19.044V252.067  C370.729,236.492,363.869,221.708,351.974,211.653z" fill="#d9d7d3" data-original="#ff9300" class=""/>
<path xmlns="http://www.w3.org/2000/svg" style="" d="M370.728,252.067v233.387c0,10.518-8.526,19.044-19.044,19.044h-26.16  c10.518,0,19.044-8.526,19.044-19.044V262.235c0-15.572-6.865-30.353-18.754-40.411l-32.234-27.251  c-11.889-10.048-18.754-35.007-18.754-50.578V92.466c0-9.447-2.992-18.644-8.546-26.28l-8.707-11.959h26.16l8.707,11.959  c5.554,7.636,8.546,16.833,8.546,26.28v51.529c0,15.572,6.865,30.353,18.754,40.411l32.234,27.251  C363.873,221.704,370.728,236.495,370.728,252.067z" fill="#c3c2c1" data-original="#e57e03" class=""/>
<rect xmlns="http://www.w3.org/2000/svg" x="141.268" y="259.146" style="" width="229.454" height="192.466" fill="#707487" data-original="#707487" class=""/>
<rect xmlns="http://www.w3.org/2000/svg" x="344.572" y="259.146" style="" width="26.16" height="192.466" fill="#606575" data-original="#606575" class=""/>
<path xmlns="http://www.w3.org/2000/svg" style="" d="M300.984,92.462v55.391h-89.968V92.462c0-9.437,2.992-18.644,8.546-26.27l8.707-11.959h55.462  l8.707,11.959C297.992,73.818,300.984,83.025,300.984,92.462z" fill="#707487" data-original="#707487" class=""/>
<g xmlns="http://www.w3.org/2000/svg">
	<path style="" d="M300.985,92.466v55.382h-26.8V92.466c0-9.437-2.992-18.644-8.547-26.27l-8.707-11.959h26.8   l8.707,11.959C297.993,73.822,300.985,83.029,300.985,92.466z" fill="#606575" data-original="#606575" class=""/>
	<path style="" d="M303.137,25.185v24.038c0,2.762-2.242,5.004-5.004,5.004h-42.132V7.502h29.452   C295.221,7.502,303.137,15.418,303.137,25.185z" fill="#606575" data-original="#606575" class=""/>
</g>
<ellipse xmlns="http://www.w3.org/2000/svg" style="" cx="255.635" cy="322.594" rx="35.027" ry="24.779" fill="#e2eefd" data-original="#e2eefd" class=""/>
<path xmlns="http://www.w3.org/2000/svg" style="" d="M290.657,322.6c0,13.68-15.682,24.779-35.027,24.779c-8.827,0-16.883-2.312-23.047-6.125  c1.131,0.08,2.282,0.12,3.443,0.12c19.345,0,35.027-11.098,35.027-24.779c0-7.446-4.634-14.111-11.969-18.654  C276.807,299.163,290.657,309.731,290.657,322.6z" fill="#c7dcf2" data-original="#c7dcf2" class=""/>
<path xmlns="http://www.w3.org/2000/svg" d="M359.295,208.135c-3.015-2.847-7.765-2.71-10.611,0.304c-2.845,3.014-2.709,7.765,0.305,10.61  c8.942,8.443,14.105,20.301,14.223,32.592H148.79c0.123-13.235,5.964-25.7,16.083-34.255l32.232-27.247  c10.669-9.019,17.748-21.308,20.32-34.78h77.161c2.394,12.412,8.638,23.933,17.955,32.681c3.021,2.837,7.772,2.689,10.609-0.333  c2.837-3.022,2.688-7.772-0.333-10.61c-9.103-8.548-14.324-20.614-14.324-33.103V92.464c0-6.247-1.094-12.339-3.214-18.072  c-1.486-4.019-3.485-7.856-5.957-11.449c-0.27-0.392-0.538-0.786-0.82-1.173l-0.037-0.051c6.743-0.178,12.177-5.707,12.177-12.492  V25.186C310.643,11.299,299.345,0,285.456,0h-59.653c-13.888,0-25.186,11.299-25.186,25.186v24.04  c0,6.898,5.611,12.509,12.509,12.509h0.396l-0.027,0.037c-4.9,6.727-8.067,14.379-9.344,22.471c-0.426,2.697-0.642,5.443-0.642,8.22  v51.529c0,13.393-5.866,26.035-16.095,34.681l-32.232,27.247c-13.609,11.505-21.415,28.323-21.415,46.145v7.079v192.471v33.834  c0,14.64,11.91,26.55,26.55,26.55h191.367c14.64,0,26.55-11.91,26.55-26.55v-33.834v-192.47v-7.079  C378.235,235.511,371.331,219.498,359.295,208.135z M293.478,140.347h-74.957V92.462c0-7.245,2.183-14.457,6.169-20.493  c0.305-0.459,0.617-0.915,0.944-1.363l6.456-8.867h47.821l6.459,8.872c4.583,6.293,7.108,14.053,7.108,21.851V140.347z   M215.627,25.186c0-5.61,4.564-10.175,10.175-10.175h59.653c5.61,0,10.175,4.564,10.175,10.175v21.538h-11.902h-55.457h-12.645  V25.186H215.627z M351.684,496.989H160.317c-6.363,0-11.539-5.176-11.539-11.539v-26.328h118.898c4.145,0,7.506-3.361,7.506-7.506  s-3.361-7.506-7.506-7.506H148.779V266.652h214.445v177.46H314.15c-4.145,0-7.506,3.361-7.506,7.506s3.361,7.506,7.506,7.506h49.073  v26.328C363.223,491.813,358.047,496.989,351.684,496.989z" fill="#000000" data-original="#000000" style="" class=""/>
<path xmlns="http://www.w3.org/2000/svg" d="M167.434,316.898c4.145,0,7.506-3.361,7.506-7.506v-17.474h17.513c4.145,0,7.506-3.361,7.506-7.506  s-3.361-7.506-7.506-7.506h-22.017c-5.794,0-10.508,4.714-10.508,10.508v21.978C159.928,313.538,163.289,316.898,167.434,316.898z" fill="#000000" data-original="#000000" style="" class=""/>
<path xmlns="http://www.w3.org/2000/svg" d="M319.549,291.917h17.513v17.474c0,4.145,3.361,7.506,7.506,7.506s7.506-3.361,7.506-7.506v-21.978  c0-5.794-4.714-10.508-10.508-10.508h-22.017c-4.145,0-7.506,3.361-7.506,7.506S315.404,291.917,319.549,291.917z" fill="#000000" data-original="#000000" style="" class=""/>
<path xmlns="http://www.w3.org/2000/svg" d="M192.453,418.845H174.94v-17.474c0-4.145-3.361-7.506-7.506-7.506s-7.506,3.361-7.506,7.506v21.978  c0,5.794,4.714,10.508,10.508,10.508h22.017c4.145,0,7.506-3.361,7.506-7.506C199.959,422.206,196.598,418.845,192.453,418.845z" fill="#000000" data-original="#000000" style="" class=""/>
<path xmlns="http://www.w3.org/2000/svg" d="M344.568,393.865c-4.145,0-7.506,3.361-7.506,7.506v17.474h-17.513c-4.145,0-7.506,3.361-7.506,7.506  c0,4.145,3.361,7.506,7.506,7.506h22.017c5.794,0,10.508-4.714,10.508-10.508v-21.978  C352.074,397.226,348.713,393.865,344.568,393.865z" fill="#000000" data-original="#000000" style="" class=""/>
<path xmlns="http://www.w3.org/2000/svg" d="M206.593,382.902h98.074c4.145,0,7.506-3.361,7.506-7.506s-3.361-7.506-7.506-7.506h-98.074  c-4.145,0-7.506,3.361-7.506,7.506S202.447,382.902,206.593,382.902z" fill="#000000" data-original="#000000" style="" class=""/>
<path xmlns="http://www.w3.org/2000/svg" d="M312.173,402.417c0-4.145-3.361-7.506-7.506-7.506h-98.074c-4.145,0-7.506,3.361-7.506,7.506s3.361,7.506,7.506,7.506  h98.074C308.812,409.923,312.173,406.562,312.173,402.417z" fill="#000000" data-original="#000000" style="" class=""/>
<path xmlns="http://www.w3.org/2000/svg" d="M255.63,354.881c23.85,0,42.532-14.181,42.532-32.284s-18.682-32.284-42.532-32.284s-42.532,14.181-42.532,32.284  S231.781,354.881,255.63,354.881z M255.63,305.324c14.918,0,27.521,7.91,27.521,17.273c0,9.363-12.603,17.273-27.521,17.273  c-14.918,0-27.521-7.91-27.521-17.273C228.109,313.234,240.711,305.324,255.63,305.324z" fill="#000000" data-original="#000000" style="" class=""/>
<path xmlns="http://www.w3.org/2000/svg" d="M271.049,93.536h-30.838c-4.145,0-7.506,3.361-7.506,7.506c0,4.145,3.361,7.506,7.506,7.506h30.838  c4.145,0,7.506-3.361,7.506-7.506C278.555,96.896,275.195,93.536,271.049,93.536z" fill="#000000" data-original="#000000" style="" class=""/>
<path xmlns="http://www.w3.org/2000/svg" d="M271.049,114.331h-30.838c-4.145,0-7.506,3.361-7.506,7.506s3.361,7.506,7.506,7.506h30.838  c4.145,0,7.506-3.361,7.506-7.506S275.195,114.331,271.049,114.331z" fill="#000000" data-original="#000000" style="" class=""/>
<g xmlns="http://www.w3.org/2000/svg">
</g>
<g xmlns="http://www.w3.org/2000/svg">
</g>
<g xmlns="http://www.w3.org/2000/svg">
</g>
<g xmlns="http://www.w3.org/2000/svg">
</g>
<g xmlns="http://www.w3.org/2000/svg">
</g>
<g xmlns="http://www.w3.org/2000/svg">
</g>
<g xmlns="http://www.w3.org/2000/svg">
</g>
<g xmlns="http://www.w3.org/2000/svg">
</g>
<g xmlns="http://www.w3.org/2000/svg">
</g>
<g xmlns="http://www.w3.org/2000/svg">
</g>
<g xmlns="http://www.w3.org/2000/svg">
</g>
<g xmlns="http://www.w3.org/2000/svg">
</g>
<g xmlns="http://www.w3.org/2000/svg">
</g>
<g xmlns="http://www.w3.org/2000/svg">
</g>
<g xmlns="http://www.w3.org/2000/svg">
</g>
</g></svg>
