<svg id="Capa_1" enable-background="new 0 0 512 512" height="512" viewBox="0 0 512 512" width="512" xmlns="http://www.w3.org/2000/svg"><path d="m163.291 43.796c-5.039-7.606-15.798-8.489-22.117-1.909-2.061 2.146-3.942 4.497-5.616 7.051-17.356 26.484-5.933 64.66 25.513 85.267 14.328 9.389 30.337 13.507 45.165 12.704 10.839-.587 16.818-12.911 10.823-21.96z" fill="#fdde2e"/><path d="m217.059 124.95-53.768-81.154c-5.039-7.606-15.798-8.489-22.117-1.908-.907.945-1.773 1.936-2.608 2.96l53.071 80.103c4.771 7.201 1.954 16.47-4.855 20.254 6.552 1.485 13.111 2.05 19.454 1.707 10.839-.589 16.818-12.913 10.823-21.962z" fill="#f9c400"/><ellipse cx="268.663" cy="63.548" fill="#f9c301" rx="48.535" ry="62.638" transform="matrix(.707 -.707 .707 .707 33.754 208.586)"/><path d="m302.983 29.228c-18.254-18.254-42.481-25.365-61.48-19.927 12.004 2.988 24.102 9.704 34.325 19.927 24.462 24.462 28.927 59.657 9.972 78.612-4.81 4.81-10.67 8.105-17.132 9.955 16.718 4.161 33.254 1.078 44.286-9.955 18.956-18.954 14.491-54.15-9.971-78.612z" fill="#e6b700"/><ellipse cx="324.698" cy="95.194" fill="#fdde2e" rx="62.638" ry="48.535" transform="matrix(.355 -.935 .935 .355 120.373 364.901)"/><path d="m370.068 112.435c9.17-24.131 5.728-49.145-7.018-64.247 2.194 12.174 1.026 25.962-4.11 39.477-12.289 32.338-42.563 50.834-67.621 41.312-6.359-2.417-11.766-6.411-16.101-11.547 3.056 16.955 12.645 30.775 27.229 36.317 25.058 9.522 55.333-8.974 67.621-41.312z" fill="#f9c301"/><path d="m430.983 463.218-10.867-78.592c-.351-2.54-.527-5.101-.527-7.665v-192.691c0-2.564.176-5.125.527-7.665l10.867-78.593c1.288-9.315-6.679-17.283-15.995-15.995l-87.918 12.157c-2.54.351-5.101.527-7.665.527h-126.809c-2.564 0-5.125-.176-7.665-.527l-87.919-12.156c-9.315-1.288-17.283 6.679-15.995 15.995l10.867 78.593c.351 2.54.527 5.101.527 7.665v192.69c0 2.564-.176 5.125-.527 7.665l-10.867 78.592c-1.288 9.315 6.679 17.283 15.995 15.995l85.716-11.852c2.54-.351 5.101-.527 7.665-.527h131.215c2.564 0 5.125.176 7.665.527l85.716 11.852c9.315 1.288 17.282-6.68 15.994-15.995z" fill="#fb4753"/><path d="m420.117 384.626c-.351-2.54-.527-5.101-.527-7.665v-192.691c0-2.564.176-5.125.527-7.665l10.867-78.592c1.288-9.315-6.679-17.283-15.995-15.995l-36.445 5.039-5.828 42.147c-.351 2.54-.527 5.101-.527 7.665v192.69c0 2.564.176 5.125.527 7.665l10.867 78.593c1.288 9.315-6.679 17.283-15.995 15.995l-85.716-11.852c-2.54-.351-5.101-.527-7.665-.527h-131.215c-2.564 0-5.125.176-7.665.527l-49.271 6.812-5.039 36.445c-1.288 9.315 6.679 17.283 15.995 15.995l85.716-11.852c2.54-.351 5.101-.527 7.665-.527h131.215c2.564 0 5.125.176 7.665.527l85.716 11.852c9.315 1.288 17.283-6.679 15.995-15.995z" fill="#e21f2d"/><path d="m201.851 334.132c34.541-23.839 77.221-40.184 124.138-46.651 2.88-.397 5.209-2.545 5.869-5.376l21.856-93.817c1.117-4.794-2.898-9.228-7.78-8.595-2.27.294-4.543.611-6.82.953-74.575 11.185-139.025 45.104-184.687 91.812-2.436 2.492-2.685 6.391-.589 9.175l38.355 50.957c2.28 3.032 6.536 3.697 9.658 1.542z" fill="#fdb143"/><path d="m345.933 179.694c-1.378.179-2.759.383-4.139.578l-25.316 108.669c3.15-.53 6.32-1.02 9.511-1.46 2.88-.397 5.209-2.545 5.869-5.376l21.856-93.817c1.116-4.793-2.899-9.227-7.781-8.594z" fill="#fa9801"/><ellipse cx="186.378" cy="446.551" fill="#f9c301" rx="48.535" ry="62.638" transform="matrix(.802 -.597 .597 .802 -229.751 199.609)"/><path d="m166.911 388.999c11.263 4.736 22.064 13.064 30.57 24.493 20.655 27.751 19.967 63.222-1.536 79.227-5.331 3.968-11.442 6.362-17.931 7.303 16.086 6.764 33.117 6.191 45.764-3.223 21.503-16.004 22.191-51.476 1.536-79.227-15.535-20.871-38.716-31.428-58.403-28.573z" fill="#e6b700"/><path d="m78.732 136.279c.569 4.107 4.363 6.967 8.462 6.406 4.106-.568 6.973-4.356 6.406-8.462l-5.15-37.238c-.289-2.091.401-4.147 1.894-5.64 1.494-1.493 3.551-2.187 5.64-1.894l87.917 12.155c2.868.398 5.793.599 8.695.599h126.809c2.901 0 5.826-.201 8.693-.598l87.918-12.156c2.087-.292 4.147.401 5.64 1.894s2.183 3.549 1.894 5.64l-10.867 78.594c-.396 2.87-.597 5.794-.597 8.691v131.601c0 4.145 3.359 7.504 7.504 7.504s7.504-3.359 7.504-7.504v-131.601c0-2.213.153-4.447.456-6.637l10.867-78.592c.938-6.789-1.302-13.462-6.149-18.308-4.846-4.846-11.516-7.083-18.308-6.149l-31.452 4.349c-1.803-23.317-14.14-42.181-32.894-49.308-11.457-4.352-23.824-3.739-35.436.822-1.851-2.258-3.811-4.447-5.888-6.525-3.416-3.417-7.11-6.555-10.979-9.326-3.366-2.413-8.056-1.641-10.469 1.73-2.413 3.369-1.64 8.056 1.73 10.469 3.204 2.296 6.267 4.899 9.105 7.739 1.045 1.045 2.047 2.129 3.025 3.23-12.033 8.491-22.281 21.452-28.388 37.522-1.483 3.904-2.68 7.89-3.588 11.91h-33.929c-17.292-21.057-19.685-48.069-5.117-62.635 7.402-7.403 18.271-10.669 30.601-9.204 4.126.49 7.849-2.45 8.338-6.564.49-4.115-2.45-7.849-6.564-8.338-17.002-2.03-32.264 2.77-42.988 13.494-17.76 17.759-18.188 47.835-2.64 73.248h-15.379l-31.502-47.547c-3.646-5.505-9.508-9.002-16.082-9.596-6.624-.598-13.078 1.819-17.703 6.634-2.398 2.497-4.579 5.234-6.481 8.137-6.274 9.573-9.451 20.952-9.301 32.792l-21.941-3.034c-6.789-.932-13.461 1.302-18.308 6.149-4.845 4.846-7.087 11.519-6.149 18.308zm207.61-55.66c10.8-28.42 36.791-45.002 57.941-36.964 13.438 5.107 22.213 19.421 23.329 37.338l-41.571 5.748c-2.189.303-4.421.456-6.636.456h-35.196c.611-2.212 1.31-4.411 2.133-6.578zm-144.509-27.567c1.395-2.129 2.995-4.137 4.753-5.967 1.451-1.512 3.459-2.273 5.529-2.083 1.181.107 3.391.63 4.921 2.938l25.382 38.311-47.363-6.549c-.616-9.745 1.682-18.872 6.778-26.65z"/><path d="m427.55 383.598c-.303-2.191-.456-4.424-.456-6.638v-27.034c0-4.145-3.359-7.504-7.504-7.504s-7.504 3.359-7.504 7.504v27.034c0 2.899.201 5.823.597 8.693l10.867 78.593c.289 2.091-.401 4.147-1.894 5.64-1.492 1.492-3.544 2.188-5.64 1.894l-85.717-11.852c-2.874-.397-5.798-.598-8.692-.598h-73.832c-.241-15.323-5.682-31.781-16.441-46.238v-.001c-23.093-31.024-62.048-41.256-86.834-22.808-12.303 9.157-19.264 23.747-19.6 41.083-.229 11.806 2.681 23.939 8.313 35.266l-37.228 5.148c-2.088.29-4.146-.401-5.64-1.894-1.493-1.493-2.183-3.549-1.894-5.64l10.867-78.594c.397-2.874.598-5.798.598-8.692v-192.69c0-2.893-.201-5.818-.598-8.692l-1.134-8.208c-.569-4.107-4.353-6.969-8.462-6.407-4.105.568-6.972 4.356-6.406 8.462l1.134 8.206c.304 2.197.457 4.431.457 6.639v192.69c0 2.209-.153 4.443-.457 6.637l-10.867 78.593c-.938 6.789 1.303 13.461 6.149 18.308 4.121 4.121 9.563 6.358 15.274 6.358 1.005 0 2.019-.069 3.034-.209l43.826-6.06c15.29 20.196 37.325 31.413 57.629 31.413 10.429 0 20.404-2.961 28.762-9.182 9.34-6.951 15.352-16.999 17.989-28.481h75.361c2.209 0 4.443.153 6.637.457l85.716 11.852c1.016.14 2.028.209 3.034.209 5.711 0 11.153-2.238 15.274-6.358 4.846-4.845 7.087-11.519 6.149-18.308zm-208.252 107.181c-18.148 13.51-47.684 4.659-65.834-19.73-9.002-12.093-13.817-26.083-13.559-39.392.244-12.592 5.058-23.01 13.556-29.334 5.762-4.289 12.668-6.324 19.997-6.324 15.754 0 33.448 9.409 45.836 26.053 18.151 24.388 18.152 55.219.004 68.727z"/><path d="m344.969 172.253c-2.359.305-4.704.633-6.969.973-73.341 11-140.441 44.378-188.94 93.987-5.065 5.181-5.577 13.145-1.217 18.935l38.355 50.956c2.856 3.795 7.197 5.805 11.614 5.805 2.865 0 5.761-.846 8.302-2.6 34.029-23.485 75.836-39.181 120.9-45.393 5.911-.814 10.795-5.278 12.153-11.107l21.856-93.818c1.082-4.645-.183-9.53-3.383-13.068-3.203-3.538-7.937-5.285-12.671-4.67zm-20.348 107.843c-47.099 6.543-90.896 23.008-126.698 47.631l-37.86-50.299c46.206-47.133 110.172-78.862 180.165-89.359 1.962-.295 3.987-.579 6.03-.848z"/><path d="m285.762 236.345c-6.727 1.558-13.533 3.475-20.229 5.698-3.933 1.305-6.063 5.553-4.757 9.487 1.045 3.148 3.976 5.141 7.121 5.141.784 0 1.581-.124 2.366-.384 6.256-2.077 12.61-3.867 18.886-5.321 4.037-.935 6.552-4.967 5.617-9.004s-4.968-6.55-9.004-5.617z"/><path d="m237.512 253.352c-29.835 14.234-47.727 29.946-48.473 30.608-3.102 2.749-3.389 7.491-.64 10.593 1.483 1.674 3.546 2.528 5.619 2.528 1.769 0 3.545-.622 4.973-1.888.167-.148 17.035-14.962 44.983-28.294 3.74-1.785 5.326-6.264 3.542-10.004-1.785-3.743-6.266-5.327-10.004-3.543z"/></svg>