<svg height="512pt" viewBox="-23 0 512 512" width="512pt" xmlns="http://www.w3.org/2000/svg"><path d="m146.222656 445.675781 21.714844-16.160156c6.003906-4.46875 9.539062-11.507813 9.539062-18.988281v-.308594c0-7.769531-3.640624-15.023438-9.824218-19.625-9.164063-6.820312-21.429688-15.949219-21.429688-15.949219l19.492188-14.511719c7.402344-5.507812 11.765625-14.195312 11.765625-23.421874v-93.609376h-90.535157v242.035157c0 14.835937 12.027344 26.863281 26.863282 26.863281h36.808594c26.863281 0 26.863281-28.394531 26.863281-28.394531 0-9.226563-4.363281-17.910157-11.765625-23.417969zm0 0" fill="#d8d7da"/><path d="m86.945312 358.101562c35.304688-17.488281 68.847657-27.207031 90.53125-32.253906v-82.746094h-90.53125zm0 0" fill="#c6c5ca"/><path d="m307.757812 102.480469-62.917968 25.328125c-39.933594 16.078125-59.273438 61.484375-43.199219 101.417968l52.679687 130.851563c9.640626 23.953125 36.875 35.550781 60.824219 25.910156l120.800781-48.632812c23.953126-9.640625 35.550782-36.875 25.910157-60.824219l-52.679688-130.851562c-16.078125-39.933594-61.484375-59.273438-101.417969-43.199219zm1.863282 95.433593c-15.945313 6.417969-34.078125-1.304687-40.496094-17.25-6.417969-15.941406 1.304688-34.074218 17.25-40.492187s34.074219 1.304687 40.492188 17.246094c6.421874 15.945312-1.300782 34.078125-17.246094 40.496093zm0 0" fill="#acabb1"/><g fill="#898890"><path d="m304.980469 199.378906c-14.679688 3.394532-30.050781-4.296875-35.855469-18.714844-6.417969-15.941406 1.304688-34.074218 17.25-40.492187 1.207031-.488281 2.425781-.890625 3.652344-1.21875-3.449219-9.203125-7.113282-17.621094-10.648438-25.046875l-34.539062 13.90625c-39.933594 16.074219-59.273438 61.480469-43.199219 101.417969l45.632813 113.347656c52.429687-42.421875 63.003906-95.730469 57.707031-143.199219zm0 0"/><path d="m415.289062 307.035156-106.257812 42.777344c-10.902344 4.386719-23.414062-.941406-27.804688-11.84375-4.386718-10.902344.941407-23.414062 11.84375-27.800781l106.257813-42.777344c10.902344-4.390625 23.414063.941406 27.800781 11.839844 4.390625 10.902343-.9375 23.414062-11.839844 27.804687zm0 0"/><path d="m389.855469 243.859375-106.257813 42.777344c-10.902344 4.386719-23.414062-.941407-27.800781-11.84375-4.390625-10.902344.9375-23.414063 11.839844-27.800781l106.257812-42.777344c10.902344-4.390625 23.414063.9375 27.804688 11.839844 4.386719 10.902343-.941407 23.414062-11.84375 27.804687zm0 0"/></g><path d="m267.636719 246.992188c-10.902344 4.386718-16.230469 16.898437-11.839844 27.800781 4.386719 10.902343 16.898437 16.230469 27.800781 11.84375l10.476563-4.21875c7.191406-16.742188 10.777343-33.90625 11.808593-50.824219zm0 0" fill="#7a797f"/><path d="m286.375 140.171875c-4.6875 1.886719-8.644531 4.800781-11.757812 8.359375-15.410157 18.238281-33.332032 30.949219-59.628907 33.621094v42.699218c49.355469 0 91.355469-31.988281 106.441407-76.308593-8.472657-9.683594-22.445313-13.449219-35.054688-8.371094zm0 0" fill="#d8d7da"/><path d="m167.542969 80.242188h-70.664063c-53.503906 0-96.878906 43.375-96.878906 96.878906v61.257812c0 35.601563 28.859375 64.460938 64.460938 64.460938h135.5c35.601562 0 64.460937-28.863282 64.460937-64.460938v-61.257812c0-53.503906-43.375-96.878906-96.878906-96.878906zm2.992187 81.203124h-76.648437c-11.785157 0-21.339844-9.554687-21.339844-21.339843 0-11.785157 9.554687-21.339844 21.339844-21.339844h76.648437c11.785156 0 21.339844 9.554687 21.339844 21.339844 0 11.785156-9.554688 21.339843-21.339844 21.339843zm0 0" fill="#7ac1dd"/><path d="m214.988281 42.703125c38.226563 0 69.351563 30.921875 69.707031 69.0625l23.0625-9.285156c6.128907-2.464844 12.378907-4.089844 18.636719-4.941407-7.3125-54.976562-54.464843-97.539062-111.40625-97.539062-61.992187 0-112.425781 50.433594-112.425781 112.425781 0 17.519531 4.03125 34.113281 11.210938 48.910157h51.582031c-12.414063-12.597657-20.089844-29.871094-20.089844-48.910157-.003906-38.445312 31.277344-69.722656 69.722656-69.722656zm0 0" fill="#d8d7da"/><path d="m215.300781 234.710938c-4.265625 0-7.726562-3.457032-7.726562-7.726563v-12.824219c0-4.269531 3.460937-7.726562 7.726562-7.726562 4.269531 0 7.726563 3.457031 7.726563 7.726562v12.824219c0 4.269531-3.457032 7.726563-7.726563 7.726563zm0 0" fill="#57565c"/><path d="m49.121094 234.710938c-4.269532 0-7.726563-3.457032-7.726563-7.726563v-12.824219c0-4.269531 3.457031-7.726562 7.726563-7.726562 4.265625 0 7.726562 3.457031 7.726562 7.726562v12.824219c0 4.269531-3.460937 7.726563-7.726562 7.726563zm0 0" fill="#57565c"/><path d="m132.210938 242.800781c-10 0-20-3.234375-28.34375-9.707031-3.371094-2.613281-3.984376-7.46875-1.371094-10.839844 2.617187-3.375 7.46875-3.988281 10.839844-1.371094 11.113281 8.621094 26.636718 8.621094 37.75 0 3.367187-2.617187 8.222656-2.003906 10.839843 1.371094 2.613281 3.371094 2 8.222656-1.371093 10.839844-8.34375 6.472656-18.34375 9.707031-28.34375 9.707031zm0 0" fill="#57565c"/></svg>