<?xml version="1.0" encoding="iso-8859-1"?>
<!-- Generator: Adobe Illustrator 19.0.0, SVG Export Plug-In . SVG Version: 6.00 Build 0)  -->
<svg version="1.1" id="Capa_1" xmlns="http://www.w3.org/2000/svg" xmlns:xlink="http://www.w3.org/1999/xlink" x="0px" y="0px"
	 viewBox="0 0 480 480" style="enable-background:new 0 0 480 480;" xml:space="preserve">
<path style="fill:#87CEE9;" d="M440,344c-4.418,0-8-3.582-8-8c0-13.255-10.745-24-24-24c-4.418,0-8-3.582-8-8s3.582-8,8-8
	c13.255,0,24-10.745,24-24c0-4.418,3.582-8,8-8s8,3.582,8,8c0,13.255,10.745,24,24,24c4.418,0,8,3.582,8,8s-3.582,8-8,8
	c-13.255,0-24,10.745-24,24C448,340.418,444.418,344,440,344z M432,304c3.031,2.276,5.724,4.969,8,8c2.276-3.031,4.969-5.724,8-8
	c-3.031-2.276-5.724-4.969-8-8C437.724,299.031,435.031,301.724,432,304z"/>
<path style="fill:#32B1CC;" d="M360,408c-4.418,0-8-3.582-8-8c0-13.255-10.745-24-24-24c-4.418,0-8-3.582-8-8s3.582-8,8-8
	c13.255,0,24-10.745,24-24c0-4.418,3.582-8,8-8s8,3.582,8,8c0,13.255,10.745,24,24,24c4.418,0,8,3.582,8,8s-3.582,8-8,8
	c-13.255,0-24,10.745-24,24C368,404.418,364.418,408,360,408z M352,368c3.031,2.276,5.724,4.969,8,8c2.276-3.031,4.969-5.724,8-8
	c-3.031-2.276-5.724-4.969-8-8C357.724,363.031,355.031,365.724,352,368z"/>
<path d="M120,160c-4.418,0-8-3.582-8-8c0-13.255-10.745-24-24-24c-4.418,0-8-3.582-8-8s3.582-8,8-8c13.255,0,24-10.745,24-24
	c0-4.418,3.582-8,8-8s8,3.582,8,8c0,13.255,10.745,24,24,24c4.418,0,8,3.582,8,8s-3.582,8-8,8c-13.255,0-24,10.745-24,24
	C128,156.418,124.418,160,120,160z M112,120c3.031,2.276,5.724,4.969,8,8c2.276-3.031,4.969-5.724,8-8c-3.031-2.276-5.724-4.969-8-8
	C117.724,115.031,115.031,117.724,112,120z"/>
<g>
	<path style="fill:#87CEE9;" d="M40,224c-4.418,0-8-3.582-8-8c0-13.255-10.745-24-24-24c-4.418,0-8-3.582-8-8s3.582-8,8-8
		c13.255,0,24-10.745,24-24c0-4.418,3.582-8,8-8s8,3.582,8,8c0,13.255,10.745,24,24,24c4.418,0,8,3.582,8,8s-3.582,8-8,8
		c-13.255,0-24,10.745-24,24C48,220.418,44.418,224,40,224z M32,184c3.031,2.276,5.724,4.969,8,8c2.276-3.031,4.969-5.724,8-8
		c-3.031-2.276-5.724-4.969-8-8C37.724,179.031,35.031,181.724,32,184z"/>
	<path style="fill:#87CEE9;" d="M72,56h336v368H72V56z"/>
</g>
<g>
	<path style="fill:#32B1CC;" d="M264,136c-4.418-0.001-7.999-3.583-7.998-8.002c0-2.121,0.843-4.155,2.342-5.654l72-72
		c3.178-3.069,8.242-2.982,11.312,0.196c2.994,3.1,2.994,8.015,0,11.116l-72,72C268.156,135.156,266.122,136,264,136L264,136z"/>
	<path style="fill:#32B1CC;" d="M264,184c-4.418-0.001-7.999-3.583-7.998-8.002c0-2.121,0.843-4.155,2.342-5.654l120-120
		c3.178-3.069,8.242-2.982,11.312,0.196c2.994,3.1,2.994,8.015,0,11.116l-120,120C268.156,183.156,266.122,184,264,184L264,184z"/>
	<path style="fill:#32B1CC;" d="M216,432c-4.418-0.001-7.999-3.583-7.998-8.002c0-2.121,0.843-4.154,2.342-5.654l72-72
		c3.178-3.07,8.242-2.982,11.312,0.196c2.995,3.1,2.995,8.016,0,11.116l-72,72C220.156,431.156,218.122,432,216,432z"/>
	<path style="fill:#32B1CC;" d="M168,432c-4.418-0.001-7.999-3.583-7.998-8.002c0-2.121,0.843-4.154,2.342-5.654l120-120
		c3.178-3.07,8.242-2.982,11.312,0.196c2.995,3.1,2.995,8.016,0,11.116l-120,120C172.156,431.156,170.122,432,168,432z"/>
</g>
<path d="M472,296c-13.255,0-24-10.745-24-24c0-4.418-3.582-8-8-8s-8,3.582-8,8c-0.042,10.134-6.445,19.15-16,22.528V56
	c0-4.418-3.582-8-8-8H72c-4.418,0-8,3.582-8,8v118.528C54.445,171.15,48.042,162.134,48,152c0-4.418-3.582-8-8-8s-8,3.582-8,8
	c0,13.255-10.745,24-24,24c-4.418,0-8,3.582-8,8s3.582,8,8,8c13.255,0,24,10.745,24,24c0,4.418,3.582,8,8,8s8-3.582,8-8
	c0.042-10.134,6.445-19.15,16-22.528V424c0,4.418,3.582,8,8,8h336c4.418,0,8-3.582,8-8V313.472c9.555,3.378,15.958,12.394,16,22.528
	c0,4.418,3.582,8,8,8s8-3.582,8-8c0-13.255,10.745-24,24-24c4.418,0,8-3.582,8-8S476.418,296,472,296z M40,192
	c-2.276-3.031-4.969-5.724-8-8c3.031-2.276,5.724-4.969,8-8c2.276,3.031,4.969,5.724,8,8C44.969,186.276,42.276,188.969,40,192z
	 M400,368v48H235.312l58.344-58.344c3.07-3.178,2.982-8.242-0.196-11.312c-3.1-2.995-8.016-2.995-11.116,0L212.688,416h-25.376
	l106.344-106.344c3.07-3.178,2.982-8.242-0.196-11.312c-3.1-2.995-8.016-2.995-11.116,0L164.688,416H80V64h236.688l-58.344,58.344
	c-3.178,3.07-3.266,8.134-0.196,11.312c3.07,3.178,8.134,3.266,11.312,0.196c0.067-0.064,0.132-0.13,0.196-0.196L339.312,64h25.376
	L258.344,170.344c-3.178,3.069-3.266,8.134-0.196,11.312c3.07,3.178,8.134,3.266,11.312,0.196c0.067-0.064,0.132-0.13,0.196-0.196
	L387.312,64H400V368z M440,312c-2.276-3.031-4.969-5.724-8-8c3.031-2.276,5.724-4.969,8-8c2.276,3.031,4.969,5.724,8,8
	C444.969,306.276,442.276,308.969,440,312z"/>
<path d="M392,360c-13.255,0-24-10.745-24-24c0-4.418-3.582-8-8-8s-8,3.582-8,8c0,13.255-10.745,24-24,24c-4.418,0-8,3.582-8,8
	s3.582,8,8,8c13.255,0,24,10.745,24,24c0,4.418,3.582,8,8,8s8-3.582,8-8c0-13.255,10.745-24,24-24c4.418,0,8-3.582,8-8
	S396.418,360,392,360z M360,376c-2.276-3.031-4.969-5.724-8-8c3.031-2.276,5.724-4.969,8-8c2.276,3.031,4.969,5.724,8,8
	C364.969,370.276,362.276,372.969,360,376z"/>
<path d="M88,128c13.255,0,24,10.745,24,24c0,4.418,3.582,8,8,8s8-3.582,8-8c0-13.255,10.745-24,24-24c4.418,0,8-3.582,8-8
	s-3.582-8-8-8c-13.255,0-24-10.745-24-24c0-4.418-3.582-8-8-8s-8,3.582-8,8c0,13.255-10.745,24-24,24c-4.418,0-8,3.582-8,8
	S83.582,128,88,128z M120,112c2.276,3.031,4.969,5.724,8,8c-3.031,2.276-5.724,4.969-8,8c-2.276-3.031-4.969-5.724-8-8
	C115.031,117.724,117.724,115.031,120,112z"/>
<g>
</g>
<g>
</g>
<g>
</g>
<g>
</g>
<g>
</g>
<g>
</g>
<g>
</g>
<g>
</g>
<g>
</g>
<g>
</g>
<g>
</g>
<g>
</g>
<g>
</g>
<g>
</g>
<g>
</g>
</svg>
