<svg id="Capa_1" enable-background="new 0 0 512 512" height="512" viewBox="0 0 512 512" width="512" xmlns="http://www.w3.org/2000/svg"><g><g><path d="m425.707 72.15h-371.74l-21.132 411.11c-.594 11.55 8.611 21.24 20.177 21.24h372.695z" fill="#efcb84"/></g><g><path d="m393.381 72.15-21.131 411.11c-.594 11.55 8.611 21.24 20.177 21.24h33.28v-432.35z" fill="#ecc373"/></g><g><path d="m458.032 72.15h-32.325l-21.132 411.11c-.594 11.55 8.611 21.24 20.177 21.24h34.236c11.565 0 20.77-9.69 20.177-21.24z" fill="#dab46b"/></g><g><path d="m415.707 72.15v-54.548c0-5.579 4.523-10.102 10.102-10.102h-298.1-73.64c-5.579 0-10.102 4.523-10.102 10.102v54.548c0 5.579 4.523 10.102 10.102 10.102h371.74c-5.58 0-10.102-4.523-10.102-10.102z" fill="#f4ddb1"/></g><g><path d="m415.707 72.15v-54.548c0-5.579 4.523-10.102 10.102-10.102h-298.1-73.64c-5.579 0-10.102 4.523-10.102 10.102v54.548c0 5.579 4.523 10.102 10.102 10.102h371.74c-5.58 0-10.102-4.523-10.102-10.102z" fill="#f4ddb1"/></g><g><path d="m415.707 72.15v-54.548c0-5.579 4.523-10.102 10.102-10.102h-32.325c-5.579 0-10.102 4.523-10.102 10.102v54.548c0 5.579 4.523 10.102 10.102 10.102h32.325c-5.58 0-10.102-4.523-10.102-10.102z" fill="#f1d59d"/></g><g><path d="m457.93 82.252h-32.122c-5.579 0-10.102-4.523-10.102-10.102v-54.548c0-5.579 4.523-10.102 10.102-10.102h32.122c5.579 0 10.102 4.523 10.102 10.102v54.548c0 5.579-4.523 10.102-10.102 10.102z" fill="#efcb84"/></g><g><g><circle cx="231.755" cy="246.909" fill="#ffe07d" r="121.22"/></g><g><path d="m304.344 149.818c15.153 20.235 24.129 45.364 24.129 72.589 0 66.948-54.272 121.219-121.219 121.219-27.225 0-52.354-8.976-72.589-24.129 22.109 29.524 57.368 48.631 97.091 48.631 66.948 0 121.22-54.272 121.22-121.22-.001-39.722-19.108-74.981-48.632-97.09z" fill="#ffd064"/></g><g><g><path d="m231.755 168.116s-19.289 23.109-19.289 54.92c0 5.083.496 10.009 1.324 14.703-1.914-2.5-4.013-4.944-6.338-7.268-20.564-20.564-48.433-22.571-48.433-22.571s2.008 27.869 22.571 48.433c3.912 3.912 8.152 7.212 12.452 9.996-1.399-.104-2.817-.16-4.253-.16-23.177 0-40.013 14.467-40.013 14.467s16.836 14.467 40.013 14.467c2.739 0 5.414-.208 8.007-.564-5.258 10.308-3.012 23.068-3.012 23.068s16.07.808 26.522-9.644c5.551-5.551 8.841-13.054 10.448-17.682 1.607 4.627 4.897 12.131 10.448 17.682 10.452 10.452 26.522 9.644 26.522 9.644s2.246-12.759-3.012-23.068c2.593.356 5.267.564 8.007.564 23.177 0 40.013-14.467 40.013-14.467s-16.836-14.467-40.013-14.467c-1.436 0-2.854.056-4.253.16 4.3-2.784 8.54-6.084 12.452-9.996 20.564-20.564 22.571-48.433 22.571-48.433s-27.869 2.008-48.433 22.571c-2.325 2.325-4.424 4.768-6.338 7.268.827-4.694 1.324-9.62 1.324-14.703.002-31.811-19.287-54.92-19.287-54.92z" fill="#b3e59f"/></g></g></g><g><path d="m140.841 411.565h181.829v32.325h-181.829z" fill="#4a80aa"/></g><g><path d="m486.65 482.875-14.44-280.96c-.213-4.137-3.754-7.323-7.875-7.105-4.137.213-7.318 3.738-7.105 7.875l14.44 280.964c.183 3.509-1.05 6.846-3.471 9.396-2.422 2.551-5.692 3.956-9.209 3.956h-9.621v-88.465c0-4.142-3.357-7.5-7.5-7.5s-7.5 3.358-7.5 7.5v88.464h-9.619c-3.515 0-6.785-1.404-9.209-3.955s-3.66-5.891-3.48-9.4l20.254-393.893h19.111l4.004 77.973c.206 4.006 3.518 7.115 7.484 7.115.129 0 .26-.003.391-.01 4.137-.212 7.317-3.738 7.105-7.875l-4.074-79.344c5.474-2.988 9.196-8.797 9.196-15.46v-54.549c0-9.706-7.896-17.602-17.602-17.602h-403.861c-9.706 0-17.602 7.896-17.602 17.602v54.548c0 6.663 3.723 12.473 9.197 15.461l-16.634 323.594c-.212 4.137 2.969 7.663 7.105 7.875.131.007.262.01.392.01 3.965 0 7.278-3.11 7.484-7.115l16.562-322.223h356.721l-20.214 393.125c-.255 4.994.809 9.823 3.04 14.123h-347.11c-3.516 0-6.787-1.405-9.209-3.956-2.42-2.55-3.653-5.886-3.471-9.398l1.89-36.71c.213-4.137-2.968-7.663-7.104-7.876-4.138-.22-7.663 2.968-7.876 7.104l-1.89 36.707c-.398 7.658 2.292 14.938 7.573 20.5 5.282 5.565 12.416 8.629 20.087 8.629h405.98c7.671 0 14.805-3.064 20.087-8.628 5.281-5.562 7.971-12.843 7.573-20.497zm-26.118-465.273v54.548c0 1.435-1.167 2.602-2.602 2.602h-32.122c-1.435 0-2.602-1.167-2.602-2.602v-54.548c0-1.435 1.167-2.602 2.602-2.602h32.122c1.435 0 2.602 1.167 2.602 2.602zm-409.065 0c0-1.435 1.167-2.602 2.602-2.602h354.352c-.127.851-.214 1.715-.214 2.602v54.548c0 .886.087 1.75.214 2.602h-354.352c-1.435 0-2.602-1.167-2.602-2.602z"/><path d="m125.336 188.34c-3.744-1.773-8.216-.171-9.986 3.573-8.168 17.271-12.31 35.775-12.31 54.997 0 70.976 57.744 128.72 128.72 128.72 70.977 0 128.721-57.744 128.721-128.72 0-70.977-57.744-128.72-128.721-128.72-36.533 0-71.479 15.612-95.875 42.834-2.764 3.084-2.505 7.826.58 10.591 3.083 2.763 7.825 2.505 10.591-.58 21.555-24.051 52.428-37.845 84.704-37.845 62.706 0 113.721 51.015 113.721 113.72s-51.015 113.72-113.721 113.72c-62.705 0-113.72-51.015-113.72-113.72 0-16.986 3.657-33.333 10.87-48.583 1.77-3.745.171-8.216-3.574-9.987z"/><path d="m142.277 280.635c0 2.186.954 4.264 2.612 5.688.75.645 18.127 15.339 42.57 16.235-1.371 8.254-.25 15.271-.061 16.348.606 3.446 3.515 6.014 7.01 6.19.744.033 17.342.733 29.847-9.685v10.29c0 4.142 3.358 7.5 7.5 7.5s7.5-3.358 7.5-7.5v-10.293c10.808 9.006 24.673 9.711 28.718 9.71.635 0 1.028-.017 1.129-.022 3.495-.176 6.404-2.745 7.011-6.19.189-1.076 1.309-8.094-.062-16.347 24.443-.896 41.819-15.591 42.569-16.235 1.658-1.425 2.612-3.502 2.612-5.688s-.954-4.264-2.612-5.688c-.615-.529-12.429-10.52-30.155-14.582 21.129-22.124 23.418-50.698 23.506-51.926.156-2.171-.638-4.303-2.177-5.842s-3.657-2.337-5.843-2.177c-1.112.08-24.66 1.963-45.529 18.021-1.673-31.726-20.09-54.149-20.91-55.131-1.425-1.707-3.534-2.694-5.758-2.694s-4.333.987-5.758 2.694c-.82.982-19.236 23.405-20.909 55.131-20.869-16.058-44.417-17.941-45.53-18.021-2.173-.158-4.303.638-5.842 2.177s-2.334 3.671-2.177 5.842c.088 1.229 2.376 29.803 23.506 51.926-17.727 4.062-29.541 14.053-30.156 14.582-1.657 1.423-2.611 3.501-2.611 5.687zm51.208-6.827c3.42.259 6.574-1.838 7.667-5.087s-.155-6.825-3.032-8.688c-4.181-2.708-7.958-5.737-11.226-9.004-11.083-11.083-16.221-24.744-18.55-33.805 9.065 2.331 22.725 7.469 33.805 18.55 1.957 1.958 3.87 4.152 5.685 6.523 2.101 2.745 5.806 3.698 8.972 2.308 3.165-1.39 4.97-4.764 4.37-8.168-.803-4.555-1.209-9.064-1.209-13.402 0-17.685 6.67-32.615 11.789-41.466 5.119 8.851 11.789 23.781 11.789 41.466 0 4.338-.407 8.847-1.209 13.402-.6 3.404 1.205 6.778 4.37 8.168 3.164 1.391 6.87.438 8.972-2.308 1.815-2.371 3.728-4.566 5.686-6.523 11.082-11.083 24.743-16.221 33.804-18.55-2.33 9.065-7.469 22.725-18.55 33.805-3.268 3.268-7.045 6.298-11.225 9.004-2.877 1.863-4.125 5.439-3.032 8.688 1.094 3.249 4.255 5.344 7.667 5.087 12.24-.917 23.001 3.1 30.049 6.847-6.299 3.356-15.56 6.947-26.354 6.947-2.25 0-4.601-.166-6.985-.494-2.772-.382-5.518.809-7.135 3.085-1.618 2.277-1.837 5.265-.567 7.753 1.907 3.738 2.525 8.054 2.647 11.561-4.35-.803-9.969-2.645-14.174-6.849-4.682-4.683-7.44-11.307-8.667-14.839-1.048-3.017-3.892-5.039-7.085-5.039s-6.037 2.022-7.085 5.039c-1.227 3.532-3.984 10.158-8.666 14.839-4.207 4.206-9.828 6.048-14.173 6.851.122-3.51.74-7.825 2.647-11.563 1.269-2.488 1.05-5.476-.568-7.752-1.418-1.996-3.706-3.155-6.112-3.155-.339 0-.681.023-1.023.07-2.384.328-4.734.494-6.985.494-10.721 0-20.021-3.62-26.354-6.987 7.003-3.734 17.72-7.731 30.047-6.808z"/><path d="m140.841 404.065c-4.142 0-7.5 3.358-7.5 7.5v32.325c0 4.142 3.358 7.5 7.5 7.5h181.829c4.143 0 7.5-3.358 7.5-7.5v-32.325c0-4.142-3.357-7.5-7.5-7.5zm174.329 32.325h-166.829v-17.325h166.829z"/></g></g></svg>