<svg id="Layer_1" enable-background="new 0 0 512.095 512.095" height="512" viewBox="0 0 512.095 512.095" width="512" xmlns="http://www.w3.org/2000/svg"><g><g><g><ellipse cx="341.922" cy="370.365" fill="#70e07a" rx="134.206" ry="134.121"/><path d="m341.922 236.244c-6.797 0-13.474.51-20 1.484 64.633 9.652 114.206 65.357 114.206 132.637s-49.573 122.985-114.206 132.637c6.526.975 13.203 1.484 20 1.484 74.12 0 134.206-60.048 134.206-134.121s-60.086-134.121-134.206-134.121z" fill="#56d661"/><g><g><path d="m430.264 410.622c-16.678-13.914-39.479-16.139-60.282-13.516 21.462-14.69 41.116-33.804 46.134-60.454-24.512 4.284-46.784 21.956-61.4 41.464 5.712-29.789 6.548-62.11-12.58-87.653-19.15 25.572-18.295 57.94-12.56 87.757-14.581-19.492-36.698-37.997-61.478-41.569 4.934 26.724 24.767 45.848 46.22 60.512-20.899-2.701-43.982-.605-60.737 13.457 18.259 13.112 43.594 15.363 64.765 9.44-5.868 15.21-3.378 26.51-3.378 26.51 11.572-2.645 21.176-9.866 27.139-20.184 5.658 9.791 14.538 17.323 25.525 20.184 0 0 3.86-10.738-1.733-26.51 20.979 5.996 46.314 3.637 64.365-9.438z" fill="#f5f5f5"/></g></g></g><g><g><path d="m390.971 162.745-292.94 324.198c-7 7.011-19.346 7.395-32.903 1.637-8.146-3.46-43.464 24.341-54.823 13.297-11.312-10.997 16.178-45.855 12.414-53.705-6.263-13.064-6.266-25.042.734-32.053l324.507-294.219 43.011-4.048z" fill="#ab7c5e"/><g><path d="m360.683 120.702 8.76 21.6-316.016 349.006c5.23-2.287 9.479-3.672 11.701-2.728 13.557 5.759 25.903 5.374 32.903-1.636l292.94-324.198v-44.894z" fill="#a17152"/></g><g><path d="m484.986 10.258 16.433 15.606c3.963 3.764 4.202 9.999.538 14.054l-110.986 122.827-43.011-40.845 123.309-111.8c3.909-3.545 9.891-3.476 13.717.158z" fill="#f5f5f5"/></g><path d="m501.418 25.863-14.404-13.679-117.571 130.118 21.527 20.444 110.986-122.829c3.664-4.055 3.426-10.29-.538-14.054z" fill="#ededed"/><path d="m22.719 448.172 10.223 17.58" fill="#ab7c5e"/></g></g></g><g><path d="m246.086 410.904c.087 2.314 1.239 4.458 3.12 5.809 15.742 11.305 37.366 15.992 58.665 13.139-1.854 10.659-.317 17.927-.228 18.333 1.416 4.397 4.414 6.296 8.995 5.698 9.929-2.269 18.676-7.4 25.419-14.785 6.441 7.253 14.591 12.364 23.686 14.731 3.462.902 7.732-1.34 8.947-4.72.365-1.017 2.755-8.235 1.282-19.267 21.251 2.985 42.902-1.71 58.691-13.147 3.994-3.812 4.129-7.757.405-11.833-11.144-9.296-25.574-14.669-42.47-15.928 17.236-15.579 27.398-32.365 30.888-50.894.955-5.066-3.583-9.664-8.661-8.776-16.914 2.957-34.353 12.256-49.388 25.935 1.615-22.082-1.021-47.496-17.299-69.231-2.954-3.945-9.052-3.945-12.006 0-16.247 21.695-18.909 47.052-17.31 69.116-12.113-11.268-29.117-22.894-49.656-25.854-5.821.039-8.636 2.967-8.445 8.785 3.416 18.5 13.566 35.288 30.859 50.902-14.52 1.02-30.031 5.226-42.822 15.96-1.773 1.488-2.76 3.713-2.672 6.027zm67.271-6.301c7.64.995 11.547-9.287 5.193-13.629-20.535-14.038-33.406-28.198-39.649-43.821 11.755 4.285 28.479 13.918 44.669 35.561 4.656 6.225 14.84 1.724 13.371-5.909-5.901-30.684-4.274-54.01 5.195-72.285 9.456 18.253 11.089 41.547 5.214 72.185-1.462 7.629 8.71 12.128 13.368 5.91 12.339-16.468 28.313-28.974 44.431-35.139-6.322 15.517-19.118 29.559-39.403 43.443-6.344 4.341-2.451 14.592 5.175 13.63 13.025-1.643 30.328-1.671 45 5.631-14.097 6.143-31.823 7.283-47.961 2.672-5.757-1.642-11.131 4.074-9.129 9.718 1.872 5.28 2.508 9.824 2.604 13.354-5.125-3.048-9.539-7.585-12.834-13.286-2.837-4.911-10.149-4.911-12.986 0-3.302 5.712-7.927 10.241-13.443 13.264.359-3.629 1.242-8.136 3.172-13.138 2.18-5.65-3.182-11.56-9.018-9.922-16.609 4.646-34.236 3.542-48.418-2.676 14.742-7.355 32.25-7.269 45.449-5.563z"/><path d="m507.521 44.945c6.444-7.131 6.032-17.902-.938-24.521l-16.432-15.604c-6.539-6.212-17.206-6.361-23.92-.277l-45.275 41.049c-7.274 6.595 3.03 17.497 10.077 11.112l45.273-41.048c1.019-.925 2.574-.853 3.515.04l16.433 15.605c1.021.968 1.081 2.544.139 3.587l-105.832 117.124-31.575-29.985 42.687-38.703c7.184-6.514-2.891-17.624-10.076-11.112l-373.182 338.351c-.092.083-.182.169-.27.257-8.988 9.002-9.945 23.782-2.619 39.682-.429 2.624-3.549 9.255-5.66 13.739-7.214 15.332-15.39 32.708-4.791 43.013 3.522 3.424 7.831 4.771 12.586 4.771 9.492 0 20.764-5.366 31.116-10.294 4.666-2.221 11.586-5.516 14.221-5.913 16.358 6.703 31.391 5.386 40.338-3.576.088-.088.174-.179.257-.271l97.295-107.677c3.172 32.712 17.492 63.022 41.122 86.502 6.875 6.829 17.454-3.802 10.573-10.641-24.098-23.944-37.369-55.833-37.369-89.791 0-.652.024-1.307.034-1.963l111.848-123.783c4.9-.569 9.871-.875 14.823-.875 69.866 0 126.706 56.802 126.706 126.622s-56.84 126.621-126.706 126.621c-21.27 0-42.305-5.366-60.829-15.518-8.503-4.663-15.712 8.493-7.209 13.154 20.729 11.359 44.256 17.363 68.038 17.363 78.137 0 141.706-63.531 141.706-141.621s-63.569-141.622-141.706-141.622c-.162 0-.324.008-.486.008zm-414.911 436.811c-4.588 4.44-13.97 4.415-24.549-.079-6.368-2.706-14.071.961-25.729 6.511-6.113 2.91-13.041 6.208-18.76 7.817-7.725 2.175-9.772.775-7.643-7.064 2.065-7.605 5.844-14.69 9.144-21.802l1.386 2.383c4.715 8.108 17.831.823 12.967-7.54l-10.043-17.27c-4.774-10.072-5.049-18.708-.734-23.181l319.193-289.401 32.659 31.015-62.545 69.219c-.051.054-.101.11-.15.166z"/><path d="m321.828 208.451c9.652 0 9.668-15 0-15-9.652 0-9.668 15 0 15z"/><path d="m245.858 243.317c-9.652 0-9.668 15 0 15 9.652 0 9.668-15 0-15z"/><path d="m232.751 286.128c-9.652 0-9.668 15 0 15 9.652 0 9.668-15 0-15z"/><path d="m177.801 309.801c-9.652 0-9.668 15 0 15 9.652 0 9.668-15 0-15z"/><path d="m156.628 368.73c-9.652 0-9.668 15 0 15 9.652 0 9.668-15 0-15z"/><path d="m93.108 398.84c9.652 0 9.668-15 0-15-9.651 0-9.667 15 0 15z"/><path d="m94.621 432.192c-9.652 0-9.668 15 0 15 9.652 0 9.668-15 0-15z"/><path d="m.055 383.205c0 4.142 3.358 7.5 7.5 7.5s7.5-3.358 7.5-7.5c0-11.59 4.079-16.934 9.243-23.7 5.774-7.565 12.319-16.14 12.319-32.8s-6.545-25.235-12.319-32.8c-5.164-6.766-9.243-12.11-9.243-23.7 0-11.587 4.079-16.93 9.243-23.695 5.775-7.564 12.32-16.138 12.32-32.796 0-4.142-3.358-7.5-7.5-7.5s-7.5 3.358-7.5 7.5c0 11.587-4.079 16.93-9.243 23.695-5.775 7.564-12.32 16.138-12.32 32.796 0 16.66 6.545 25.235 12.319 32.8 5.164 6.766 9.243 12.11 9.243 23.699s-4.079 16.934-9.243 23.699c-5.774 7.567-12.319 16.142-12.319 32.802z"/><path d="m39.477 267.638c0 4.142 3.358 7.5 7.5 7.5s7.5-3.358 7.5-7.5c0-11.59 4.079-16.934 9.243-23.7 5.774-7.565 12.319-16.14 12.319-32.8s-6.545-25.235-12.319-32.8c-5.164-6.765-9.243-12.109-9.243-23.699 0-11.587 4.079-16.931 9.243-23.695 5.775-7.564 12.32-16.138 12.32-32.796 0-4.142-3.358-7.5-7.5-7.5s-7.5 3.358-7.5 7.5c0 11.587-4.079 16.93-9.243 23.695-5.774 7.564-12.32 16.138-12.32 32.797 0 16.66 6.545 25.235 12.319 32.8 5.164 6.766 9.243 12.11 9.243 23.699s-4.079 16.934-9.243 23.699c-5.774 7.565-12.319 16.14-12.319 32.8z"/></g></g></svg>