<?xml version="1.0" encoding="iso-8859-1"?>
<!-- Generator: Adobe Illustrator 19.0.0, SVG Export Plug-In . SVG Version: 6.00 Build 0)  -->
<svg version="1.1" id="Layer_1" xmlns="http://www.w3.org/2000/svg" xmlns:xlink="http://www.w3.org/1999/xlink" x="0px" y="0px"
	 viewBox="0 0 512 512" style="enable-background:new 0 0 512 512;" xml:space="preserve">
<path style="fill:#6A82A1;" d="M464.98,436.245H47.02c-25.927,0-47.02-21.093-47.02-47.02V122.776
	c0-25.927,21.093-47.02,47.02-47.02H464.98c25.927,0,47.02,21.093,47.02,47.02v266.449C512,415.152,490.907,436.245,464.98,436.245z
	"/>
<path style="fill:#36495E;" d="M0,255.997v133.228c0,25.927,21.093,47.02,47.02,47.02H464.98c25.927,0,47.02-21.093,47.02-47.02
	V255.997H0z"/>
<path style="fill:#FDD835;" d="M442.746,245.876l-23.582-27.871c-2.978-3.519-7.355-5.549-11.965-5.549H232.177
	c-15.584-28.092-45.029-45.73-77.681-45.73c-49.05,0-88.955,40.048-88.955,89.274s39.905,89.274,88.955,89.274
	c32.653,0,62.098-17.635,77.681-45.73h16.3l11.307,19.668c6.012,10.458,21.153,10.477,27.177,0l7.553-13.137l7.553,13.137
	c6.012,10.458,21.153,10.477,27.177,0l7.553-13.137l7.553,13.137c6.012,10.458,21.153,10.477,27.177,0l11.307-19.668h24.37
	c4.61,0,8.987-2.029,11.965-5.549l23.582-27.871C447.691,260.281,447.691,251.719,442.746,245.876z M154.497,294.471
	c-21.159,0-38.373-17.259-38.373-38.471s17.214-38.471,38.373-38.471s38.373,17.259,38.373,38.471S175.656,294.471,154.497,294.471z
	"/>
<path style="fill:#F9A825;" d="M192.869,255.997V256c0,21.214-17.214,38.471-38.373,38.471S116.125,277.214,116.125,256v-0.003
	H65.542V256c0,49.225,39.905,89.274,88.955,89.274c32.653,0,62.098-17.635,77.681-45.73h16.3l11.307,19.668
	c6.012,10.458,21.154,10.476,27.177,0l7.553-13.137l7.553,13.137c6.012,10.458,21.154,10.476,27.177,0l7.553-13.137l7.553,13.137
	c6.012,10.458,21.154,10.476,27.177,0l11.307-19.668h24.37c4.61,0,8.987-2.029,11.965-5.549l23.582-27.871
	c2.473-2.923,3.709-6.525,3.708-10.128H192.869V255.997z"/>
<g>
</g>
<g>
</g>
<g>
</g>
<g>
</g>
<g>
</g>
<g>
</g>
<g>
</g>
<g>
</g>
<g>
</g>
<g>
</g>
<g>
</g>
<g>
</g>
<g>
</g>
<g>
</g>
<g>
</g>
</svg>
