<?xml version="1.0" encoding="iso-8859-1"?>
<!-- Generator: Adobe Illustrator 19.0.0, SVG Export Plug-In . SVG Version: 6.00 Build 0)  -->
<svg version="1.1" id="Capa_1" xmlns="http://www.w3.org/2000/svg" xmlns:xlink="http://www.w3.org/1999/xlink" x="0px" y="0px"
	 viewBox="0 0 512.001 512.001" style="enable-background:new 0 0 512.001 512.001;" xml:space="preserve">
<path style="fill:#303C42;" d="M424.823,378.948c2.615-4.124,2.318-9.559-1.28-13.156l-24.458-24.458l2.646-2.646
	c16.313-16.292,16.813-42.302,1.104-59.208L146.48,3.407c-1.958-2.125-4.708-3.354-7.625-3.406
	c-3.042,0.042-5.688,1.083-7.729,3.125l-128,128c-2.042,2.052-3.167,4.844-3.125,7.74c0.063,2.896,1.292,5.646,3.417,7.615
	L279.48,402.844c8.229,7.635,18.646,11.438,29.021,11.438c10.917,0,21.833-4.198,30.188-12.542l2.651-2.651l24.453,24.453
	c2.083,2.083,4.813,3.125,7.542,3.125s5.458-1.042,7.542-3.125l3.125-3.125l12.534,12.534
	c-19.602,6.758-33.867,19.112-33.867,37.904c0,27.302,25.125,41.146,74.667,41.146c61.688,0,74.646-30.656,74.667-56.385
	C512.018,414.532,454.69,389.316,424.823,378.948z"/>
<polygon style="fill:#265EAC;" points="349.834,253.751 253.743,349.842 70.282,179.469 179.469,70.283 "/>
<g>
	<polygon style="fill:#00AAE7;" points="138.376,26.032 164.943,54.642 54.64,164.945 26.043,138.386 	"/>
	<path style="fill:#00AAE7;" d="M293.98,387.209l-24.596-22.841l94.975-94.975l22.85,24.608c7.833,8.448,7.604,21.448-0.563,29.594
		l-63.042,63.052C315.501,394.792,302.459,395.053,293.98,387.209z"/>
</g>
<polygon style="opacity:0.1;enable-background:new    ;" points="70.282,179.469 253.743,349.842 268.251,335.334 85.789,163.963 
	"/>
<polygon style="opacity:0.1;enable-background:new    ;" points="26.043,138.386 54.64,164.945 70.233,149.352 41.789,122.637 "/>
<path style="opacity:0.1;enable-background:new    ;" d="M387.209,294.001l-2.16-2.326c-0.435,0.525-0.625,1.167-1.118,1.659
	l-63.042,63.052c-8.104,8.146-21.146,8.406-29.625,0.563l-7.457-7.004l-14.423,14.423l24.596,22.841
	c8.479,7.844,21.521,7.583,29.625-0.563l63.042-63.052C394.814,315.448,395.043,302.448,387.209,294.001z"/>
<g>
	
		<rect x="359.163" y="366.688" transform="matrix(-0.707 0.7072 -0.7072 -0.707 914.1766 378.5776)" style="fill:#DFE1DF;" width="39.019" height="23.915"/>
	<path style="fill:#DFE1DF;" d="M437.334,490.667c-35.396,0-53.333-6.667-53.333-19.813c0-14.844,27.479-22.854,53.333-22.854
		c5.896,0,10.667-4.771,10.667-10.667c0-5.896-4.771-10.667-10.667-10.667c-5.366,0-10.699,0.372-15.965,0.952l-22.285-22.285
		l9.316-9.316c26.473,8.211,82.286,31.32,82.267,59.598C490.647,480.188,474.709,490.667,437.334,490.667z"/>
</g>
<linearGradient id="SVGID_1_" gradientUnits="userSpaceOnUse" x1="-46.5734" y1="640.3721" x2="-20.8755" y2="628.3927" gradientTransform="matrix(21.3333 0 0 -21.3333 996.322 13791.6797)">
	<stop  offset="0" style="stop-color:#FFFFFF;stop-opacity:0.2"/>
	<stop  offset="1" style="stop-color:#FFFFFF;stop-opacity:0"/>
</linearGradient>
<path style="fill:url(#SVGID_1_);" d="M424.823,378.948c2.615-4.124,2.318-9.559-1.28-13.156l-24.458-24.458l2.646-2.646
	c16.313-16.292,16.813-42.302,1.104-59.208L146.48,3.407c-1.958-2.125-4.708-3.354-7.625-3.406
	c-3.042,0.042-5.688,1.083-7.729,3.125l-128,128c-2.042,2.052-3.167,4.844-3.125,7.74c0.063,2.896,1.292,5.646,3.417,7.615
	L279.48,402.844c8.229,7.635,18.646,11.438,29.021,11.438c10.917,0,21.833-4.198,30.188-12.542l2.651-2.651l24.453,24.453
	c2.083,2.083,4.813,3.125,7.542,3.125s5.458-1.042,7.542-3.125l3.125-3.125l12.534,12.534
	c-19.602,6.758-33.867,19.112-33.867,37.904c0,27.302,25.125,41.146,74.667,41.146c61.688,0,74.646-30.656,74.667-56.385
	C512.018,414.532,454.69,389.316,424.823,378.948z"/>
<g>
</g>
<g>
</g>
<g>
</g>
<g>
</g>
<g>
</g>
<g>
</g>
<g>
</g>
<g>
</g>
<g>
</g>
<g>
</g>
<g>
</g>
<g>
</g>
<g>
</g>
<g>
</g>
<g>
</g>
</svg>
