<svg id="Capa_1" enable-background="new 0 0 497 497" height="512" viewBox="0 0 497 497" width="512" xmlns="http://www.w3.org/2000/svg"><g><path d="m443.5 7.5c0-4.142-3.358-7.5-7.5-7.5h-22.5l-60 248.5 60 248.5h22.5c4.142 0 7.5-3.358 7.5-7.5v-452l-10-7.5 10-7.5z" fill="#8ae7ff"/><path d="m413.5 0h-352.5c-4.142 0-7.5 3.358-7.5 7.5v15l10 7.5-10 7.5v452c0 4.142 3.358 7.5 7.5 7.5h352.5v-30l-60-82.959 60-135.541z" fill="#c4f3ff"/><path d="m383.5 249.582-50 108.168 50 109.25h30v-218.5c-10.661 0-20.628.378-30 1.082z" fill="#ffe7b5"/><path d="m83.5 338.5v128.5h300v-217.418c-135.684 10.175-145.661 88.918-300 88.918z" fill="#fff"/><circle cx="113.5" cy="368.5" fill="#ffe7b5" r="7.5"/><circle cx="383.5" cy="407" fill="#ffd06a" r="7.5"/><circle cx="353.5" cy="437" fill="#ffe7b5" r="7.5"/><path d="m443.5 90h-30v30h30c8.284 0 15-6.716 15-15s-6.716-15-15-15z" fill="#c4f3ff"/><path d="m428.5 105c0-8.284-6.716-15-15-15h-360c-8.284 0-15 6.716-15 15s6.716 15 15 15h360c8.284 0 15-6.716 15-15z" fill="#fff"/><path d="m53.5 22.5h390v15h-390z" fill="#ff3e3a"/></g></svg>