<svg height="512pt" viewBox="-4 0 512 512.00002" width="512pt" xmlns="http://www.w3.org/2000/svg"><path d="m495.351562 512h-486.523437c-2.894531 0-5.605469-1.417969-7.257813-3.800781-1.648437-2.378907-2.023437-5.414063-1.007812-8.125l22.007812-58.695313v-432.550781c0-4.875 3.953126-8.828125 8.828126-8.828125h441.378906c4.875 0 8.828125 3.953125 8.828125 8.828125v432.550781l22.011719 58.695313c1.015624 2.710937.636718 5.746093-1.011719 8.125-1.648438 2.382812-4.359375 3.800781-7.253907 3.800781zm0 0" fill="#e4c05c"/><path d="m419.8125 512h-410.984375c-2.894531 0-5.605469-1.417969-7.257813-3.800781-1.648437-2.378907-2.023437-5.414063-1.007812-8.125l22.007812-58.695313h370.761719zm0 0" fill="#f3d55b"/><path d="m495.351562 512h-75.539062l-26.480469-70.621094v-441.378906h79.445313c4.875 0 8.828125 3.953125 8.828125 8.828125v432.550781l22.011719 58.695313c1.015624 2.710937.636718 5.746093-1.011719 8.125-1.648438 2.382812-4.359375 3.800781-7.253907 3.800781zm0 0" fill="#b19046"/><path d="m154.984375 35.308594h105.933594c14.625 0 26.480469 11.859375 26.480469 26.484375s-11.855469 26.484375-26.480469 26.484375h-105.933594c-14.625 0-26.480469-11.859375-26.480469-26.484375s11.855469-26.484375 26.480469-26.484375zm0 0" fill="#b19046"/><g fill="#805333"><path d="m437.46875 61.792969c-4.875 0-8.828125-3.953125-8.828125-8.828125v-17.65625c0-4.875 3.953125-8.824219 8.828125-8.824219s8.828125 3.949219 8.828125 8.824219v17.65625c0 4.875-3.953125 8.828125-8.828125 8.828125zm0 0"/><path d="m437.46875 414.898438c-4.875 0-8.828125-3.953126-8.828125-8.828126v-308.96875c0-4.875 3.953125-8.824218 8.828125-8.824218s8.828125 3.949218 8.828125 8.824218v308.96875c0 4.875-3.953125 8.828126-8.828125 8.828126zm0 0"/><path d="m495.378906 512h-75.566406l-26.480469-70.621094h88.273438l21.980469 58.703125c1.035156 2.703125.675781 5.738281-.964844 8.121094s-4.351563 3.800781-7.242188 3.796875zm0 0"/></g></svg>