<?xml version="1.0" encoding="iso-8859-1"?>
<!-- Generator: Adobe Illustrator 21.0.0, SVG Export Plug-In . SVG Version: 6.00 Build 0)  -->
<svg xmlns="http://www.w3.org/2000/svg" xmlns:xlink="http://www.w3.org/1999/xlink" version="1.1" id="Capa_1" x="0px" y="0px" viewBox="0 0 512 512" style="enable-background:new 0 0 512 512;" xml:space="preserve" width="512" height="512">
<g>
	<path style="fill:#EEE9E8;" d="M281.926,230.07l-56.046-56.059L5.897,393.991C2.093,397.796,0,402.858,0,408.232v83.636   c-0.007,5.551,2.249,10.578,5.897,14.227C9.539,509.737,14.574,512,20.132,512h80.625c11.102,0,20.131-9.03,20.139-20.138v-34.393   h34.394c11.102,0,20.139-9.037,20.139-20.138v-34.393l37.406,0c5.381-0.007,10.43-2.1,14.234-5.904l110.911-110.909L281.926,230.07   z"/>
	<path style="fill:#E2D7D5;" d="M281.926,230.07L5.897,506.096C9.539,509.737,14.574,512,20.132,512h80.625   c11.102,0,20.131-9.03,20.139-20.138v-34.393h34.394c11.102,0,20.139-9.037,20.139-20.138v-34.393l37.406,0   c5.381-0.007,10.43-2.1,14.234-5.904l110.911-110.909L281.926,230.07z"/>
	<path style="fill:#55696E;" d="M494.251,97.92l-80.173-80.172C402.638,6.307,387.421,0,371.228,0   c-16.186,0.007-31.403,6.3-42.851,17.748L220.634,125.49c-11.448,11.448-17.749,26.672-17.756,42.858   c0.007,16.186,6.314,31.402,17.755,42.843l80.173,80.172c11.441,11.455,26.665,17.755,42.844,17.755   c16.193,0,31.41-6.307,42.858-17.755l107.743-107.741c5.728-5.728,10.161-12.395,13.174-19.65c2.998-7.255,4.582-15.104,4.575-23.2   C512.007,124.585,505.7,109.368,494.251,97.92z"/>
	<path style="fill:#323C3C;" d="M494.251,97.92l-40.086-40.086L260.72,251.277l40.086,40.086   c11.441,11.455,26.665,17.755,42.844,17.755c16.193,0,31.41-6.307,42.858-17.755l107.743-107.741   c5.728-5.728,10.161-12.395,13.174-19.65c2.998-7.255,4.582-15.104,4.575-23.2C512.007,124.585,505.7,109.368,494.251,97.92z"/>
	<path style="fill:#FFFFFF;" d="M437.357,124.903c-2.927,2.927-6.767,4.391-10.614,4.391c-3.833,0-7.672-1.464-10.6-4.391   L387.93,96.689c-5.855-5.855-5.862-15.351,0-21.213c5.855-5.855,15.358-5.855,21.213,0l28.214,28.213   C443.212,109.545,443.212,119.048,437.357,124.903z"/>
	<path style="fill:#EEE9E8;" d="M437.357,124.903c-2.927,2.927-6.767,4.391-10.614,4.391c-3.833,0-7.672-1.464-10.6-4.391   l-14.524-14.524l21.213-21.213l14.524,14.524C443.212,109.545,443.212,119.048,437.357,124.903z"/>
</g>















</svg>
