<?xml version="1.0" encoding="iso-8859-1"?>
<!-- Generator: Adobe Illustrator 19.0.0, SVG Export Plug-In . SVG Version: 6.00 Build 0)  -->
<svg version="1.1" id="Layer_1" xmlns="http://www.w3.org/2000/svg" xmlns:xlink="http://www.w3.org/1999/xlink" x="0px" y="0px"
	 viewBox="0 0 481.882 481.882" style="enable-background:new 0 0 481.882 481.882;" xml:space="preserve">
<path style="fill:#212121;" d="M158.118,90.353l18.071-24.087c2.839-3.795,7.311-6.031,12.047-6.031h105.412
	c4.736,0,9.208,2.236,12.047,6.031l18.071,24.087v30.118h67.765l-64.008-76.808c-7.153-8.584-17.739-13.545-28.92-13.545h-115.32
	c-11.174,0-21.768,4.962-28.92,13.545l-64.008,76.808h67.765V90.353z"/>
<path style="fill:#D32F2F;" d="M30.118,120.471C13.485,120.471,0,133.956,0,150.588v271.059c0,16.632,13.485,30.118,30.118,30.118
	h421.647c16.632,0,30.118-13.485,30.118-30.118V150.588c0-16.632-13.485-30.118-30.118-30.118H30.118z"/>
<g>
	<polygon style="fill:#F0F0F0;" points="158.118,90.353 158.118,120.471 90.353,120.471 115.426,90.353 	"/>
	<polygon style="fill:#F0F0F0;" points="323.765,90.353 323.765,120.471 391.529,120.471 366.456,90.353 	"/>
</g>
<path style="fill:#EF5350;" d="M30.118,120.471C13.485,120.471,0,133.956,0,150.588v271.059c0,8.207,3.298,15.616,8.621,21.052
	L330.85,120.471H30.118z"/>
<path style="fill:#FFFFFF;" d="M346.353,262.031h51.072c-9.291-21.271-30.502-36.149-55.183-36.149
	c-24.696,0-45.892,14.878-55.191,36.149h-93.44c-9.299-21.271-30.494-36.149-55.191-36.149S92.529,240.76,83.23,262.031h52.299
	v48.181H83.23c9.299,21.256,30.494,36.141,55.191,36.141s45.892-14.886,55.191-36.141h93.44
	c9.299,21.256,30.494,36.141,55.191,36.141c24.681,0,45.892-14.886,55.183-36.141h-51.072V262.031z"/>
<g>
</g>
<g>
</g>
<g>
</g>
<g>
</g>
<g>
</g>
<g>
</g>
<g>
</g>
<g>
</g>
<g>
</g>
<g>
</g>
<g>
</g>
<g>
</g>
<g>
</g>
<g>
</g>
<g>
</g>
</svg>
