<?xml version="1.0" encoding="iso-8859-1"?>
<!-- Generator: Adobe Illustrator 19.0.0, SVG Export Plug-In . SVG Version: 6.00 Build 0)  -->
<svg version="1.1" id="Capa_1" xmlns="http://www.w3.org/2000/svg" xmlns:xlink="http://www.w3.org/1999/xlink" x="0px" y="0px"
	 viewBox="0 0 512.008 512.008" style="enable-background:new 0 0 512.008 512.008;" xml:space="preserve">
<path style="fill:#25255E;" d="M451.001,360.008c0,42.9-35.7,79.2-83.101,87.9l4.501-31.8c28.5-8.401,48.6-30.601,48.6-56.1
	c0-20.101-12.9-38.701-33.3-49.801c-5.101-2.699-10.501-4.799-16.5-6.599l8.399-28.801c4.501,1.201,8.699,2.701,12.599,4.501
	C427.9,294.308,451.001,325.207,451.001,360.008z"/>
<path style="fill:#1DE8F1;" d="M393.402,270.008l-1.201,9.3l-4.499,30.899l-15.301,105.901c-8.1,2.699-17.1,18.9-26.4,18.9
	l21.899,12.9l-9,64.1H93.101l-34.501-242H393.402z"/>
<path style="fill:#17BFCC;" d="M393.402,270.008l-1.201,9.3l-4.499,30.899l-15.301,105.901c-8.1,2.699-17.1,18.9-26.4,18.9
	l21.899,12.9l-9,64.1H226.001v-242H393.402z"/>
<path style="fill:#FEDB41;" d="M389.201,275.408h-326.4c-5.7-31.5,2.401-63.3,22.2-87.301c20.099-24.3,49.5-38.099,81-38.099
	c14.099-18.6,36.301-30,60-30s45.901,11.4,60,30c31.5,0,60.901,13.799,81,38.099C386.801,212.108,394.901,243.908,389.201,275.408z"
	/>
<rect x="346.644" y="49.37" transform="matrix(-0.7071 -0.7071 0.7071 -0.7071 532.9562 459.4956)" style="fill:#25255E;" width="29.997" height="139.999"/>
<rect x="387.37" y="3.636" transform="matrix(0.7071 -0.7071 0.7071 0.7071 77.2434 313.7628)" style="fill:#994C0F;" width="59.993" height="120.009"/>
<path style="fill:#FCBF29;" d="M389.201,275.408h-163.2v-155.4c23.699,0,45.901,11.4,60,30c31.5,0,60.901,13.799,81,38.099
	C386.801,212.108,394.901,243.908,389.201,275.408z"/>
<rect x="31.001" y="240.008" style="fill:#E4E4ED;" width="390" height="60"/>
<rect x="226.001" y="240.008" style="fill:#BDBDE5;" width="195" height="60"/>
<path style="fill:#25255E;" d="M372.401,416.108l6.71,16.183l-11.21,15.617c-6.9,1.499-14.4,2.1-21.9,2.1
	c-35.099,0-67.5-14.7-87.001-39.6l23.401-18.6c14.099,17.699,37.8,28.2,63.6,28.2C355.301,420.008,364.301,418.807,372.401,416.108z
	"/>
<path style="fill:#E4E4ED;" d="M256.001,330.008c-11.7,0-22.2,4.499-30,11.7c-9.3,8.099-15,20.099-15,33.3s5.7,25.199,15,33.3
	c7.8,7.2,18.3,11.7,30,11.7c24.901,0,45-20.101,45-45C301.001,350.107,280.902,330.008,256.001,330.008z"/>
<path style="fill:#BDBDE5;" d="M301.001,375.008c0,24.899-20.099,45-45,45c-11.7,0-22.2-4.501-30-11.7v-66.6
	c7.8-7.202,18.3-11.7,30-11.7C280.902,330.008,301.001,350.107,301.001,375.008z"/>
<g>
</g>
<g>
</g>
<g>
</g>
<g>
</g>
<g>
</g>
<g>
</g>
<g>
</g>
<g>
</g>
<g>
</g>
<g>
</g>
<g>
</g>
<g>
</g>
<g>
</g>
<g>
</g>
<g>
</g>
</svg>
