<?xml version="1.0"?>
<svg xmlns="http://www.w3.org/2000/svg" xmlns:xlink="http://www.w3.org/1999/xlink" xmlns:svgjs="http://svgjs.com/svgjs" version="1.1" width="512" height="512" x="0" y="0" viewBox="0 0 512 512" style="enable-background:new 0 0 512 512" xml:space="preserve" class=""><g><g xmlns="http://www.w3.org/2000/svg"><path d="m509.984 334.503c-1.435 2.487-3.594 4.581-6.338 5.938l-32.32 15.981c-4.496 2.223-9.805 2.052-14.149-.456l-185.455-107.073c-16.227 12.244-35.316 19.908-55.809 22.322-24.735 2.915-49.24-2.143-70.864-14.628-54.916-31.706-73.798-102.177-42.093-157.093s102.177-73.798 157.093-42.093c21.624 12.485 38.257 31.177 48.1 54.056 8.156 18.955 11.063 39.318 8.573 59.493l68.939 39.802 31.449-2.028c6.043-.39 11.728 2.892 14.411 8.32l11.549 23.357 26.002-1.677c6.629-.427 12.75 3.556 15.043 9.791l26.962 73.301c1.588 4.322 1.066 8.947-1.093 12.687z" fill="#979797" data-original="#fa9100" style="" class=""/><path d="m343.493 464.426c-2.486 1.436-5.403 2.171-8.458 1.974l-35.981-2.32c-5.005-.323-9.518-3.126-12.025-7.469l-107.073-185.456c-20.175 2.49-40.538-.417-59.493-8.573-22.879-9.843-41.571-26.476-54.056-48.1-31.705-54.916-12.823-125.387 42.093-157.093s125.387-12.823 157.093 42.093c12.485 21.624 17.543 46.128 14.628 70.864-2.415 20.493-10.078 39.582-22.322 55.809l39.802 68.939 28.25 13.968c5.428 2.684 8.71 8.369 8.32 14.411l-1.677 26.002 23.357 11.549c5.955 2.945 9.263 9.455 8.132 16l-13.301 76.962c-.785 4.536-3.55 8.281-7.289 10.44z" fill="#545251" data-original="#a76100" style="" class=""/><path d="m114.991 512c-2.871 0-5.765-.822-8.312-2.52l-30-20c-4.172-2.781-6.679-7.465-6.679-12.48v-214.146c-18.717-7.931-34.898-20.63-47.236-37.171-14.892-19.963-22.764-43.714-22.764-68.683 0-63.411 51.589-115 115-115s115 51.589 115 115c0 24.969-7.872 48.72-22.764 68.684-12.338 16.541-28.519 29.24-47.236 37.171v79.604l17.481 26.221c3.359 5.038 3.359 11.603 0 16.641l-14.453 21.679 14.453 21.68c3.685 5.527 3.295 12.82-.958 17.923l-50 60c-2.947 3.537-7.213 5.397-11.532 5.397z" fill="#dddddd" data-original="#ffe16e" style="" class=""/><path d="m126.524 506.603 50-60c4.252-5.103 4.642-12.396.958-17.923l-14.454-21.68 14.453-21.68c3.359-5.038 3.359-11.603 0-16.641l-17.481-26.221v-79.604c18.717-7.931 34.898-20.63 47.236-37.171 14.893-19.963 22.764-43.714 22.764-68.683 0-63.411-51.589-115-115-115v470c4.316-.003 8.578-1.862 11.524-5.397z" fill="#9f9f9f" data-original="#ff8e00" style="" class=""/><path d="m100 117v-102c0-8.284 6.716-15 15-15s15 6.716 15 15v102z" fill="#7a0000" data-original="#00337a" style="" class=""/><path d="m130 117v-102c0-8.284-6.716-15-15-15v117z" fill="#590000" data-original="#002659" style="" class=""/><path d="m135 132h-40c-8.284 0-15-6.716-15-15s6.716-15 15-15h40c8.284 0 15 6.716 15 15s-6.716 15-15 15z" fill="#9b0000" data-original="#00429b" style="" class=""/><path d="m135 102h-20v30h20c8.284 0 15-6.716 15-15s-6.716-15-15-15z" fill="#7a0000" data-original="#00337a" style="" class=""/></g></g></svg>
