<svg id="flat" height="512" viewBox="0 0 512 512" width="512" xmlns="http://www.w3.org/2000/svg"><path d="m317.633 56.851h-123.263a51.19 51.19 0 0 0 -51.134 51.129v38.454h33.724v-38.454a17.425 17.425 0 0 1 17.41-17.4h123.263a17.424 17.424 0 0 1 17.409 17.405v38.454h33.725v-38.459a51.191 51.191 0 0 0 -51.134-51.129z" fill="#1fc091"/><rect fill="#008d67" height="317.092" rx="24.215" width="496" x="8" y="138.057"/><path d="m479.785 138.057h-430.095v251.358a40.709 40.709 0 0 0 40.71 40.709h413.6v-267.852a24.214 24.214 0 0 0 -24.215-24.215z" fill="#019f74"/><path d="m345.36 264.822h-57.654v-57.641h-63.412v57.641h-57.654v63.413h57.654v57.653h63.412v-57.653h57.654z" fill="#fff"/><path d="m317.637 56.851h-123.267a50.9 50.9 0 0 0 -32.93 12.057 50.789 50.789 0 0 0 -5.893 23.79v26.2a12.251 12.251 0 0 0 12.253 12.253h9.161v-23.171a17.429 17.429 0 0 1 12.38-16.658c.706-8.957 8.2-9.933 17.34-9.933h112.594a28.078 28.078 0 0 1 28.078 28.078v9.433a12.252 12.252 0 0 0 12.253 12.252h9.161v-23.172a51.13 51.13 0 0 0 -51.13-51.129z" fill="#4fd79c"/></svg>