<svg height="512" viewBox="0 0 256 256" width="512" xmlns="http://www.w3.org/2000/svg"><path d="m243.369 44.72-46.86 128.74-11.601 31.87v-181.88l11.601 4.22z" fill="#f0c020"/><path d="m196.509 27.67v145.79l-11.601 31.87v-181.88z" fill="#f0ab20"/><path d="m169.524 7.337h-151.765a5.129 5.129 0 0 0 -5.127 5.127v231.072a5.129 5.129 0 0 0 5.127 5.127h151.765a15.387 15.387 0 0 0 15.381-15.381v-210.564a15.387 15.387 0 0 0 -15.381-15.381z" fill="#13bf6d"/><circle cx="98.768" cy="82.956" fill="#f2e1d6" r="45.044" transform="matrix(.987 -.16 .16 .987 -12.013 16.892)"/><rect fill="#f2e1d6" height="50.93" rx="10.254" width="112.456" x="42.54" y="166.283"/><path d="m195.656 144.88a2.5 2.5 0 0 1 -1.494-3.2l1.012-2.779a2.5 2.5 0 0 1 4.7 1.711l-1.012 2.779a2.5 2.5 0 0 1 -3.206 1.489zm4.433-12.176a2.5 2.5 0 0 1 -1.494-3.2l28.39-77.993a2.5 2.5 0 0 1 4.7 1.71l-28.391 77.989a2.5 2.5 0 0 1 -3.205 1.49z" fill="#f9e5af"/><path d="m98.768 119.7a36.868 36.868 0 0 1 -17.768-4.56 2.5 2.5 0 0 1 2.416-4.378 31.765 31.765 0 0 0 37.81-50.262 2.5 2.5 0 0 1 3.535-3.535 36.758 36.758 0 0 1 -25.993 62.735z" fill="#fff"/><path d="m168.688 235.9h-.888a2.5 2.5 0 0 1 0-5h.886a2.5 2.5 0 0 1 0 5zm-10.886 0h-133.241a2.5 2.5 0 0 1 -2.5-2.5v-212.76a2.5 2.5 0 0 1 5 0v210.26h130.739a2.5 2.5 0 1 1 0 5z" fill="#76ffba"/><path d="m205.066 69.516a2.5 2.5 0 0 0 -1.5-3.2l-6.577-2.395a2.5 2.5 0 0 0 -1.711 4.7l6.577 2.394a2.5 2.5 0 0 0 3.211-1.499z"/><path d="m54.06 89.01a2.5 2.5 0 1 0 -2.69-2.3v.02a2.508 2.508 0 0 0 2.69 2.28z"/><path d="m53.819 79.02a2.535 2.535 0 0 0 2.831-2.11v-.01a41.92 41.92 0 0 1 2.418-9.239h19.752a109.019 109.019 0 0 0 0 30.583h-19.756c-.336-.877-.652-1.766-.934-2.674a2.529 2.529 0 0 0 -3.13-1.64 2.5 2.5 0 0 0 -1.65 3.13 47.552 47.552 0 0 0 45.418 33.44 47.545 47.545 0 1 0 -47.068-54.31 2.513 2.513 0 0 0 2.119 2.83zm7.532 24.224h18.336c1.8 8.838 4.759 16.121 8.461 20.93a42.207 42.207 0 0 1 -26.797-20.93zm22.512-35.583h29.81a104.8 104.8 0 0 1 0 30.583h-29.811a104.833 104.833 0 0 1 .001-30.583zm14.906 57.839c-5.3 0-11.019-8.548-13.983-22.256h27.965c-2.964 13.708-8.683 22.256-13.982 22.256zm10.63-1.339c3.7-4.808 6.651-12.087 8.451-20.917h18.324a42.629 42.629 0 0 1 -26.774 20.917zm31.911-41.2a42.486 42.486 0 0 1 -2.833 15.284h-19.76a108.982 108.982 0 0 0 0-30.583h19.757a42.51 42.51 0 0 1 2.836 15.298zm-5.14-20.3h-18.322c-1.8-8.829-4.754-16.106-8.451-20.914a42.625 42.625 0 0 1 26.773 20.914zm-37.4-22.248c5.3 0 11.016 8.545 13.98 22.248h-27.963c2.965-13.703 8.683-22.248 13.982-22.248zm-10.664 1.379c-3.682 4.808-6.623 12.068-8.417 20.869h-18.289a42.974 42.974 0 0 1 26.706-20.869z"/><path d="m144.74 163.78h-91.95a12.78 12.78 0 0 0 -12.75 12.76v30.42a12.765 12.765 0 0 0 12.75 12.75h11.95a2.5 2.5 0 0 0 0-5h-11.95a7.776 7.776 0 0 1 -7.75-7.75v-30.42a7.785 7.785 0 0 1 7.75-7.76h91.95a7.793 7.793 0 0 1 7.76 7.76v30.42a7.785 7.785 0 0 1 -7.76 7.75h-60a2.5 2.5 0 1 0 0 5h60a12.765 12.765 0 0 0 12.75-12.75c0-27.706.016-2.606 0-30.42a12.78 12.78 0 0 0 -12.75-12.76z"/><circle cx="74.74" cy="217.21" r="2.5"/><path d="m62.144 186.215h73.25a2.5 2.5 0 0 0 0-5h-73.25a2.5 2.5 0 0 0 0 5z"/><path d="m62.144 202.281h73.25a2.5 2.5 0 0 0 0-5h-73.25a2.5 2.5 0 0 0 0 5z"/><path d="m200.73 154.55a2.5 2.5 0 1 0 3.2-1.49 2.545 2.545 0 0 0 -3.2 1.49z"/><path d="m244.22 42.37-56.867-20.691a17.889 17.889 0 0 0 -17.829-16.842h-151.765a7.636 7.636 0 0 0 -7.627 7.627v231.072a7.636 7.636 0 0 0 7.627 7.627h151.765a17.9 17.9 0 0 0 17.881-17.881v-27.492l14.6-40.13a2.5 2.5 0 0 0 -1.49-3.2 2.54 2.54 0 0 0 -3.21 1.49l-9.905 27.215v-51.351l15.05-41.344a2.5 2.5 0 0 0 -4.7-1.71l-10.351 28.434v-78.437l28.422 10.343a2.5 2.5 0 1 0 1.711-4.7l-30.127-10.964v-14.419l52.755 19.193-10.741 29.511-15.511-5.647a2.5 2.5 0 1 0 -1.711 4.7l15.512 5.647-23.559 64.729a2.5 2.5 0 0 0 4.7 1.72l36.87-101.3a2.5 2.5 0 0 0 -1.5-3.2zm-61.815 190.912a12.9 12.9 0 0 1 -12.881 12.881h-151.765a2.63 2.63 0 0 1 -2.627-2.627v-231.072a2.63 2.63 0 0 1 2.627-2.627h151.765a12.9 12.9 0 0 1 12.881 12.881z"/></svg>