<svg id="Layer_1" enable-background="new 0 0 512 512" height="512" viewBox="0 0 512 512" width="512" xmlns="http://www.w3.org/2000/svg"><g><g><path d="m288.13 90.25h-64.26c-8.284 0-15-6.716-15-15v-60.25h94.26v60.25c0 8.284-6.716 15-15 15z" fill="#464b52"/></g><path d="m256 90.25h32.13c8.284 0 15-6.716 15-15v-60.25h-47.13z" fill="#292b2f"/><g><path d="m308.267 30h-104.534c-8.284 0-15-6.716-15-15s6.716-15 15-15h104.533c8.284 0 15 6.716 15 15s-6.715 15-14.999 15z" fill="#e38659"/></g><path d="m308.267 0h-52.267v30h52.267c8.284 0 15-6.716 15-15s-6.716-15-15-15z" fill="#e06c47"/><g><path d="m344.27 512h-176.54c-30.471 0-55.261-24.794-55.261-55.27l-.003-8.997 37.867-124.4-37.867-98.4.003-27.713c0-18.521 9.199-35.712 24.607-45.989l71.793-47.859v-28.122h94.26v28.122l71.79 47.857c15.411 10.278 24.61 27.47 24.61 45.991l.003 27.713-47.532 96.4 47.53 126.4v8.997c0 30.476-24.79 55.27-55.26 55.27z" fill="#e38659"/></g><path d="m399.53 197.22c0-18.521-9.199-35.712-24.61-45.991l-71.79-47.857v-28.122h-47.13v436.75h88.27c30.471 0 55.261-24.794 55.261-55.27v-8.997l-47.531-126.4 47.533-96.4z" fill="#e06c47"/><g><path d="m399.533 447.733h-287.066v-222.8h287.066z" fill="#64b067"/></g><path d="m256 224.933h143.533v222.8h-143.533z" fill="#56977d"/><g><path d="m316.25 351.333h-120.5c-8.284 0-15-6.716-15-15s6.716-15 15-15h120.5c8.284 0 15 6.716 15 15s-6.716 15-15 15z" fill="#464b52"/></g><path d="m316.25 321.333h-60.25v30h60.25c8.284 0 15-6.716 15-15s-6.716-15-15-15z" fill="#292b2f"/></g></svg>