<svg xmlns="http://www.w3.org/2000/svg" xmlns:xlink="http://www.w3.org/1999/xlink" width="50.144" height="46.251"
     viewBox="0 0 50.144 46.251">
    <g transform="matrix(1, 0, 0, 1, 0, 0)">
        <path id="Icon_awesome-hamburger-2" data-name="Icon awesome-hamburger"
              d="M28.156,13.592H2.913a2.913,2.913,0,1,0,0,5.825H28.156a2.913,2.913,0,1,0,0-5.825Zm.971,7.767H1.942a.971.971,0,0,0-.971.971V23.3a3.884,3.884,0,0,0,3.884,3.884h21.36A3.884,3.884,0,0,0,30.1,23.3V22.33A.971.971,0,0,0,29.127,21.36ZM3.558,11.651H27.51c2.1,0,3.314-2.664,2.113-4.6C27.185,3.107,21.818.006,15.534,0S3.884,3.107,1.445,7.046C.243,8.986,1.461,11.651,3.558,11.651ZM23.3,4.854a.971.971,0,1,1-.971.971A.971.971,0,0,1,23.3,4.854ZM15.534,2.913a.971.971,0,1,1-.971.971A.971.971,0,0,1,15.534,2.913ZM7.767,4.854a.971.971,0,1,1-.971.971A.971.971,0,0,1,7.767,4.854Z"
              transform="translate(9.43 11.62)" fill="none" stroke="#fff" stroke-width="1"/>
    </g>
</svg>
