<?xml version="1.0"?>
<svg xmlns="http://www.w3.org/2000/svg" xmlns:xlink="http://www.w3.org/1999/xlink" xmlns:svgjs="http://svgjs.com/svgjs" version="1.1" width="512" height="512" x="0" y="0" viewBox="0 0 512 512" style="enable-background:new 0 0 512 512" xml:space="preserve" class=""><g>
<g xmlns="http://www.w3.org/2000/svg">
	<g>
		<path d="M409.969,215.852c-12.724,0-24.907,2.347-36.149,6.621l-24.62-43.975V151.13H355c8.321,0,15.067-6.746,15.067-15.067    s-6.746-15.067-15.067-15.067h-57.217c-8.321,0-15.067,6.746-15.067,15.067s6.746,15.067,15.067,15.067h21.283v16.232H184.739    l23.827-54.138c2.051-4.66,1.61-10.04-1.172-14.303c-2.781-4.264-7.528-6.834-12.619-6.834h-50.083    c-8.321,0-15.067,6.746-15.067,15.067s6.746,15.067,15.067,15.067h26.991l-42.791,97.225c-8.563-2.339-17.568-3.596-26.861-3.596    C45.77,215.852,0,261.622,0,317.882s45.77,102.03,102.03,102.03c56.26,0,102.03-45.77,102.03-102.03    c0-36.263-19.02-68.164-47.603-86.262l8.227-18.691l79.949,113.624c2.83,4.022,7.433,6.396,12.321,6.396c0,0,0.001,0,0.002,0    h52.096c7.305,49.141,49.774,86.963,100.916,86.963c56.26,0,102.03-45.77,102.03-102.03    C512,261.622,466.229,215.852,409.969,215.852z M173.927,317.882c0,39.644-32.252,71.896-71.896,71.896    s-71.896-32.252-71.896-71.896s32.252-71.896,71.896-71.896c4.977,0,9.837,0.51,14.532,1.478l-28.322,64.35    c-3.352,7.617,0.104,16.508,7.721,19.859c1.975,0.869,4.034,1.281,6.062,1.281c5.792,0,11.315-3.36,13.798-9.001l28.301-64.304    C162.162,272.724,173.927,293.949,173.927,317.882z M362.506,263.946l21.761,38.869h-44.592    C342.957,287.483,351.143,273.958,362.506,263.946z M255.617,289.797l-64.947-92.301h117.537l-16.922,29.7L255.617,289.797z     M309.053,302.816h-26.171l51.136-89.75l13.53,24.166C327.229,252.995,313.003,276.25,309.053,302.816z M409.969,389.778    c-34.476,0-63.35-24.396-70.295-56.829h70.295c5.348,0,10.295-2.835,12.998-7.448c2.704-4.612,2.761-10.314,0.149-14.98    l-34.345-61.344c6.704-2.072,13.821-3.192,21.197-3.192c39.644,0,71.896,32.252,71.896,71.896    C481.864,357.526,449.613,389.778,409.969,389.778z" fill="#ffffff" data-original="#000000" style="" class=""/>
	</g>
</g>
<g xmlns="http://www.w3.org/2000/svg">
</g>
<g xmlns="http://www.w3.org/2000/svg">
</g>
<g xmlns="http://www.w3.org/2000/svg">
</g>
<g xmlns="http://www.w3.org/2000/svg">
</g>
<g xmlns="http://www.w3.org/2000/svg">
</g>
<g xmlns="http://www.w3.org/2000/svg">
</g>
<g xmlns="http://www.w3.org/2000/svg">
</g>
<g xmlns="http://www.w3.org/2000/svg">
</g>
<g xmlns="http://www.w3.org/2000/svg">
</g>
<g xmlns="http://www.w3.org/2000/svg">
</g>
<g xmlns="http://www.w3.org/2000/svg">
</g>
<g xmlns="http://www.w3.org/2000/svg">
</g>
<g xmlns="http://www.w3.org/2000/svg">
</g>
<g xmlns="http://www.w3.org/2000/svg">
</g>
<g xmlns="http://www.w3.org/2000/svg">
</g>
</g></svg>
