<svg xmlns="http://www.w3.org/2000/svg" width="33.034" height="15.958" viewBox="0 0 33.034 15.958">
  <g id="Сгруппировать_768" data-name="Сгруппировать 768" transform="translate(-109 -140)">
    <path id="Контур_524" data-name="Контур 524" d="M140.509,146.466a16.008,16.008,0,0,0-2.891-1.168.484.484,0,1,0-.272.929,15.051,15.051,0,0,1,2.715,1.1,1.887,1.887,0,0,1,.27.174,8.583,8.583,0,0,0-1.45.105c-.9.174-1.09.632-1.09.986,0,.994,1.339,1.867,2.866,1.867.138,0,.275-.006.41-.015v.453h-2.505a3.232,3.232,0,0,0-5.334,0H119.335a3.232,3.232,0,0,0-5.334,0h-4.033V149.74h.652a.483.483,0,0,0,.483-.483v-.366h1.111a1.192,1.192,0,0,0,1.19-1.19v-.416a1.188,1.188,0,0,0-.215-.684l-.986-1.4h1.171a.486.486,0,0,0,.408-.224,9.39,9.39,0,0,1,5.062-3.659c-.147.085-.293.173-.435.265a10.676,10.676,0,0,0-2.319,1.986,1.008,1.008,0,0,0,.728,1.665l15.571.526h.014l.039,0h0a11.886,11.886,0,0,1,2.781.03.484.484,0,1,0,.121-.96,12.873,12.873,0,0,0-2.785-.054c-.763-.713-1.51-1.4-2.222-2.045a10.063,10.063,0,0,0-6.205-2.587l-2.253-.121a10.235,10.235,0,0,0-8.767,4.213c-1.609.007-1.753-.015-1.923.016a1.248,1.248,0,0,0-1.055,1.232V148.4s0,0,0,.006a.043.043,0,0,1,0,0v.36h-.457a.679.679,0,0,0-.679.678v2.961a.678.678,0,0,0,.544.664l4.114.832a3.235,3.235,0,0,0,5.926.215h1.785a.484.484,0,0,0,0-.968h-1.5a3.258,3.258,0,0,0,.03-.433,3.225,3.225,0,0,0-.118-.861h12.991a3.225,3.225,0,0,0-.117.861,3.258,3.258,0,0,0,.03.433h-9.063a.484.484,0,0,0,0,.968h9.352a3.235,3.235,0,0,0,5.833,0h1.474a1.751,1.751,0,0,0,1.748-1.749V148.98A2.827,2.827,0,0,0,140.509,146.466Zm-23.691-2.226a.039.039,0,0,1,.008-.047,9.339,9.339,0,0,1,5.924-3.163l1.009.054a7.056,7.056,0,0,1,0,3.411l-6.907-.233A.031.031,0,0,1,116.818,144.24Zm14.3.5-6.368-.216a8.211,8.211,0,0,0,.026-3.362,9.106,9.106,0,0,1,4.918,2.274Q130.382,144.067,131.113,144.744Zm-18.676,2.54v.417a.223.223,0,0,1-.223.223H111.1v-2.448a.277.277,0,0,1,.029-.122l1.264,1.8A.216.216,0,0,1,112.437,147.284Zm-2.469,4.891v-.314h3.582a3.185,3.185,0,0,0-.113,1.014Zm6.7,2.815a2.268,2.268,0,1,1,2.268-2.268A2.271,2.271,0,0,1,116.668,154.99Zm23.989-5.5a2.081,2.081,0,0,1-1.891-.849,5.555,5.555,0,0,1,1.891-.175c.114,0,.228,0,.34.011a1.851,1.851,0,0,1,.07.506v.491C140.932,149.481,140.8,149.487,140.657,149.487Zm-4.762,5.5a2.268,2.268,0,1,1,2.268-2.268A2.27,2.27,0,0,1,135.9,154.99Zm4.391-1.835H139.1a3.258,3.258,0,0,0,.03-.433,3.225,3.225,0,0,0-.118-.861h2.054v.513A.782.782,0,0,1,140.286,153.155Z" fill="#fff"/>
    <path id="Контур_525" data-name="Контур 525" d="M116.668,151.14a1.582,1.582,0,1,0,1.582,1.582A1.584,1.584,0,0,0,116.668,151.14Zm0,2.2a.615.615,0,1,1,.615-.615A.615.615,0,0,1,116.668,153.337Z" fill="#fff"/>
    <path id="Контур_526" data-name="Контур 526" d="M135.9,151.14a1.582,1.582,0,1,0,1.582,1.582A1.584,1.584,0,0,0,135.9,151.14Zm0,2.2a.615.615,0,1,1,.615-.615A.615.615,0,0,1,135.9,153.337Z" fill="#fff"/>
    <path id="Контур_527" data-name="Контур 527" d="M125.518,146.217a.484.484,0,1,0,0,.967h.335a.484.484,0,1,0,0-.967Z" fill="#fff"/>
    <path id="Контур_528" data-name="Контур 528" d="M118.285,146.217a.484.484,0,1,0,0,.967h.336a.484.484,0,1,0,0-.967Z" fill="#fff"/>
  </g>
</svg>
