<svg xmlns="http://www.w3.org/2000/svg" width="34.198" height="15.958" viewBox="0 0 34.198 15.958">
  <g id="Сгруппировать_767" data-name="Сгруппировать 767" transform="translate(-36 -140)">
    <path id="Контур_547" data-name="Контур 547" d="M36.57,141.71h2.28a.57.57,0,0,1,.57.57v.734l.738-1.66A2.284,2.284,0,0,1,42.241,140H56.653a2.283,2.283,0,0,1,1.995,1.173l2.21,3.977,7.205.45a2.284,2.284,0,0,1,2.135,2.276v4.093a.57.57,0,0,1-.57.57H68.442a3.985,3.985,0,0,1-7.888,0H48.494a3.985,3.985,0,0,1-7.888,0H38.85a.57.57,0,0,1-.57-.57v-2.28H36.57a.57.57,0,0,1-.57-.569v-6.84A.569.569,0,0,1,36.57,141.71ZM64.5,154.819a2.85,2.85,0,1,0-2.85-2.85A2.85,2.85,0,0,0,64.5,154.819Zm-2.85-5.637,0-.005c.035-.035.071-.068.108-.1.053-.05.106-.1.162-.147.039-.034.08-.065.121-.1.057-.044.114-.087.171-.128s.087-.057.132-.088.119-.075.181-.11c.046-.027.093-.052.14-.077.063-.032.127-.063.192-.092.048-.022.1-.044.146-.064.067-.027.136-.051.205-.075.049-.017.1-.035.149-.05.073-.021.147-.039.221-.057.049-.011.1-.024.146-.034.083-.017.168-.028.254-.039.042-.006.084-.013.127-.017a3.817,3.817,0,0,1,.781,0c.043,0,.084.011.126.017.086.011.171.022.254.039.05.01.1.023.146.034.074.018.148.036.221.057.051.015.1.033.149.05.069.024.138.048.205.075.049.02.1.042.146.064.065.029.129.057.192.092.047.025.094.05.14.077.061.035.121.072.181.11s.089.057.132.088.114.084.171.128c.041.032.082.063.121.1.057.047.109.1.162.147.036.034.073.067.108.1.057.057.106.114.158.171l.087.1c.06.074.117.151.171.228.015.023.033.043.049.066.068.1.132.206.191.314.017.031.031.063.047.1.041.078.08.158.114.239.018.043.034.088.051.132.028.072.057.144.08.218.016.049.029.1.043.15.02.071.039.142.057.214.012.054.021.107.031.162s.019.086.025.129h.611v-3.519a1.14,1.14,0,0,0-1.069-1.14l-6.341-.394ZM45.119,141.14H42.241a1.14,1.14,0,0,0-1.042.677l-1.472,3.313h5.392v-3.99Zm6.84,0h-5.7v3.99h5.7ZM53.1,151.4h7.41V146.27H53.1Zm0-6.269h6.441l-1.891-3.4a1.14,1.14,0,0,0-1-.586H53.1Zm-5.546,4.221.087.1c.061.074.117.151.171.228.015.022.033.043.048.066.069.1.132.206.191.314.017.031.031.063.047.094.04.079.08.158.114.24.018.043.034.088.051.132.028.072.057.144.08.218.016.049.029.1.043.15.02.071.039.141.057.214.012.053.021.107.031.162s.019.085.025.129h3.461V146.27h-5.7v2.1c.041.02.08.042.121.062s.094.05.14.077c.062.035.121.072.181.11s.089.057.132.088.114.084.171.128c.041.032.082.063.122.1.057.047.109.1.162.147.036.034.073.067.108.1C47.449,149.233,47.5,149.29,47.552,149.351Zm-3,5.468a2.85,2.85,0,1,0-2.85-2.85A2.85,2.85,0,0,0,44.549,154.819Zm-5.13-5.7V151.4H40.6c.006-.044.017-.086.025-.129s.019-.108.031-.162c.016-.072.035-.143.057-.214.014-.05.027-.1.043-.15.024-.074.052-.146.08-.218.018-.044.033-.089.051-.132.035-.081.075-.161.114-.239.016-.032.03-.064.047-.1.059-.108.123-.212.191-.314.015-.023.033-.043.049-.066.057-.078.114-.155.171-.228.028-.034.057-.066.087-.1.052-.057.1-.118.158-.171.035-.035.071-.068.108-.1.053-.05.106-.1.162-.148.039-.033.08-.064.122-.1.057-.044.114-.087.171-.128s.087-.057.132-.088.119-.075.181-.11c.046-.027.093-.052.14-.077.063-.032.127-.063.192-.092.049-.022.1-.044.146-.064.067-.027.136-.051.205-.075.049-.017.1-.035.149-.05.073-.022.147-.039.221-.057.049-.011.1-.024.147-.034.083-.017.168-.028.254-.039.042-.006.084-.014.126-.017a2.986,2.986,0,0,1,.391-.024,3.876,3.876,0,0,1,.391.02c.043,0,.084.011.126.017l.053.008V146.27h-5.7Zm-2.28-.571h1.14v-5.7H37.14Z" fill="#fff"/>
    <path id="Контур_548" data-name="Контур 548" d="M56.519,147.409h-2.28v1.14h2.28Z" fill="#fff"/>
    <path id="Контур_549" data-name="Контур 549" d="M64.5,150.259a1.71,1.71,0,1,1-1.71,1.71A1.71,1.71,0,0,1,64.5,150.259Zm0,2.28a.57.57,0,1,0-.57-.57A.57.57,0,0,0,64.5,152.539Z" fill="#fff"/>
    <path id="Контур_550" data-name="Контур 550" d="M44.549,150.259a1.71,1.71,0,1,1-1.71,1.71A1.71,1.71,0,0,1,44.549,150.259Zm0,2.28a.57.57,0,1,0-.57-.57A.57.57,0,0,0,44.549,152.539Z" fill="#fff"/>
  </g>
</svg>
