<svg xmlns="http://www.w3.org/2000/svg" width="43" height="37" viewBox="0 0 43 37">
  <path id="Контур_561" data-name="Контур 561" d="M48.5,674A21.491,21.491,0,0,0,28.9,686.717,21.639,21.639,0,0,0,32.4,709.882c.105.116.2.232.307.338a2.413,2.413,0,0,0,3.561-.01,16.58,16.58,0,0,1,24.455,0,2.412,2.412,0,0,0,3.561.01l.307-.338A21.568,21.568,0,0,0,48.5,674Zm-1.344,4.422a1.344,1.344,0,1,1,2.688,0v3.471a1.344,1.344,0,1,1-2.687,0Zm-12.287,18.5H31.414a1.349,1.349,0,0,1,0-2.7h3.458a1.349,1.349,0,0,1,0,2.7Zm4.94-10.07a1.353,1.353,0,0,1-1.9,0l-2.448-2.447a1.346,1.346,0,0,1,1.9-1.908l2.448,2.457a1.353,1.353,0,0,1,0,1.9Zm15.416,3.324-4.56,7.274a2.984,2.984,0,0,1-.672.674,2.9,2.9,0,0,1-3.359-4.721l7.246-4.577a.979.979,0,0,1,1.123,0,.97.97,0,0,1,.225,1.351Zm3.863-3.325a1.346,1.346,0,0,1-1.9-1.907l2.448-2.457a1.346,1.346,0,0,1,1.9,1.907Zm6.5,10.071H62.13a1.349,1.349,0,0,1,0-2.7h3.458a1.349,1.349,0,0,1,0,2.7Z" transform="translate(-27 -674)" fill="#fff" opacity="0.61"/>
</svg>
