<?xml version="1.0"?>
<svg xmlns="http://www.w3.org/2000/svg" xmlns:xlink="http://www.w3.org/1999/xlink" xmlns:svgjs="http://svgjs.com/svgjs" version="1.1" width="512" height="512" x="0" y="0" viewBox="0 0 64 64" style="enable-background:new 0 0 512 512" xml:space="preserve" class=""><g><path xmlns="http://www.w3.org/2000/svg" d="m14 32a6 6 0 1 0 6 6 6 6 0 0 0 -6-6zm0 8a2 2 0 1 1 2-2 2 2 0 0 1 -2 2z" fill="#ffffff" data-original="#000000" style="" class=""/><path xmlns="http://www.w3.org/2000/svg" d="m50 32a6 6 0 1 0 6 6 6 6 0 0 0 -6-6zm0 8a2 2 0 1 1 2-2 2 2 0 0 1 -2 2z" fill="#ffffff" data-original="#000000" style="" class=""/><path xmlns="http://www.w3.org/2000/svg" d="m39.209 20h-6.539a7.982 7.982 0 0 0 -4.8 1.6l-3.87 2.9h13.709z" fill="#ffffff" data-original="#000000" style="" class=""/><path xmlns="http://www.w3.org/2000/svg" d="m39.291 24.5h10.282l-2.25-4.5h-6.532z" fill="#ffffff" data-original="#000000" style="" class=""/><path xmlns="http://www.w3.org/2000/svg" d="m58.828 24.828-3.656-3.656a4 4 0 0 0 -2.829-1.172h-3.343l3 6h-36.416a15.985 15.985 0 0 0 -3.138.311l-5.23 1.046a4 4 0 0 0 -3.216 3.922v6.721l2.622 1.311a7.5 7.5 0 1 1 14.878-1.311 7.465 7.465 0 0 1 -.279 2h21.558a7.5 7.5 0 1 1 14.721-2 7.546 7.546 0 0 1 -.122 1.311l1.516-.758a2 2 0 0 0 1.106-1.789v-9.107a4 4 0 0 0 -1.172-2.829zm-22.828 5.922h-4v-1.5h4zm8 0h-4v-1.5h4z" fill="#ffffff" data-original="#000000" style="" class=""/></g></svg>
