<svg xmlns="http://www.w3.org/2000/svg" width="42.698" height="15.958" viewBox="0 0 42.698 15.958">
  <g id="Сгруппировать_769" data-name="Сгруппировать 769" transform="translate(-176.5 -184.75)">
    <path id="Контур_551" data-name="Контур 551" d="M220.575,146.71c-2.393-1.678-5.776-2.031-8.193-2.031h-.53l-8.424-3.93a8.025,8.025,0,0,0-3.373-.749h-7.436a5.268,5.268,0,0,0-2.09.429l-7.719,3.308a3.363,3.363,0,0,1-1.334.274h-.514A1.965,1.965,0,0,0,179,145.973v4.246a1.966,1.966,0,0,0,1.588,1.927l2.475.481a3.966,3.966,0,0,0,7.362,1.325h21.184a3.964,3.964,0,0,0,6.893,0h1.233a1.965,1.965,0,0,0,1.963-1.962v-3.123A2.638,2.638,0,0,0,220.575,146.71ZM202.9,141.882l5.995,2.8h-8.926l-2.939-3.428h3.025A6.766,6.766,0,0,1,202.9,141.882Zm-7.517-.631,2.939,3.428H197.26a1.378,1.378,0,0,1-1.048-.482l-2.525-2.946Zm-4.5,11.45a3.947,3.947,0,0,0-.015-1.5.626.626,0,1,0-1.226.249,2.664,2.664,0,0,1,.055.544,2.713,2.713,0,1,1-1.627-2.49.626.626,0,1,0,.5-1.146,3.97,3.97,0,0,0-5.508,3l-2.236-.435a.713.713,0,0,1-.576-.7v-2.283h.711a.626.626,0,1,0,0-1.251h-.711v-.712a.712.712,0,0,1,.711-.711h.514a4.609,4.609,0,0,0,1.827-.375l7.719-3.308a4.039,4.039,0,0,1,1.05-.29l3.191,3.722a2.623,2.623,0,0,0,2,.919h15.122a15.1,15.1,0,0,1,6.863,1.423h-.178a.626.626,0,1,0,0,1.251h1.354a1.356,1.356,0,0,1,.026.263v1.16H218.5a3.965,3.965,0,0,0-6.893,0h-1.232a.626.626,0,1,0,0,1.251h.776a3.926,3.926,0,0,0,0,1.423Zm24.174,2.006a2.717,2.717,0,1,1,2.717-2.717A2.72,2.72,0,0,1,215.056,154.707Zm4.679-2.006h-.776a3.926,3.926,0,0,0,0-1.423h1.488v.712A.713.713,0,0,1,219.735,152.7Z" transform="translate(-2.5 44.75)" fill="#fff" opacity="0.5"/>
    <path id="Контур_552" data-name="Контур 552" d="M207.7,150.028h-8.378l-1.416-1.889a1.972,1.972,0,0,0-1.571-.785h-2.673a.625.625,0,0,0-.5,1l1.605,2.139a1.969,1.969,0,0,0,1.569.786H207.7a.626.626,0,1,0,0-1.251Zm-11.365,0a.717.717,0,0,1-.569-.285l-.853-1.139h1.422a.718.718,0,0,1,.57.285l.854,1.139Z" transform="translate(-2.5 44.75)" fill="#fff" opacity="0.5"/>
    <path id="Контур_553" data-name="Контур 553" d="M186.979,150.7a1.294,1.294,0,1,0,1.294,1.294A1.3,1.3,0,0,0,186.979,150.7Z" transform="translate(-2.5 44.75)" fill="#fff" opacity="0.5"/>
    <path id="Контур_554" data-name="Контур 554" d="M215.056,150.7a1.294,1.294,0,1,0,1.294,1.294A1.295,1.295,0,0,0,215.056,150.7Z" transform="translate(-2.5 44.75)" fill="#fff" opacity="0.5"/>
  </g>
</svg>
