<?xml version="1.0"?>
<svg xmlns="http://www.w3.org/2000/svg" xmlns:xlink="http://www.w3.org/1999/xlink" xmlns:svgjs="http://svgjs.com/svgjs" version="1.1" width="512" height="512" x="0" y="0" viewBox="0 0 418.919 418.919" style="enable-background:new 0 0 512 512" xml:space="preserve" class=""><g>
<g xmlns="http://www.w3.org/2000/svg">
	<g>
		<rect y="90.019" width="285.87" height="160.79" fill="#ffffff" data-original="#000000" style=""/>
	</g>
</g>
<g xmlns="http://www.w3.org/2000/svg">
	<g>
		<path d="M418.919,205.005l-29.388-65.723H298.69v123.641H193.923H96.227H34.511v28.108h29.391    c-0.235,1.598-0.397,3.219-0.397,4.881c0,18.219,14.65,32.988,32.723,32.988s32.723-14.77,32.723-32.988    c0-1.662-0.162-3.283-0.397-4.881H161.6c-0.235,1.598-0.397,3.219-0.397,4.881c0,18.219,14.65,32.988,32.723,32.988    c18.071,0,32.722-14.77,32.722-32.988c0-1.662-0.161-3.283-0.396-4.881h72.442h6.427c-0.235,1.598-0.397,3.219-0.397,4.881    c0,18.219,14.65,32.988,32.723,32.988c18.071,0,32.722-14.77,32.722-32.988c0-1.662-0.161-3.283-0.396-4.881h49.146V205.005z     M96.227,308.824c-7.074,0-12.809-5.781-12.809-12.912c0-1.729,0.343-3.374,0.953-4.881c1.91-4.711,6.495-8.033,11.855-8.033    c5.36,0,9.945,3.322,11.855,8.033c0.61,1.507,0.953,3.152,0.953,4.881C109.035,303.043,103.301,308.824,96.227,308.824z     M193.923,308.824c-7.074,0-12.809-5.781-12.809-12.912c0-1.729,0.343-3.374,0.953-4.881c1.91-4.711,6.495-8.033,11.855-8.033    c5.36,0,9.945,3.322,11.854,8.033c0.611,1.507,0.954,3.152,0.954,4.881C206.731,303.043,200.997,308.824,193.923,308.824z     M337.442,308.824c-7.074,0-12.809-5.781-12.809-12.912c0-1.729,0.343-3.374,0.953-4.881c1.91-4.711,6.495-8.033,11.855-8.033    c5.36,0,9.945,3.322,11.854,8.033c0.611,1.507,0.954,3.152,0.954,4.881C350.251,303.043,344.517,308.824,337.442,308.824z     M320.319,203.768c-0.491,0-0.889-0.398-0.889-0.889v-44.402c0-0.491,0.397-0.889,0.889-0.889h55.921    c1.179,0,2.246,0.698,2.718,1.779l19.4,44.401H320.319z" fill="#ffffff" data-original="#000000" style=""/>
	</g>
</g>
<g xmlns="http://www.w3.org/2000/svg">
</g>
<g xmlns="http://www.w3.org/2000/svg">
</g>
<g xmlns="http://www.w3.org/2000/svg">
</g>
<g xmlns="http://www.w3.org/2000/svg">
</g>
<g xmlns="http://www.w3.org/2000/svg">
</g>
<g xmlns="http://www.w3.org/2000/svg">
</g>
<g xmlns="http://www.w3.org/2000/svg">
</g>
<g xmlns="http://www.w3.org/2000/svg">
</g>
<g xmlns="http://www.w3.org/2000/svg">
</g>
<g xmlns="http://www.w3.org/2000/svg">
</g>
<g xmlns="http://www.w3.org/2000/svg">
</g>
<g xmlns="http://www.w3.org/2000/svg">
</g>
<g xmlns="http://www.w3.org/2000/svg">
</g>
<g xmlns="http://www.w3.org/2000/svg">
</g>
<g xmlns="http://www.w3.org/2000/svg">
</g>
</g></svg>
