<?xml version="1.0"?>
<svg xmlns="http://www.w3.org/2000/svg" xmlns:xlink="http://www.w3.org/1999/xlink" xmlns:svgjs="http://svgjs.com/svgjs" version="1.1" width="512" height="512" x="0" y="0" viewBox="0 0 512 512" style="enable-background:new 0 0 512 512" xml:space="preserve" class=""><g>
<g xmlns="http://www.w3.org/2000/svg">
	<g>
		<path d="M503.467,132.267h-358.4c-4.719,0-8.533,4.412-8.533,9.847v109.619c0,4.71,3.823,8.533,8.533,8.533h358.4    c4.71,0,8.533-3.823,8.533-8.533V142.114C512,136.678,508.186,132.267,503.467,132.267z" fill="#ffffff" data-original="#000000" style="" class=""/>
	</g>
</g>
<g xmlns="http://www.w3.org/2000/svg">
	<g>
		<path d="M503.467,277.333H264.533c-4.71,0-8.533,3.823-8.533,8.533v50.56c-0.179,2.074,0.393,4.164,1.664,5.862    c1.604,2.15,4.139,3.422,6.835,3.422h0.009l25.634-0.026c0.043,18.782,15.326,34.048,34.125,34.048    c18.825,0,34.133-15.309,34.133-34.133h51.2c0,18.825,15.309,34.133,34.133,34.133c18.825,0,34.133-15.309,34.133-34.133h25.6    c4.71,0,8.533-3.823,8.533-8.533v-51.2C512,281.156,508.177,277.333,503.467,277.333z M324.267,362.667    c-9.412,0-17.067-7.654-17.067-17.067c0-9.412,7.654-17.067,17.067-17.067c9.412,0,17.067,7.654,17.067,17.067    C341.333,355.012,333.679,362.667,324.267,362.667z M443.733,362.667c-9.412,0-17.067-7.654-17.067-17.067    c0-9.412,7.654-17.067,17.067-17.067c9.412,0,17.067,7.654,17.067,17.067C460.8,355.012,453.146,362.667,443.733,362.667z" fill="#ffffff" data-original="#000000" style="" class=""/>
	</g>
</g>
<g xmlns="http://www.w3.org/2000/svg">
	<g>
		<path d="M230.4,277.333H128c-4.71,0-8.533-3.823-8.533-8.533v-85.333c0-4.71-3.823-8.533-8.533-8.533H42.667    c-3.49,0-6.63,2.125-7.927,5.367L0.614,265.617C0.41,266.692,0.205,267.733,0,268.8v85.333c0,4.71,3.823,8.533,8.533,8.533h30.345    c5.922,10.155,16.811,17.067,29.389,17.067c18.825,0,34.133-15.309,34.133-34.133h34.133c0,18.825,15.309,34.133,34.133,34.133    S204.8,364.425,204.8,345.6h25.6c4.71,0,8.533-3.823,8.533-8.533v-51.2C238.933,281.156,235.11,277.333,230.4,277.333z     M27.563,260.267c-3.055,0-5.12-3.106-3.934-5.922l17.946-42.667c0.657-1.579,2.21-2.611,3.925-2.611h27.034    c2.355,0,4.267,1.911,4.267,4.267V256c0,2.355-1.911,4.267-4.267,4.267H27.563z M68.267,362.667    c-9.412,0-17.067-7.654-17.067-17.067c0-9.412,7.654-17.067,17.067-17.067c9.412,0,17.067,7.654,17.067,17.067    C85.333,355.012,77.679,362.667,68.267,362.667z M170.667,362.667c-9.412,0-17.067-7.654-17.067-17.067    c0-9.412,7.654-17.067,17.067-17.067c9.412,0,17.067,7.654,17.067,17.067C187.733,355.012,180.079,362.667,170.667,362.667z" fill="#ffffff" data-original="#000000" style="" class=""/>
	</g>
</g>
<g xmlns="http://www.w3.org/2000/svg">
</g>
<g xmlns="http://www.w3.org/2000/svg">
</g>
<g xmlns="http://www.w3.org/2000/svg">
</g>
<g xmlns="http://www.w3.org/2000/svg">
</g>
<g xmlns="http://www.w3.org/2000/svg">
</g>
<g xmlns="http://www.w3.org/2000/svg">
</g>
<g xmlns="http://www.w3.org/2000/svg">
</g>
<g xmlns="http://www.w3.org/2000/svg">
</g>
<g xmlns="http://www.w3.org/2000/svg">
</g>
<g xmlns="http://www.w3.org/2000/svg">
</g>
<g xmlns="http://www.w3.org/2000/svg">
</g>
<g xmlns="http://www.w3.org/2000/svg">
</g>
<g xmlns="http://www.w3.org/2000/svg">
</g>
<g xmlns="http://www.w3.org/2000/svg">
</g>
<g xmlns="http://www.w3.org/2000/svg">
</g>
</g></svg>
