<?xml version="1.0"?>
<svg xmlns="http://www.w3.org/2000/svg" xmlns:xlink="http://www.w3.org/1999/xlink" xmlns:svgjs="http://svgjs.com/svgjs" version="1.1" width="512" height="512" x="0" y="0" viewBox="0 0 512 512" style="enable-background:new 0 0 512 512" xml:space="preserve" class=""><g transform="matrix(-1,0,0,1,512,0)">
<g xmlns="http://www.w3.org/2000/svg">
	<g>
		<g>
			<path d="M234.667,117.333c5.896,0,10.667-4.771,10.667-10.667V96c0-5.896-4.771-10.667-10.667-10.667     C228.771,85.333,224,90.104,224,96v10.667C224,112.563,228.771,117.333,234.667,117.333z" fill="#ffffff" data-original="#000000" style=""/>
			<path d="M266.667,128c2.729,0,5.458-1.042,7.542-3.125l10.667-10.667c4.167-4.167,4.167-10.917,0-15.083s-10.917-4.167-15.083,0     l-10.667,10.667c-4.167,4.167-4.167,10.917,0,15.083C261.208,126.958,263.938,128,266.667,128z" fill="#ffffff" data-original="#000000" style=""/>
			<path d="M195.125,124.875c2.083,2.083,4.813,3.125,7.542,3.125c2.729,0,5.458-1.042,7.542-3.125     c4.167-4.167,4.167-10.917,0-15.083l-10.667-10.667c-4.167-4.167-10.917-4.167-15.083,0c-4.167,4.167-4.167,10.917,0,15.083     L195.125,124.875z" fill="#ffffff" data-original="#000000" style=""/>
			<path d="M485.26,253.177l-105.615-17.604l-30.604-45.906c-7.927-11.896-21.198-19-35.5-19h-46.875V160c0-17.646-14.354-32-32-32     c-17.646,0-32,14.354-32,32v10.667h-46.875c-14.302,0-27.573,7.104-35.5,19L89.417,235.99l-65.188,16.292     C9.969,255.844,0,268.615,0,283.323v53.594c0,12.573,4.896,24.396,13.792,33.292C22.688,379.104,34.51,384,47.083,384h28.663     c4.956,24.314,26.5,42.667,52.254,42.667s47.298-18.353,52.254-42.667h140.826c4.956,24.314,26.5,42.667,52.254,42.667     s47.298-18.353,52.254-42.667h47.819c8.146,0,15.458-4.521,19.083-11.792l17.26-34.521c0.375-0.75,0.656-1.542,0.844-2.354     l1.125-4.771c0.188-0.792,0.281-1.604,0.281-2.417V284.74C512,269.031,500.76,255.75,485.26,253.177z M128,405.333     c-17.646,0-32-14.354-32-32c0-17.646,14.354-32,32-32s32,14.354,32,32C160,390.979,145.646,405.333,128,405.333z      M334.333,277.333H138.667c-3.75,0-7.219-1.969-9.146-5.188c-1.927-3.219-2.031-7.208-0.26-10.51l22.833-42.667     c1.854-3.469,5.469-5.635,9.406-5.635h146.333c3.688,0,7.115,1.906,9.063,5.042l26.5,42.667c2.042,3.292,2.146,7.427,0.26,10.813     C341.771,275.24,338.208,277.333,334.333,277.333z M373.333,405.333c-17.646,0-32-14.354-32-32c0-17.646,14.354-32,32-32     c17.646,0,32,14.354,32,32C405.333,390.979,390.979,405.333,373.333,405.333z" fill="#ffffff" data-original="#000000" style=""/>
		</g>
	</g>
</g>
<g xmlns="http://www.w3.org/2000/svg">
</g>
<g xmlns="http://www.w3.org/2000/svg">
</g>
<g xmlns="http://www.w3.org/2000/svg">
</g>
<g xmlns="http://www.w3.org/2000/svg">
</g>
<g xmlns="http://www.w3.org/2000/svg">
</g>
<g xmlns="http://www.w3.org/2000/svg">
</g>
<g xmlns="http://www.w3.org/2000/svg">
</g>
<g xmlns="http://www.w3.org/2000/svg">
</g>
<g xmlns="http://www.w3.org/2000/svg">
</g>
<g xmlns="http://www.w3.org/2000/svg">
</g>
<g xmlns="http://www.w3.org/2000/svg">
</g>
<g xmlns="http://www.w3.org/2000/svg">
</g>
<g xmlns="http://www.w3.org/2000/svg">
</g>
<g xmlns="http://www.w3.org/2000/svg">
</g>
<g xmlns="http://www.w3.org/2000/svg">
</g>
</g></svg>
