<svg xmlns="http://www.w3.org/2000/svg" width="66.956" height="79.101" viewBox="0 0 66.956 79.101">
  <path id="Контур_453" data-name="Контур 453" d="M74.051,77.544a1.558,1.558,0,1,1-1.559-1.557A1.56,1.56,0,0,1,74.051,77.544Zm-34.272,0v-1.97A20.915,20.915,0,0,1,49.9,57.683a51.875,51.875,0,0,1,13.388-5.651V49.525a14.322,14.322,0,0,1-2.134-2.357,37.277,37.277,0,0,1-4.535-8.341,3.264,3.264,0,0,1-2.5-1.857c-.471-1-3.736-7.036-4.236-8.111a4.7,4.7,0,0,1,2.491-6.284,4.955,4.955,0,0,1,1.075-.312A18,18,0,0,1,70.921,0a6.66,6.66,0,0,1,4.647,1.877.034.034,0,0,0,.048,0A6.661,6.661,0,0,1,80.263,0,12.237,12.237,0,0,1,92.487,12.223v2.836a26.2,26.2,0,0,1-1,7.175,4.346,4.346,0,0,1,1.1.318,4.7,4.7,0,0,1,2.49,6.284c-.528,1.061-3.765,7.114-4.236,8.111a3.265,3.265,0,0,1-2.5,1.857,37.281,37.281,0,0,1-4.541,8.36,14.337,14.337,0,0,1-2.137,2.359v2.508a51.878,51.878,0,0,1,13.388,5.651,20.915,20.915,0,0,1,10.124,17.891v1.97A1.557,1.557,0,0,1,103.62,79.1H79.5a1.559,1.559,0,0,1-1.554-1.661,1.594,1.594,0,0,1,1.608-1.453h22.509a18.054,18.054,0,0,0-8.612-15.632,48.739,48.739,0,0,0-11.964-5.146,9.187,9.187,0,0,1-18.017,0,48.752,48.752,0,0,0-11.964,5.146,17.836,17.836,0,0,0-8.612,15.632H65.486a1.558,1.558,0,0,1,1.552,1.665A1.594,1.594,0,0,1,65.43,79.1H41.336a1.557,1.557,0,0,1-1.557-1.557ZM56.056,18.223a8.062,8.062,0,0,1,5.99-2.808A7.938,7.938,0,0,1,67.065,17.2a7.334,7.334,0,0,0,11.953-5.711,1.557,1.557,0,0,1,3.114,0,5,5,0,0,0,2.793,4.5,10.292,10.292,0,0,1,4.045,3.38,23.182,23.182,0,0,0,.4-4.313V12.223a9.119,9.119,0,0,0-9.109-9.109,3.561,3.561,0,0,0-2.485,1,3.137,3.137,0,0,1-4.373,0,3.561,3.561,0,0,0-2.485-1A14.833,14.833,0,0,0,56.056,18.223ZM78.551,51.6a14.037,14.037,0,0,1-12.145,0v1.81a6.073,6.073,0,0,0,12.145,0Zm2.726-6.257a34.1,34.1,0,0,0,4.548-8.707,1.551,1.551,0,0,1,2.139-.886c.578-1.231,3.831-7.246,4.3-8.242a1.611,1.611,0,0,0-.892-2.087,1.679,1.679,0,0,0-1.419.071,1.565,1.565,0,0,1-2.285-1.157A7.032,7.032,0,0,0,83.6,18.812a7.8,7.8,0,0,1-2.818-2.238A12.084,12.084,0,0,1,79.04,18.9a10.383,10.383,0,0,1-13.944.721,4.791,4.791,0,0,0-6.39.324,5.1,5.1,0,0,0-1.488,3.544V24.1a1.561,1.561,0,0,1-2.256,1.392,1.684,1.684,0,0,0-1.373-.046A1.585,1.585,0,0,0,52.7,27.53c.467,1,3.792,7.1,4.284,8.219a1.594,1.594,0,0,1,2.157.908,34.147,34.147,0,0,0,4.542,8.689,10.822,10.822,0,0,0,17.6,0Zm24.679-36V1.557A1.557,1.557,0,0,0,104.4,0H96.613a1.557,1.557,0,1,0,0,3.114h6.228V9.343a1.557,1.557,0,0,0,3.114,0Zm0,42.509V44.066a1.557,1.557,0,1,0-3.114,0v6.228H96.613a1.557,1.557,0,1,0,0,3.114H104.4A1.557,1.557,0,0,0,105.956,51.852ZM42.114,9.343V3.114h6.228a1.557,1.557,0,1,0,0-3.114H40.557A1.557,1.557,0,0,0,39,1.557V9.343a1.557,1.557,0,1,0,3.114,0ZM49.9,51.852a1.557,1.557,0,0,0-1.557-1.557H42.114V44.066a1.557,1.557,0,1,0-3.114,0v7.786a1.557,1.557,0,0,0,1.557,1.557h7.786A1.557,1.557,0,0,0,49.9,51.852Z" transform="translate(-39 0)" fill="#fff"/>
</svg>
