<svg xmlns="http://www.w3.org/2000/svg" width="93.309" height="64.569" viewBox="0 0 93.309 64.569">
  <g id="Сгруппировать_554" data-name="Сгруппировать 554" transform="translate(-0.001)">
    <g id="Сгруппировать_767" data-name="Сгруппировать 767">
      <path id="Вычитание_1" data-name="Вычитание 1" d="M13.641,42.673h0a1.764,1.764,0,0,1-1.486-.8L9.592,37.833l-4.24,2.22a1.69,1.69,0,0,1-.781.189,1.765,1.765,0,0,1-1.487-.8L.238,34.954A1.448,1.448,0,0,1,.8,32.866l4.24-2.22L2.475,26.6a1.448,1.448,0,0,1,.56-2.088l4.712-2.467a1.69,1.69,0,0,1,.781-.189,1.765,1.765,0,0,1,1.486.8L12.576,26.7l6.078-3.182A17.11,17.11,0,0,1,22.076,6.242,18.357,18.357,0,0,1,27.22,2.28,20.353,20.353,0,0,1,36.628,0a21.145,21.145,0,0,1,17.8,9.571,18.525,18.525,0,0,1,2.26,5.115c-.616-.051-1.248-.077-1.88-.077a22.56,22.56,0,0,0-6.875,1.066,10.391,10.391,0,0,0-1.044-2.157,11.755,11.755,0,0,0-9.9-5.314,11.288,11.288,0,0,0-5.219,1.263,9.64,9.64,0,0,0-3.729,13.919,11.5,11.5,0,0,0,6.1,4.7,22.406,22.406,0,0,0-1.88,7.956,21.112,21.112,0,0,1-9.06-5.333l-6.078,3.182,2.562,4.043a1.448,1.448,0,0,1-.559,2.087l-4.711,2.467A1.688,1.688,0,0,1,13.641,42.673Z" transform="translate(0 1.599)" fill="#fff"/>
      <path id="Icon_awesome-mars" data-name="Icon awesome-mars" d="M51.073,0H40.227A1.65,1.65,0,0,0,39.06,2.814l2.32,2.32L30.3,16.214a19.762,19.762,0,1,0,6.206,6.206L47.585,11.34l2.32,2.32a1.648,1.648,0,0,0,2.814-1.167V1.648A1.652,1.652,0,0,0,51.073,0ZM19.77,43.933A10.983,10.983,0,1,1,30.753,32.95,11,11,0,0,1,19.77,43.933Z" transform="matrix(0.966, 0.259, -0.259, 0.966, 42.386, 0)" fill="#fff"/>
    </g>
  </g>
</svg>
