<svg xmlns="http://www.w3.org/2000/svg" width="62.719" height="58.673" viewBox="0 0 62.719 58.673">
  <path id="Контур_454" data-name="Контур 454" d="M54.8,56.762s2.411-14.847-1.323-23.847c0,0-2-7.254-1.992-9.286,0,0-20.928,13.836-29.042,12.647,0,0,10.755-7.2,12.51-10.968,0,0-16.571,11.532-22.078,10.641,0,0,5.524-3.753,6.693-5.772,0,0-13.054,2.561-13.4,15.9L4.675,57.079S1.893,43.647.97,40.543c-2.847-9.575,1.066-25.956,5.336-29.259,0,0,7.88-13.6,35.988-9.425,0,0,14.906.725,20.045,20.846,1.2,4.7-.693,15.235-2.23,19.227-1.524,3.962-5.477,17.8-5.477,17.8Zm-29.109-2.5c2.605-1.9,3.459-9.4,3.657-11.661a1.318,1.318,0,0,0-.369-1.037,1.451,1.451,0,0,0-1.049-.441H9.828a1.451,1.451,0,0,0-1.049.441A1.328,1.328,0,0,0,8.409,42.6c.2,2.259,1.054,9.76,3.659,11.661,1.947,1.416,5.412,1.568,6.811,1.568S23.741,55.679,25.689,54.263Zm.662-10.413c-.464,3.686-1.437,7.547-2.386,8.236A9.952,9.952,0,0,1,18.879,53.1a10,10,0,0,1-5.086-1.014c-.948-.689-1.92-4.556-2.386-8.236Zm24.3,10.413c2.6-1.9,3.458-9.4,3.657-11.661a1.337,1.337,0,0,0-.367-1.037,1.457,1.457,0,0,0-1.049-.441h-18.1a1.457,1.457,0,0,0-1.049.441,1.305,1.305,0,0,0-.367,1.037c.2,2.259,1.054,9.76,3.657,11.661,1.945,1.416,5.414,1.568,6.811,1.568S48.7,55.679,50.65,54.263Zm.66-10.413c-.462,3.686-1.437,7.547-2.386,8.236A9.946,9.946,0,0,1,43.837,53.1a10.017,10.017,0,0,1-5.088-1.014c-.946-.689-1.922-4.556-2.386-8.236ZM36.077,45.087a1.4,1.4,0,0,0-1.423-1.366H28.06a1.367,1.367,0,1,0,0,2.733h6.594A1.4,1.4,0,0,0,36.077,45.087Z" transform="translate(0 -1.063)" fill="#fff"/>
</svg>
