<svg xmlns="http://www.w3.org/2000/svg" width="421.911" height="50" viewBox="0 0 421.911 50">
  <path id="Вычитание_2" data-name="Вычитание 2" d="M407.9-419H21.429a4.226,4.226,0,0,0,2.232-3.729v-3.665a11.853,11.853,0,0,0-11.84-11.84H10.35a15.285,15.285,0,0,1-6.422,1.409,15.34,15.34,0,0,1-6.421-1.409H-3.965a11.824,11.824,0,0,0-9.05,4.206V-468H407.9v49ZM3.928-463.6A11.289,11.289,0,0,0-7.348-452.328,11.289,11.289,0,0,0,3.928-441.052,11.289,11.289,0,0,0,15.2-452.328,11.289,11.289,0,0,0,3.928-463.6Z" transform="translate(13.515 468.499)" fill="none" stroke="#fff" stroke-width="1" opacity="0.36"/>
</svg>
